<svg width="1894" height="488" viewBox="0 0 1894 488" fill="none" xmlns="http://www.w3.org/2000/svg">
<path d="M552.144 389.8C530.277 389.8 510.81 385.133 493.744 375.8C476.677 366.2 463.21 353.133 453.344 336.6C443.477 320.067 438.544 301.267 438.544 280.2C438.544 258.867 443.477 240.067 453.344 223.8C463.21 207.267 476.677 194.333 493.744 185C510.81 175.667 530.277 171 552.144 171C574.277 171 593.877 175.667 610.944 185C628.277 194.333 641.744 207.133 651.344 223.4C661.21 239.667 666.144 258.6 666.144 280.2C666.144 301.267 661.21 320.067 651.344 336.6C641.744 353.133 628.277 366.2 610.944 375.8C593.877 385.133 574.277 389.8 552.144 389.8ZM552.144 347C564.41 347 575.344 344.333 584.944 339C594.544 333.667 602.01 325.933 607.344 315.8C612.944 305.667 615.744 293.8 615.744 280.2C615.744 266.333 612.944 254.467 607.344 244.6C602.01 234.467 594.544 226.733 584.944 221.4C575.344 216.067 564.544 213.4 552.544 213.4C540.277 213.4 529.344 216.067 519.744 221.4C510.41 226.733 502.944 234.467 497.344 244.6C491.744 254.467 488.944 266.333 488.944 280.2C488.944 293.8 491.744 305.667 497.344 315.8C502.944 325.933 510.41 333.667 519.744 339C529.344 344.333 540.144 347 552.144 347ZM835.156 171C852.223 171 867.423 174.333 880.756 181C894.356 187.667 905.023 197.933 912.756 211.8C920.49 225.4 924.356 243 924.356 264.6V387H874.356V271C874.356 252.067 869.823 237.933 860.756 228.6C851.956 219.267 839.556 214.6 823.556 214.6C811.823 214.6 801.423 217 792.356 221.8C783.29 226.6 776.223 233.8 771.156 243.4C766.356 252.733 763.956 264.6 763.956 279V387H713.956V173.4H761.556V231L753.156 213.4C760.623 199.8 771.423 189.4 785.556 182.2C799.956 174.733 816.49 171 835.156 171ZM1053.78 389.8C1035.92 389.8 1018.72 387.533 1002.18 383C985.918 378.2 972.984 372.467 963.384 365.8L982.584 327.8C992.184 333.933 1003.65 339 1016.98 343C1030.32 347 1043.65 349 1056.98 349C1072.72 349 1084.05 346.867 1090.98 342.6C1098.18 338.333 1101.78 332.6 1101.78 325.4C1101.78 319.533 1099.38 315.133 1094.58 312.2C1089.78 309 1083.52 306.6 1075.78 305C1068.05 303.4 1059.38 301.933 1049.78 300.6C1040.45 299.267 1030.98 297.533 1021.38 295.4C1012.05 293 1003.52 289.667 995.784 285.4C988.051 280.867 981.784 274.867 976.984 267.4C972.184 259.933 969.784 250.067 969.784 237.8C969.784 224.2 973.651 212.467 981.384 202.6C989.118 192.467 999.918 184.733 1013.78 179.4C1027.92 173.8 1044.58 171 1063.78 171C1078.18 171 1092.72 172.6 1107.38 175.8C1122.05 179 1134.18 183.533 1143.78 189.4L1124.58 227.4C1114.45 221.267 1104.18 217.133 1093.78 215C1083.65 212.6 1073.52 211.4 1063.38 211.4C1048.18 211.4 1036.85 213.667 1029.38 218.2C1022.18 222.733 1018.58 228.467 1018.58 235.4C1018.58 241.8 1020.98 246.6 1025.78 249.8C1030.58 253 1036.85 255.533 1044.58 257.4C1052.32 259.267 1060.85 260.867 1070.18 262.2C1079.78 263.267 1089.25 265 1098.58 267.4C1107.92 269.8 1116.45 273.133 1124.18 277.4C1132.18 281.4 1138.58 287.133 1143.38 294.6C1148.18 302.067 1150.58 311.8 1150.58 323.8C1150.58 337.133 1146.58 348.733 1138.58 358.6C1130.85 368.467 1119.78 376.2 1105.38 381.8C1090.98 387.133 1073.78 389.8 1053.78 389.8ZM1284.04 389.8C1265.91 389.8 1249.91 386.467 1236.04 379.8C1222.18 372.867 1211.38 362.467 1203.64 348.6C1195.91 334.467 1192.04 316.733 1192.04 295.4V173.4H1242.04V288.6C1242.04 307.8 1246.31 322.2 1254.84 331.8C1263.64 341.133 1276.04 345.8 1292.04 345.8C1303.78 345.8 1313.91 343.4 1322.44 338.6C1331.24 333.8 1338.04 326.6 1342.84 317C1347.91 307.4 1350.44 295.533 1350.44 281.4V173.4H1400.44V387H1352.84V329.4L1361.24 347C1354.04 360.867 1343.51 371.533 1329.64 379C1315.78 386.2 1300.58 389.8 1284.04 389.8ZM1465.91 387V90.2H1515.91V387H1465.91ZM1581.53 387V173.4H1631.53V387H1581.53ZM1606.73 138.2C1597.4 138.2 1589.67 135.267 1583.53 129.4C1577.67 123.533 1574.73 116.467 1574.73 108.2C1574.73 99.6667 1577.67 92.6 1583.53 87C1589.67 81.1333 1597.4 78.2 1606.73 78.2C1616.07 78.2 1623.67 81 1629.53 86.6C1635.67 91.9333 1638.73 98.7333 1638.73 107C1638.73 115.8 1635.8 123.267 1629.93 129.4C1624.07 135.267 1616.33 138.2 1606.73 138.2ZM1667.96 387L1761.96 264.6L1761.16 291.4L1671.56 173.4H1727.16L1789.96 257.4H1768.76L1831.96 173.4H1885.96L1795.56 291.4L1795.96 264.6L1889.56 387H1833.16L1767.16 297.8L1787.96 300.6L1723.16 387H1667.96Z" fill="#002050"/>
<rect x="89" y="214" width="63" height="166" fill="#D6A419"/>
<rect x="162" y="173" width="63" height="207" fill="#D6A419"/>
<rect x="235" y="144" width="63" height="236" fill="#D6A419"/>
<path d="M394.664 323.25C371.228 363.844 334.97 395.502 291.586 413.251C248.203 431 200.153 433.835 154.984 421.309C109.815 408.784 70.0862 381.608 42.0393 344.052C13.9923 306.495 -0.783819 260.685 0.0320395 213.819C0.847898 166.952 17.2095 121.685 46.5467 85.1269C75.8838 48.5692 116.534 22.7929 162.112 11.8472C207.69 0.901606 255.612 5.40684 298.351 24.6552C341.09 43.9036 376.224 76.8044 398.234 118.189L349.513 144.101C333.246 113.514 307.279 89.1969 275.691 74.9707C244.103 60.7445 208.684 57.4147 174.998 65.5045C141.312 73.5943 111.268 92.6452 89.585 119.665C67.9022 146.684 55.8095 180.141 55.2066 214.779C54.6036 249.418 65.5244 283.275 86.2536 311.033C106.983 338.79 136.346 358.876 169.73 368.133C203.114 377.39 238.627 375.295 270.691 362.177C302.755 349.059 329.553 325.661 346.875 295.659L394.664 323.25Z" fill="#003366"/>
<path d="M341 348.5L115.5 395.5L413 481L341 348.5Z" fill="#003366"/>
</svg>
