<svg width="50" height="50" viewBox="0 0 50 50" fill="none" xmlns="http://www.w3.org/2000/svg">
<path d="M41.6665 25.4167V28.9585C41.6665 35.521 37.9165 38.3335 32.2915 38.3335H13.5415C7.9165 38.3335 4.1665 35.521 4.1665 28.9585V17.7085C4.1665 11.146 7.9165 8.3335 13.5415 8.3335H19.1665C18.8957 9.12516 18.7498 10.0002 18.7498 10.9377V19.0627C18.7498 21.0835 19.4165 22.7919 20.604 23.9794C21.7915 25.1669 23.4998 25.8335 25.5207 25.8335V28.7294C25.5207 29.7919 26.729 30.4376 27.6248 29.8542L33.6457 25.8335H39.0623C39.9998 25.8335 40.8748 25.6876 41.6665 25.4167Z" stroke="#44619A" stroke-width="2" stroke-miterlimit="10" stroke-linecap="round" stroke-linejoin="round"/>
<path d="M45.8333 10.9373V19.0624C45.8333 22.1666 44.25 24.4997 41.6667 25.4164C40.875 25.6872 40 25.8332 39.0625 25.8332H33.6458L27.625 29.8539C26.7292 30.4372 25.5208 29.7916 25.5208 28.7291V25.8332C23.5 25.8332 21.7917 25.1665 20.6042 23.979C19.4167 22.7915 18.75 21.0832 18.75 19.0624V10.9373C18.75 9.99984 18.8958 9.12484 19.1667 8.33317C20.0833 5.74984 22.4167 4.1665 25.5208 4.1665H39.0625C43.125 4.1665 45.8333 6.87484 45.8333 10.9373Z" stroke="#44619A" stroke-width="2" stroke-miterlimit="10" stroke-linecap="round" stroke-linejoin="round"/>
<path d="M15.4165 45.8335H30.4165" stroke="#44619A" stroke-width="2" stroke-miterlimit="10" stroke-linecap="round" stroke-linejoin="round"/>
<path d="M22.9165 38.3335V45.8334" stroke="#44619A" stroke-width="2" stroke-miterlimit="10" stroke-linecap="round" stroke-linejoin="round"/>
<path d="M38.5323 15.1042H38.551" stroke="#44619A" stroke-width="2" stroke-linecap="round" stroke-linejoin="round"/>
<path d="M32.6993 15.1042H32.718" stroke="#44619A" stroke-width="2" stroke-linecap="round" stroke-linejoin="round"/>
<path d="M26.8653 15.1042H26.884" stroke="#44619A" stroke-width="2" stroke-linecap="round" stroke-linejoin="round"/>
</svg>
