<svg width="50" height="50" viewBox="0 0 50 50" fill="none" xmlns="http://www.w3.org/2000/svg">
<path d="M22.9165 4.1665H18.7498C8.33317 4.1665 4.1665 8.33317 4.1665 18.7498V31.2498C4.1665 41.6665 8.33317 45.8332 18.7498 45.8332H31.2498C41.6665 45.8332 45.8332 41.6665 45.8332 31.2498V27.0832" stroke="#44619A" stroke-width="2" stroke-linecap="round" stroke-linejoin="round"/>
<path d="M33.4169 6.29146L17.0002 22.7081C16.3752 23.3331 15.7502 24.5623 15.6252 25.4581L14.7294 31.729C14.3961 33.9998 16.0002 35.5831 18.2711 35.2706L24.5419 34.3748C25.4169 34.2498 26.6461 33.6248 27.2919 32.9998L43.7086 16.5831C46.5419 13.7498 47.8752 10.4581 43.7086 6.29146C39.5419 2.12479 36.2502 3.45813 33.4169 6.29146Z" stroke="#44619A" stroke-width="2" stroke-miterlimit="10" stroke-linecap="round" stroke-linejoin="round"/>
<path d="M31.0625 8.646C32.4583 13.6252 36.3542 17.521 41.3542 18.9377" stroke="#44619A" stroke-width="2" stroke-miterlimit="10" stroke-linecap="round" stroke-linejoin="round"/>
</svg>
