<svg width="50" height="50" viewBox="0 0 50 50" fill="none" xmlns="http://www.w3.org/2000/svg">
<path d="M43.7498 23.9582C43.7498 34.8957 34.8957 43.7498 23.9582 43.7498C13.0207 43.7498 4.1665 34.8957 4.1665 23.9582C4.1665 13.0207 13.0207 4.1665 23.9582 4.1665" stroke="#44619A" stroke-width="2" stroke-linecap="round" stroke-linejoin="round"/>
<path d="M45.8332 45.8332L41.6665 41.6665" stroke="#44619A" stroke-width="2" stroke-linecap="round" stroke-linejoin="round"/>
<path d="M30.2082 12.7706C29.479 10.4789 30.3332 7.62476 32.7498 6.85393C34.0207 6.43726 35.5832 6.79143 36.479 8.0206C37.3123 6.74976 38.9373 6.4581 40.1873 6.85393C42.604 7.62476 43.4582 10.4789 42.729 12.7706C41.5832 16.4164 37.5832 18.3123 36.479 18.3123C35.354 18.3123 31.3957 16.4581 30.2082 12.7706Z" stroke="#44619A" stroke-width="2" stroke-linecap="round" stroke-linejoin="round"/>
</svg>
