<svg width="370" height="92" viewBox="0 0 370 92" fill="none" xmlns="http://www.w3.org/2000/svg">
<path d="M111.351 64.2978H137.518V56.4121H120.651V26.7092H111.351V64.2978Z" fill="#002050"/>
<path d="M153.019 59.0409C149.289 59.0409 147.345 55.7815 147.345 50.8924C147.345 46.0032 149.289 42.6912 153.019 42.6912C156.75 42.6912 158.747 46.0032 158.747 50.8924C158.747 55.7815 156.75 59.0409 153.019 59.0409ZM153.072 65.1392C161.742 65.1392 167.417 58.9884 167.417 50.8924C167.417 42.7964 161.742 36.6455 153.072 36.6455C144.455 36.6455 138.675 42.7964 138.675 50.8924C138.675 58.9884 144.455 65.1392 153.072 65.1392Z" fill="#002050"/>
<path d="M182.425 73.6026C186.418 73.6026 189.939 72.7089 192.303 70.606C194.458 68.6609 195.876 65.7169 195.876 61.6689V37.3809H187.679V40.2723H187.574C185.998 38.0117 183.581 36.5923 180.008 36.5923C173.335 36.5923 168.711 42.1649 168.711 50.0506C168.711 58.3043 174.333 62.8254 180.376 62.8254C183.634 62.8254 185.683 61.5111 187.259 59.7237H187.469V62.4049C187.469 65.6643 185.945 67.5569 182.32 67.5569C179.483 67.5569 178.064 66.3477 177.591 64.9283H169.289C170.13 70.5534 175.016 73.6026 182.425 73.6026ZM182.372 56.4643C179.167 56.4643 177.065 53.8357 177.065 49.7877C177.065 45.6871 179.167 43.0586 182.372 43.0586C185.945 43.0586 187.837 46.1077 187.837 49.7351C187.837 53.5203 186.103 56.4643 182.372 56.4643Z" fill="#002050"/>
<path d="M212.731 59.0409C209.001 59.0409 207.057 55.7815 207.057 50.8924C207.057 46.0032 209.001 42.6912 212.731 42.6912C216.462 42.6912 218.459 46.0032 218.459 50.8924C218.459 55.7815 216.462 59.0409 212.731 59.0409ZM212.784 65.1392C221.454 65.1392 227.128 58.9884 227.128 50.8924C227.128 42.7964 221.454 36.6455 212.784 36.6455C204.167 36.6455 198.387 42.7964 198.387 50.8924C198.387 58.9884 204.167 65.1392 212.784 65.1392Z" fill="#002050"/>
<path d="M229.628 64.2976H238.193V37.381H229.628V64.2976ZM229.628 33.6484H238.193V26.709H229.628V33.6484Z" fill="#002050"/>
<path d="M241.91 73.182H250.475V61.5111H250.58C252.261 63.7717 254.731 65.1386 258.199 65.1386C265.24 65.1386 269.916 59.566 269.916 50.8391C269.916 42.7431 265.555 36.5923 258.409 36.5923C254.731 36.5923 252.104 38.222 250.265 40.6403H250.107V37.3809H241.91V73.182ZM255.992 58.5146C252.314 58.5146 250.212 55.518 250.212 51.1546C250.212 46.7911 252.104 43.4791 255.834 43.4791C259.513 43.4791 261.246 46.5283 261.246 51.1546C261.246 55.7283 259.25 58.5146 255.992 58.5146Z" fill="#002050"/>
<path d="M283.859 65.1383C290.9 65.1383 296.102 62.0892 296.102 56.2012C296.102 49.3143 290.532 48.1052 285.803 47.3166C282.388 46.6858 279.34 46.4229 279.34 44.5303C279.34 42.848 280.969 42.0595 283.071 42.0595C285.435 42.0595 287.064 42.7955 287.379 45.2138H295.261C294.841 39.904 290.742 36.592 283.123 36.592C276.765 36.592 271.511 39.536 271.511 45.2138C271.511 51.5223 276.503 52.784 281.179 53.5726C284.752 54.2035 288.01 54.4663 288.01 56.8846C288.01 58.6195 286.381 59.5658 283.806 59.5658C280.969 59.5658 279.182 58.2515 278.867 55.5703H270.775C271.038 61.5109 275.977 65.1383 283.859 65.1383Z" fill="#002050"/>
<path d="M307.737 65.086C311.468 65.086 313.832 63.614 315.777 60.9854H315.934V64.2974H324.131V37.3809H315.566V52.4163C315.566 55.6231 313.78 57.8311 310.837 57.8311C308.105 57.8311 306.791 56.2014 306.791 53.2574V37.3809H298.279V55.0449C298.279 61.038 301.537 65.086 307.737 65.086Z" fill="#002050"/>
<path d="M327.855 64.2974H336.42V49.2094C336.42 46.0026 337.997 43.742 340.676 43.742C343.251 43.742 344.459 45.4243 344.459 48.3157V64.2974H353.024V49.2094C353.024 46.0026 354.548 43.742 357.28 43.742C359.855 43.742 361.064 45.4243 361.064 48.3157V64.2974H369.628V46.7911C369.628 40.7454 366.581 36.5923 360.486 36.5923C357.018 36.5923 354.128 38.0643 352.026 41.3237H351.921C350.555 38.4323 347.875 36.5923 344.354 36.5923C340.466 36.5923 337.891 38.4323 336.21 41.2186H336.052V37.3809H327.855V64.2974Z" fill="#002050"/>
<path fill-rule="evenodd" clip-rule="evenodd" d="M45.2854 2.10718C69.9414 2.10718 89.9291 22.1051 89.9291 46.7738C89.9291 71.4427 69.9414 91.4406 45.2854 91.4406C20.6293 91.4406 0.641602 71.4427 0.641602 46.7738C0.641602 22.1051 20.6293 2.10718 45.2854 2.10718ZM88.2155 46.7738C88.2155 23.052 68.995 3.82149 45.2854 3.82149C43.3728 3.82149 41.4897 3.94661 39.6432 4.18912C40.8362 4.08476 42.0434 4.03149 43.2633 4.03149C65.9191 4.03149 84.2854 22.4071 84.2854 45.0746C84.2854 67.7419 65.9191 86.1176 43.2633 86.1176C21.8144 86.1176 4.21023 69.6476 2.39563 48.6582C3.38138 71.5058 22.2066 89.7262 45.2854 89.7262C68.995 89.7262 88.2155 70.4958 88.2155 46.7738ZM82.5718 45.0746C82.5718 23.3539 64.9729 5.74582 43.2633 5.74582C41.5007 5.74582 39.7649 5.86192 38.0636 6.08686C39.1112 5.99867 40.1711 5.95368 41.2414 5.95368C61.8971 5.95368 78.6417 22.707 78.6417 43.3731C78.6417 64.0393 61.8971 80.7925 41.2414 80.7925C21.7111 80.7925 5.67715 65.8147 3.98836 46.7133C4.847 67.674 22.1026 84.4033 43.2633 84.4033C64.9729 84.4033 82.5718 66.7952 82.5718 45.0746ZM41.2414 7.66801C60.9506 7.66801 76.9283 23.6537 76.9283 43.3731C76.9283 63.0924 60.9506 79.078 41.2414 79.078C21.989 79.078 6.29707 63.8244 5.58039 44.7373C7.12771 61.9654 21.5978 75.4673 39.2198 75.4673C57.8737 75.4673 72.996 60.3374 72.996 41.6737C72.996 23.01 57.8737 7.88014 39.2198 7.88014C38.2547 7.88014 37.2991 7.92064 36.3546 8C37.9524 7.7811 39.5837 7.66801 41.2414 7.66801ZM71.2824 41.6737C71.2824 23.9569 56.9275 9.59447 39.2198 9.59447C37.7236 9.59447 36.2513 9.69698 34.8098 9.8954C35.5969 9.83376 36.3925 9.80237 37.1955 9.80237C53.8495 9.80237 67.3501 23.3098 67.3501 39.9723C67.3501 56.6346 53.8495 70.1422 37.1955 70.1422C21.5206 70.1422 8.6391 58.1759 7.17901 42.8756C7.8107 60.0356 21.9141 73.753 39.2198 73.753C56.9275 73.753 71.2824 59.3907 71.2824 41.6737ZM37.1955 11.5167C52.903 11.5167 65.6365 24.2568 65.6365 39.9723C65.6365 55.6879 52.903 68.4279 37.1955 68.4279C21.7975 68.4279 9.25746 56.1849 8.76937 40.8976C10.0876 54.3257 21.4061 64.8172 35.1737 64.8172C49.8274 64.8172 61.7064 52.9319 61.7064 38.2708C61.7064 23.6097 49.8274 11.7245 35.1737 11.7245C34.5018 11.7245 33.8355 11.7495 33.1761 11.7986C34.4893 11.6128 35.8311 11.5167 37.1955 11.5167ZM59.993 38.2708C59.993 24.5564 48.881 13.4389 35.1737 13.4389C33.9225 13.4389 32.6929 13.5315 31.4914 13.7103C32.0398 13.671 32.5935 13.651 33.152 13.651C45.8041 13.651 56.0607 23.9129 56.0607 36.5714C56.0607 49.2302 45.8041 59.4919 33.152 59.4919C21.2962 59.4919 11.544 50.4814 10.3632 38.9314C10.7132 52.3404 21.6873 63.1029 35.1737 63.1029C48.881 63.1029 59.993 51.9851 59.993 38.2708ZM33.152 15.3653C44.8578 15.3653 54.3471 24.8596 54.3471 36.5714C54.3471 48.2834 44.8578 57.7776 33.152 57.7776C21.5951 57.7776 12.1985 48.5235 11.9612 37.0176C13.0288 46.6642 21.2038 54.1668 31.1302 54.1668C41.782 54.1668 50.417 45.5274 50.417 34.8701C50.417 24.2127 41.782 15.5732 31.1302 15.5732C30.7227 15.5732 30.3183 15.5858 29.9173 15.6107C30.9719 15.4491 32.0521 15.3653 33.152 15.3653ZM48.7036 34.8701C48.7036 25.1595 40.8358 17.2875 31.1302 17.2875C30.1555 17.2875 29.1994 17.3669 28.2678 17.5195C28.5454 17.5049 28.8248 17.4975 29.1061 17.4975C37.7575 17.4975 44.7711 24.5146 44.7711 33.1707C44.7711 41.8268 37.7575 48.844 29.1061 48.844C21.1063 48.844 14.5071 42.8443 13.558 35.097C13.6796 44.7031 21.5003 52.4526 31.1302 52.4526C40.8358 52.4526 48.7036 44.5807 48.7036 34.8701ZM29.1061 19.2118C36.8113 19.2118 43.0577 25.4613 43.0577 33.1707C43.0577 40.8801 36.8113 47.1295 29.1061 47.1295C21.4007 47.1295 15.1543 40.8801 15.1543 33.1707C15.1543 33.1523 15.1544 33.1337 15.1544 33.1153C15.9567 38.9901 20.9921 43.5168 27.0842 43.5168C33.7344 43.5168 39.1254 38.1229 39.1254 31.4694C39.1254 24.8156 33.7344 19.4219 27.0842 19.4219C26.9338 19.4219 26.7841 19.4246 26.635 19.4301C27.4369 19.2867 28.2628 19.2118 29.1061 19.2118ZM37.4118 31.4694C37.4118 25.7625 32.7882 21.1362 27.0842 21.1362C21.3803 21.1362 16.7564 25.7625 16.7564 31.4694C16.7564 37.176 21.3803 41.8023 27.0842 41.8023C32.7882 41.8023 37.4118 37.176 37.4118 31.4694Z" fill="#002050"/>
</svg>
