<?xml version="1.0" encoding="utf-8"?>
<!-- Generator: Adobe Illustrator 16.0.0, SVG Export Plug-In . SVG Version: 6.00 Build 0)  -->
<!DOCTYPE svg PUBLIC "-//W3C//DTD SVG 1.1//EN" "http://www.w3.org/Graphics/SVG/1.1/DTD/svg11.dtd">
<svg version="1.1" id="Layer_1" xmlns="http://www.w3.org/2000/svg" xmlns:xlink="http://www.w3.org/1999/xlink" x="0px" y="0px"
	 width="512px" height="512px" viewBox="0 0 512 512" enable-background="new 0 0 512 512" xml:space="preserve">
<g id="Layer_2">
	<rect fill="#9D1D22" width="512" height="512"/>
</g>
<g id="Layer_4">
	<g>
		<path fill="#FFFFFF" d="M383.927,118.575l-0.312-0.312c-0.133-0.095-1.021-0.369-4.438,1.305h0.003
			c-0.824,0.402-8.154,3.721-19.247,8.748c-10.093,4.574-23.527,10.712-38.159,17.432c-34.645,15.956-72.558,33.612-87.952,41.197
			c-0.436,0.216-0.863,0.428-1.265,0.627l-0.752,0.373c-2.089,1.027-4.25,2.092-4.902,2.98c-0.104,0.12-2.948,3.465-5.468,11.388
			c-0.008,0.031-0.012,0.08-0.02,0.113c-0.019,0.094-0.032,0.206-0.04,0.32c-0.019,0.297,0.025,0.626,0.287,0.768
			c0.383,0.211,0.833-0.168,1.183-0.525c-0.052,0.045,0.338-0.283,0.338-0.283l0.333-0.284c1.382-1.328,2.721-2.025,11.327-6.211
			c0.034-0.016,0.063-0.031,0.098-0.05l0.652-0.315l14.629-7.079c1.232-0.592,6.265-2.918,13.633-6.312
			c10.617-4.889,26.092-11.996,42.1-19.346c12.685-5.825,26.087-11.98,38.162-17.531c11.005-5.067,19.945-9.192,24.698-11.41
			c0,0,7.445-3.645,9.702-4.697l0.062-0.028l0.042-0.05c0.024-0.029,0.643-0.741,1.136-1.708l4.025-8.159
			C383.848,119.392,384.061,118.923,383.927,118.575"/>
		<path fill="#FFFFFF" d="M171.458,210.472c-0.748-3.723-1.941-7.307-3.093-10.777c-0.487-1.467-1.009-3.057-1.51-4.704
			c0.972,0.691,2.176,1.546,2.176,1.546c0.645,0.357,1.085,0.442,1.406,0.318c0.197-0.076,0.344-0.228,0.416-0.426
			c0.08-0.224,0.111-0.48,0.114-0.759h0.007c0.294-1.815,0.14-3.403-0.032-4.399c-0.033-0.262-0.095-0.546-0.177-0.841
			c-0.037-0.147-0.067-0.249-0.067-0.249v0.001c-0.645-2.121-2.338-4.958-4.173-7.818l-0.455-0.714l-6.109-10.274
			c-0.268-0.457-0.718-0.539-1.023-0.422c-0.372,0.142-0.589,0.582-0.661,0.861c-0.008-0.001-0.029-0.007-0.029-0.007l-4.62,12.56
			l-0.011-0.015c0,0-0.835,2.214-0.835,2.939c0,0,0.732,1.061,1.211,1.786l0.061-0.015l0.848,1.133
			c0.703,1.106,0.815,2.636,0.816,2.653c1.439,10.372,5.15,22.874,6.337,26.438c1.024,3.076,1.657,5.439,2.051,7.174
			c-0.998,0.731-2.869,2.148-2.869,2.148c-12.115,8.261-24.101,14.467-36.64,18.966c-0.287,0.106-28.68,10.694-46.155-3.85
			c-6.359-5.292-10.001-12.94-10.455-21.758c0.158-2.451,0.993-10.42,5.357-20.013c0.019-0.039,1.967-4.218,2.369-6.811l0.002-0.006
			c0.635-3.482,0.091-4.597-0.202-4.932c-0.002-0.001-0.006-0.004-0.008-0.009c-0.086-0.094-0.15-0.125-0.15-0.125l-0.002,0.006
			c-0.123-0.088-0.261-0.158-0.423-0.178c-0.985-0.107-2.232,1.077-5.412,7.303c-3.556,6.958-8.652,19.38-8.104,32.532
			c-0.164,4.215,0.188,8.554,1.314,12.859c1.06,4.056,2.929,8.148,5.265,11.524c4.268,6.17,10.501,10.811,17.548,13.063l0.141,0.043
			c10.225,3.271,21.738,3.004,34.222-0.791c11.829-3.596,21.375-9.174,21.774-9.404c16.973-9.181,24.437-16.662,24.511-16.734
			c2.975-3.825,4.767-10.702,5.359-14.165c0.33-1.938,0.498-3.873,0.498-5.756c0-0.647-0.027-1.292-0.067-1.935
			c0.039-0.656,0.067-1.313,0.067-1.963C172.046,214.433,171.848,212.41,171.458,210.472"/>
		<path fill="#FFFFFF" d="M84.616,123.426L84.616,123.426c-0.358,0.693-1.636,3.232-3.079,6.819l-0.544,1.367l-4.253,10.585
			l-3.942,9.747c-1.558,3.948-4.795,12.163-6.277,19.79c-0.364,1.887-1.938,11.646,3.013,18.435
			c0.821,1.127,3.823,4.756,8.015,4.115c0.482-0.07,4.821-0.86,8.105-6.904l0.185-0.346c2.869-5.235,4.503-10.916,4.854-16.885
			c0.022-0.43-0.08-1.692-0.84-1.853c-0.904-0.192-1.664,0.924-3.134,4.602l-0.495,1.355c-0.533,1.522-1.339,3.821-2.126,4.664
			c-1.454,1.551-3.212,1.802-5.229,0.743c-1.376-0.721-4.641-3.159-5.266-10.211c-0.33-3.758,0.765-9.229,3.343-16.727
			c0.064-0.156,6.821-17.003,7.537-19.899c0.009-0.018,1.555-4.897,1.525-7.519c-0.024-0.966-0.131-1.582-0.339-1.94l-0.063-0.11
			l-0.185-0.112l-0.02-0.01l-0.124-0.033C84.957,123.087,84.736,123.197,84.616,123.426"/>
		<path fill="#FFFFFF" d="M352.05,274.219c0,0,6.646-10.873,7.778-12.266c0,0,0.024-0.604,1.525,0.58
			c1.494,1.188,11.483,8.79,11.483,8.79s0.836,0.329-0.159,2.181l-6.471,10.275c0,0-0.652,0.959-2.377-0.385
			c-1.352-1.053-11.643-8.865-11.643-8.865L352.05,274.219z"/>
		<path fill="#FFFFFF" d="M108.985,217.158c0,0,6.648-10.873,7.78-12.268c0,0,0.023-0.604,1.524,0.581
			c1.498,1.185,11.483,8.787,11.483,8.787s0.838,0.332-0.16,2.188l-6.47,10.274c0,0-0.652,0.956-2.376-0.388
			c-1.35-1.048-11.64-8.865-11.64-8.865L108.985,217.158z"/>
		<path fill="#FFFFFF" d="M456.763,233.653c0.006-0.607,0.013-1.229,0.013-1.862c0-0.479-0.002-0.959-0.007-1.448
			c-0.018-2.156-0.168-13.539-1.318-25.818c-0.278-2.954-3.025-30.3-4.207-39.96l-0.605-4.938c0,0-0.548-4.646-0.938-7.953
			c1.048,1.27,3.478,4.213,3.478,4.213c0.33,0.424,1.153,1.475,1.904,1.222c0.392-0.129,0.621-1.068,0.697-1.831
			c0.016-0.129,0.026-0.257,0.036-0.39c0.146-1.446,0.096-3.319,0.024-4.607c-0.003-0.392-0.027-0.835-0.093-1.353
			c-0.007-0.078-0.013-0.13-0.013-0.13l-0.005,0.003c-0.262-1.948-1.065-5.011-3.16-10.948l-5.725-15.102
			c-1.162-3.126-2.177-5.563-2.726-6.521c-0.058-0.155-0.322-0.422-0.689-0.445c-0.232-0.015-0.577,0.057-0.88,0.487l-0.079,0.138
			c-0.523,1.143-3.221,7.077-4.852,11.537c0,0-0.838,2.213-0.838,2.937c0,0,0.452,0.805,0.931,1.532h0.002
			c0.277,0.393,0.704,0.977,1.022,1.887l0.323,1.109c0.127,0.561,0.268,2.178,0.453,4.604c0.063,1.193,0.788,8.861,1.794,19.472
			l1.182,12.487c0.014,0.146,2.508,23.602,4.282,42.592c0.562,5.952,2.237,24.954,2.386,39.705c-0.003,0.31-0.007,0.621-0.013,0.924
			c0,0,0.011-0.009,0.012-0.009c-0.009,0.041-0.013,0.096-0.017,0.204c-0.165,4.572-0.252,5.988-0.298,6.369v0.106
			c0,0.243,0.059,0.495,0.172,0.702c-0.087,2.031-0.138,2.817-0.172,3.086v0.109c0,0.45,0.167,0.947,0.641,1.11
			c0.707,0.242,1.341-0.452,1.921-1.233c1.636-2.207,5.373-9.5,5.373-29.955c0-0.478-0.001-0.957-0.007-1.446
			C456.769,234.091,456.769,233.888,456.763,233.653"/>
		<path fill="#FFFFFF" d="M280.275,274.956c0,0,6.646-10.87,7.779-12.265c0,0,0.021-0.603,1.521,0.58
			c1.5,1.185,11.483,8.789,11.483,8.789s0.841,0.332-0.155,2.185l-6.474,10.276c0,0-0.648,0.953-2.378-0.391
			c-1.347-1.047-11.637-8.863-11.637-8.863L280.275,274.956z"/>
		<path fill="#FFFFFF" d="M299.593,273.482c0,0,6.648-10.871,7.782-12.269c0,0,0.021-0.601,1.522,0.581
			c1.497,1.186,11.483,8.789,11.483,8.789s0.837,0.33-0.157,2.184l-6.472,10.276c0,0-0.651,0.957-2.378-0.39
			c-1.351-1.049-11.641-8.861-11.641-8.861L299.593,273.482z"/>
		<path fill="#FFFFFF" d="M420.706,149.356c-0.027-0.344-0.045-0.558-0.045-0.558l-0.027,0.018
			c-0.289-1.961-1.099-5.01-3.083-10.695l-5.67-15.12c-1.146-3.13-2.155-5.571-2.696-6.532c-0.161-0.268-0.417-0.43-0.694-0.448
			c-0.335-0.024-0.635,0.148-0.896,0.51l-0.064,0.123c-0.523,1.132-3.229,7.015-4.896,11.511c0,0-0.835,2.213-0.835,2.938
			c0,0,0.453,0.804,0.932,1.53c0.271,0.39,0.698,0.972,1.016,1.893l0.323,1.109c0.126,0.551,0.257,2.106,0.436,4.605
			c0.055,1.147,0.658,7.828,1.727,19.537l3.124,33.842c0.109,1.204,2.409,26.471,2.976,39.561
			c-1.896,1.097-6.771,3.598-12.553,3.025c-1.399-0.134-6.142-0.995-8.368-6.391c-0.151-0.369-0.967-2.728-1.153-5.078
			c-0.087-0.971-0.343-3.311-0.875-4.096l-0.104-0.154l-0.88-0.083c-1.253,0.201-3.413,1.49-6.798,6.477
			c-1.049,1.545-3.946,5.433-4.97,6.473c-1.593,1.624-7.391,6.684-15.154,3.686c-0.048-0.017-4.63-1.827-5.646-6.83
			c-0.006-0.021-0.404-2.452-0.461-5.038c-0.059-2.587-0.276-3.625-0.438-4.183c-0.371-0.708-1.224-0.862-2.548-0.479
			c-3.427,1.001-7.056,2.616-10.564,4.179l-2.06,0.913c-4.95,2.176-8.845,3.856-13.893,5.677
			c-13.536,4.881-22.709,7.522-33.85,9.755c-3.686,0.733-7.129,1.327-10.521,1.812c-17.666,2.526-43.569,4.474-64.453-7.716
			c-9.635-5.62-15.671-14.713-17.465-26.293c-1.212-7.83-2.155-23.728-2.332-26.834c-0.053-2.576-0.425-16.469-2.521-36.82
			c-0.027-0.206-2.802-20.792-7.12-28.716c-0.299-0.375-0.612-0.507-0.941-0.41c-0.424,0.125-0.723,0.651-0.851,1.064l-4.6,11.431
			l-0.053,0.14l-0.183,0.619c0,0-0.836,2.214-0.836,2.938c0,0-0.376,0.364,1.236,3.209c0.713,1.985,2.739,8.417,4.247,21.207
			c0.338,2.827,1.522,13.624,2.509,33.933c0.009,0.218,1.081,22.047,2.218,29.67l0.053,0.365c1.047,7.063,3,20.209,17.639,30.433
			c17.09,11.933,43.459,15.293,74.258,9.463c6.563-1.241,11.861-2.416,16.669-3.694c6.345-1.686,12.613-3.775,17.359-5.407
			c2.998-1.031,6.933-2.417,10.767-4.025c0.002,0,3.237-1.374,3.237-1.374l15.266-6.442l2.12-0.856
			c0.617-0.232,0.914-0.263,0.975-0.255c-0.003,0-0.003,0.002-0.003,0.007c0,0.058,0.132,0.397,0.132,0.397l0.459,3.5
			c-0.002-0.013,0.013,0.153,0.013,0.153c0.303,3.58,1.893,9.985,9.126,12.697c0.074,0.027,7.37,2.629,14.492-1.757
			c1.771-1.093,5.281-3.822,8.837-9.816c1.172-1.981,2.145-3.333,2.902-4.076c0.148,1.917,0.598,5.237,1.968,7.594
			c1.594,2.74,3.979,5.66,9.558,6.534c0.088,0.011,8.559,1.029,15.143-3.645c0.054-0.028,6.063-3.976,8.476-19.717
			c0.106-0.792,0.613-4.921,0.679-8.46c0-0.002-0.002-0.544-0.002-0.544c0-0.026-0.007-0.774-0.038-2.099
			c0.019-0.422,0.032-0.842,0.04-1.256l-0.002-0.542c0-0.098-0.098-11.025-1.331-24.666l-1.106-11.21c0-0.003-1.9-16.728-1.9-16.728
			l-1.272-11.476l-0.155-1.368c1.016,1.242,3.404,4.16,3.404,4.16c0.008,0.006,0.11,0.123,0.11,0.123
			c0.334,0.378,1.12,1.264,1.813,1.033c0.477-0.156,0.599-0.952,0.687-1.752c0.033-0.327,0.059-0.661,0.063-1.033
			c0.102-1.3,0.061-2.849,0.003-4.012C420.774,150.171,420.754,149.79,420.706,149.356"/>
		<path fill="#FFFFFF" d="M141.607,134.412c-0.082-0.089-0.18-0.173-0.295-0.247c-2.428-1.048-5.121-1.7-7.817-2.082
			c-2.478-0.352-4.956-0.479-7.245-0.479c-5.249,0-9.48,0.667-10.301,0.805c-0.715,0.156-1.433,0.312-2.148,0.467
			c-0.355,0.077-0.709,0.155-1.063,0.231c-0.006,0.004-0.39,0.263-0.39,0.263c-0.262,0.373-0.521,0.75-0.782,1.134
			c-2.467,3.642-4.753,7.654-6.027,9.974c-0.547,0.991-0.908,1.675-1.019,1.886c-0.151,0.317-0.147,0.612,0.007,0.813
			c0.294,0.368,0.843,0.266,1.023,0.231c0.008,0,1.125-0.246,1.125-0.246c12.313-2.688,21.771-0.757,22.808-0.529
			c0.269,0.061,0.389,0.123,0.462,0.178c-3.359,2.006-6.507,3.598-8.563,4.582c-7.104,3.399-12.865,6.433-13.96,7.109
			c-0.952,0.586-2.103,1.423-2.173,2.092c-0.005,0.049-0.01,0.102-0.017,0.155c0.054,0.097,0.107,0.192,0.159,0.288
			c0.066,0.063,0.153,0.147,0.514,0.16c0.321,0.015,0.863-0.027,1.801-0.184c0.014,0.005,1.725-0.316,5.042-0.958
			c3.244-0.609,7.282-1.366,10.167-2.112c1.463-0.379,2.629-0.753,3.246-1.104c3.012-1.722,5.605-4.659,6.664-6.122
			c2.28-3.141,6.258-9.714,8.14-13.132c0.198-0.358,0.373-0.682,0.519-0.964c0.287-0.551,0.432-1.035,0.428-1.438
			C141.912,134.891,141.809,134.632,141.607,134.412z"/>
	</g>
</g>
<g>
	<path fill="#FFFFFF" d="M174.969,372.898l-0.336-2.931h-0.144c-1.297,1.826-3.794,3.46-7.109,3.46
		c-4.708,0-7.109-3.314-7.109-6.679c0-5.619,4.996-8.692,13.978-8.646v-0.48c0-1.92-0.528-5.379-5.284-5.379
		c-2.162,0-4.419,0.672-6.052,1.729l-0.961-2.785c1.921-1.25,4.708-2.065,7.638-2.065c7.109,0,8.838,4.853,8.838,9.512v8.693
		c0,2.019,0.096,3.987,0.384,5.571H174.969L174.969,372.898z M174.345,361.035c-4.611-0.098-9.847,0.721-9.847,5.234
		c0,2.737,1.825,4.035,3.987,4.035c3.026,0,4.948-1.923,5.62-3.892c0.144-0.433,0.24-0.912,0.24-1.347V361.035z"/>
	<path fill="#FFFFFF" d="M185.25,338.795h4.227v34.104h-4.227V338.795z"/>
	<path fill="#FFFFFF" d="M196.394,372.898c0.096-1.584,0.192-3.938,0.192-6.004v-28.101h4.179v14.603h0.096
		c1.489-2.595,4.179-4.275,7.926-4.275c5.764,0,9.847,4.805,9.799,11.865c0,8.311-5.236,12.44-10.423,12.44
		c-3.362,0-6.053-1.297-7.782-4.37h-0.144l-0.192,3.842H196.394z M200.765,363.58c0,0.529,0.096,1.057,0.192,1.537
		c0.816,2.93,3.266,4.947,6.34,4.947c4.419,0,7.061-3.603,7.061-8.935c0-4.66-2.402-8.646-6.917-8.646
		c-2.882,0-5.572,1.969-6.437,5.188c-0.096,0.48-0.24,1.057-0.24,1.729L200.765,363.58L200.765,363.58z"/>
	<path fill="#FFFFFF" d="M236.792,372.898l-0.336-2.931h-0.144c-1.297,1.826-3.794,3.46-7.109,3.46
		c-4.708,0-7.109-3.314-7.109-6.679c0-5.619,4.996-8.692,13.978-8.646v-0.48c0-1.92-0.528-5.379-5.284-5.379
		c-2.162,0-4.419,0.672-6.052,1.729l-0.961-2.785c1.921-1.25,4.708-2.065,7.638-2.065c7.109,0,8.838,4.853,8.838,9.512v8.693
		c0,2.019,0.096,3.987,0.384,5.571H236.792L236.792,372.898z M236.167,361.035c-4.611-0.098-9.847,0.721-9.847,5.234
		c0,2.737,1.825,4.035,3.987,4.035c3.026,0,4.948-1.923,5.62-3.892c0.144-0.433,0.24-0.912,0.24-1.347V361.035z"/>
	<path fill="#FFFFFF" d="M248.608,349.65l5.092,13.738c0.528,1.536,1.105,3.36,1.489,4.754h0.096
		c0.433-1.394,0.913-3.17,1.488-4.851l4.611-13.644h4.469l-6.342,16.572c-3.026,7.973-5.092,12.057-7.974,14.555
		c-2.065,1.824-4.131,2.545-5.188,2.736l-1.057-3.553c1.057-0.338,2.45-1.01,3.699-2.066c1.153-0.912,2.594-2.545,3.555-4.707
		c0.192-0.434,0.336-0.77,0.336-1.01s-0.096-0.576-0.288-1.104l-8.599-21.424h4.612V349.65z"/>
	<path fill="#FFFFFF" d="M282.57,372.898l-0.336-2.931h-0.146c-1.297,1.826-3.795,3.46-7.108,3.46c-4.707,0-7.108-3.314-7.108-6.679
		c0-5.619,4.995-8.692,13.978-8.646v-0.48c0-1.92-0.527-5.379-5.283-5.379c-2.161,0-4.42,0.672-6.053,1.729l-0.961-2.785
		c1.922-1.25,4.707-2.065,7.639-2.065c7.108,0,8.838,4.853,8.838,9.512v8.693c0,2.019,0.097,3.987,0.385,5.571H282.57
		L282.57,372.898z M281.945,361.035c-4.611-0.098-9.848,0.721-9.848,5.234c0,2.737,1.825,4.035,3.987,4.035
		c3.024,0,4.947-1.923,5.62-3.892c0.145-0.433,0.238-0.912,0.238-1.347v-4.031H281.945z"/>
	<path fill="#FFFFFF" d="M292.852,355.943c0-2.402-0.049-4.371-0.192-6.293h3.747l0.238,3.842h0.098
		c1.152-2.209,3.843-4.371,7.686-4.371c3.219,0,8.214,1.922,8.214,9.896v13.881h-4.228v-13.4c0-3.748-1.393-6.869-5.38-6.869
		c-2.785,0-4.947,1.969-5.668,4.322c-0.191,0.529-0.288,1.25-0.288,1.969v13.979h-4.227V355.943L292.852,355.943z"/>
	<path fill="#FFFFFF" d="M318.502,370.4c0-1.777,1.2-3.025,2.882-3.025c1.683,0,2.834,1.248,2.834,3.025
		c0,1.729-1.104,3.026-2.882,3.026C319.654,373.428,318.502,372.131,318.502,370.4z"/>
	<path fill="#FFFFFF" d="M342.326,372.898l-0.336-2.931h-0.146c-1.297,1.826-3.795,3.46-7.108,3.46
		c-4.707,0-7.108-3.314-7.108-6.679c0-5.619,4.995-8.692,13.979-8.646v-0.48c0-1.92-0.528-5.379-5.283-5.379
		c-2.162,0-4.42,0.672-6.054,1.729l-0.961-2.785c1.923-1.25,4.707-2.065,7.639-2.065c7.108,0,8.838,4.853,8.838,9.512v8.693
		c0,2.019,0.097,3.987,0.385,5.571H342.326L342.326,372.898z M341.701,361.035c-4.611-0.098-9.848,0.721-9.848,5.234
		c0,2.737,1.825,4.035,3.987,4.035c3.025,0,4.947-1.923,5.62-3.892c0.145-0.433,0.239-0.912,0.239-1.347L341.701,361.035
		L341.701,361.035z"/>
	<path fill="#FFFFFF" d="M354.96,362.043c0.096,5.717,3.747,8.07,7.974,8.07c3.026,0,4.853-0.529,6.438-1.201l0.721,3.025
		c-1.489,0.674-4.035,1.44-7.732,1.44c-7.157,0-11.434-4.707-11.434-11.721c0-7.013,4.131-12.537,10.904-12.537
		c7.589,0,9.605,6.678,9.605,10.953c0,0.862-0.096,1.536-0.144,1.969L354.96,362.043L354.96,362.043z M367.353,359.018
		c0.049-2.69-1.104-6.869-5.859-6.869c-4.274,0-6.148,3.938-6.484,6.869H367.353z"/>
</g>
<rect x="61.372" y="314.657" fill="#FFFFFF" width="402.212" height="2.552"/>
</svg>
