<svg width="53" height="50" viewBox="0 0 53 50" fill="none" xmlns="http://www.w3.org/2000/svg">
<path d="M5.87668 6.37098V6.86528L6.48083 7.57927C8.6228 9.94093 11.0943 11.9181 13.7855 13.5658C14.4446 13.9503 15.1036 14.3347 15.8176 14.6642V6.42591C15.8176 3.13057 18.399 0 21.6943 0H0C3.29534 0 5.87668 3.13057 5.87668 6.37098Z" fill="black"/>
<path d="M47.1233 43.1687V42.5646C46.7388 42.1252 47.1233 42.5646 46.5191 41.8506C44.4321 39.4889 41.9606 37.4568 39.2145 35.8641C38.5554 35.4796 37.8963 35.0952 37.1823 34.7656V43.1138C37.1823 46.3542 34.5461 49.4848 31.3057 49.4848H53C49.7595 49.5397 47.1233 46.4641 47.1233 43.1687Z" fill="black"/>
<path d="M20.7606 27.7907C23.8912 28.0653 27.0767 28.3948 30.2073 28.6694C32.5689 28.8891 34.9306 29.2187 37.2373 29.658C38.2808 29.8777 39.3244 30.1523 40.3679 30.4819C42.7295 31.2508 45.0363 32.3492 47.0684 33.7223C47.1233 33.7223 47.1233 33.7772 47.1233 33.7772V6.31606C47.1233 3.13057 49.7596 0 53 0H31.3606C34.601 0 37.2373 3.13057 37.2373 6.37098V19.8269C37.2373 20.4311 37.2373 21.9689 37.2373 22.0788C35.5896 21.9689 33.942 21.8591 32.2943 21.6943C29.1088 21.4197 25.9782 21.0902 22.7927 20.8155C20.4311 20.6508 18.1244 20.3212 15.7627 19.8269C14.7192 19.6073 13.6756 19.3326 12.6321 19.0031C10.2705 18.2342 8.01865 17.1357 5.93161 15.7627C5.87668 15.7627 5.87668 15.7078 5.87668 15.7078V43.2238C5.87668 46.4642 3.29534 49.5399 0 49.5399H21.6943C18.4539 49.5399 15.8176 46.4093 15.8176 43.1689V27.4062C17.4653 27.571 19.113 27.6808 20.7606 27.7907Z" fill="black"/>
</svg>
