<?xml version="1.0" encoding="utf-8"?>
<!-- Generator: Adobe Illustrator 24.0.2, SVG Export Plug-In . SVG Version: 6.00 Build 0)  -->
<svg version="1.1" id="Layer_1" xmlns="http://www.w3.org/2000/svg" xmlns:xlink="http://www.w3.org/1999/xlink" x="0px" y="0px"
	 viewBox="0 0 360.8 147.2" style="enable-background:new 0 0 360.8 147.2;" xml:space="preserve">
<style type="text/css">
	.st0{fill:#030303;}
	.st1{fill:#020202;}
	.st2{fill:#010101;}
	.st3{fill:#050505;}
</style>
<title>HAXIA LOGO</title>
<path class="st0" d="M167.6,86c-3.1,0-5.6-2.5-5.7-5.7V49.9c0-18-12.8-26.2-26.6-23.7c3.3,0,10.3,3.5,10.3,10.7v40.5
	c0,7.6,6.2,13.8,13.9,13.8c4.7,0,9.1-2.4,11.7-6.4C170.2,85.5,169,86,167.6,86L167.6,86z M129.5,44.3c-4.1-0.5-7.4-4.4-7.4-9
	c0-5,3.7-9.1,8.4-9.1c-10.3,0-22.4,4-22.4,14.3C108.1,50.9,123.3,52.8,129.5,44.3L129.5,44.3z M128.3,84.3
	c-3.1-4.9-3.2-11.6-1.8-17.1c1.4-5.5,4.5-10.4,8.9-14.1c-12.6,0.9-28.2,9.8-28.2,23.1c0,17,21.3,16.6,29.3,13
	C133.1,89,130.1,87.1,128.3,84.3L128.3,84.3z"/>
<path class="st0" d="M237.8,95.4l-26.4-56.7c-2.8-5.9-0.6-11.6,5.3-11.6H179c5.8,0,13.3,5.7,16.1,11.6L220,92
	c15.6,33.9,25.7,55.1,57.2,55.1C262.6,147.2,247.2,115.5,237.8,95.4L237.8,95.4z M224.4,41.4c3.5-7.3,12.5-14.3,19.8-14.3h-26.3
	C225.2,27.1,227.9,34,224.4,41.4L224.4,41.4z M178.7,90.3h36.4c-10.1,0-13.6-9.6-9-19.8C201.5,80.6,188.8,90.2,178.7,90.3
	L178.7,90.3z M253.5,103.4c25-3.8,41.7,14.5,41.7,27.5s-12.4,16.3-16.3,16.3c10.3,0,29.7-6.6,29.7-23.4
	C308.6,106.8,286.6,94.9,253.5,103.4L253.5,103.4z M98.9,102.8c-2,15.9,7.3,35.7,35.3,35.7c23.8,0,75.8-21.3,93.8-25.9
	c-35.9,8.3-71.5,14.1-89.6,14.1C116.4,126.8,98.7,115.4,98.9,102.8z M217.9,114.6c0.6-0.1,1.1-0.3,1.7-0.4L217.9,114.6z
	 M217.9,114.6c-0.1,0.1-0.4,0.1-0.6,0.3C217.5,114.7,217.8,114.7,217.9,114.6L217.9,114.6z"/>
<path class="st1" d="M267.8,22.6c6.2,0,11.3-5.1,11.2-11.3C279,5,274,0,267.7,0c-6.2,0-11.2,5-11.2,11.2
	C256.5,17.5,261.6,22.6,267.8,22.6z M276.3,78.6V27.1c-11.6,5.9-18.8,9-27.9,9h0.9c5.9,0,10.7,5.7,10.7,11.6v30.9
	c0,5.9-4.8,11.6-10.7,11.6H287C281.1,90.2,276.3,84.5,276.3,78.6L276.3,78.6z"/>
<path class="st2" d="M357.2,86c-3.1,0-5.6-2.5-5.7-5.7V49.9c0-18-12.8-26.2-26.6-23.7c3.3,0,10.3,3.5,10.3,10.7v40.5
	c0,7.6,6.2,13.8,13.9,13.8c4.7,0,9.1-2.4,11.7-6.4C359.8,85.5,358.5,86,357.2,86L357.2,86z M319,44.3c-4.1-0.5-7.4-4.4-7.4-9
	c0-5,3.7-9.1,8.4-9.1c-10.3,0-22.4,4-22.4,14.3C297.7,50.9,312.9,52.8,319,44.3L319,44.3z M317.9,84.3c-3.1-4.9-3.2-11.6-1.8-17.1
	c1.4-5.5,4.5-10.4,8.9-14c-12.6,0.9-28.2,9.8-28.2,23.1c0,17,21.3,16.6,29.3,13C322.7,89,319.6,87.2,317.9,84.3L317.9,84.3z"/>
<g>
	<path class="st3" d="M10.7,11.6v0.9l1.1,1.3c3.9,4.3,8.4,7.9,13.3,10.9c1.2,0.7,2.4,1.4,3.7,2v-15C28.8,5.7,33.5,0,39.5,0H0
		C6,0,10.7,5.7,10.7,11.6z"/>
	<path class="st3" d="M85.8,78.6v-1.1c-0.7-0.8,0,0-1.1-1.3c-3.8-4.3-8.3-8-13.3-10.9c-1.2-0.7-2.4-1.4-3.7-2v15.2
		c0,5.9-4.8,11.6-10.7,11.6h39.5C90.6,90.2,85.8,84.6,85.8,78.6z"/>
	<path class="st3" d="M37.8,50.6c5.7,0.5,11.5,1.1,17.2,1.6c4.3,0.4,8.6,1,12.8,1.8v0c1.9,0.4,3.8,0.9,5.7,1.5
		c4.3,1.4,8.5,3.4,12.2,5.9c0.1,0,0.1,0.1,0.1,0.1v-50C85.8,5.7,90.6,0,96.5,0H57.1C63,0,67.8,5.7,67.8,11.6v24.5c0,1.1,0,3.9,0,4.1
		c-3-0.2-6-0.4-9-0.7C53,39,47.3,38.4,41.5,37.9c-4.3-0.3-8.5-0.9-12.8-1.8v0c-1.9-0.4-3.8-0.9-5.7-1.5c-4.3-1.4-8.4-3.4-12.2-5.9
		c-0.1,0-0.1-0.1-0.1-0.1v50.1C10.7,84.6,6,90.2,0,90.2h39.5c-5.9,0-10.7-5.7-10.7-11.6V49.9C31.8,50.2,34.8,50.4,37.8,50.6z"/>
</g>
</svg>
