<svg width="107" height="47" viewBox="0 0 107 47" fill="none" xmlns="http://www.w3.org/2000/svg">
<path d="M33.4688 36.4714C33.179 36.5814 32.8912 36.6265 32.6056 36.6066C32.3328 36.5926 32.1204 36.47 31.9685 36.2389C31.9081 36.0799 31.89 35.9478 31.9142 35.8423C31.9383 35.7369 31.9878 35.67 32.0626 35.6416C32.2308 35.5777 32.4196 35.6664 32.629 35.9078C32.7383 36.0267 32.9519 36.0258 33.2698 35.9051C33.4287 35.8448 33.605 35.7457 33.7987 35.608C33.996 35.4796 34.192 35.3196 34.3866 35.128C34.5929 34.9106 34.8241 34.6463 35.0803 34.3351C35.3423 34.0109 35.5778 33.6594 35.7869 33.2805C36.0018 32.8887 36.1464 32.4808 36.2207 32.0568C36.2915 31.6234 36.2452 31.1917 36.0819 30.7617C35.9435 30.3971 35.7422 30.1206 35.478 29.932C35.2232 29.74 34.9288 29.5844 34.5948 29.4652C34.2665 29.3332 33.9264 29.1842 33.5746 29.0183C33.2228 28.8524 32.8882 28.6051 32.5708 28.2763C32.4979 28.197 32.4344 28.1142 32.3802 28.0278C32.326 27.9414 32.2829 27.8562 32.2509 27.772C32.148 27.5009 32.1222 27.2219 32.1737 26.9349C32.2345 26.6444 32.3329 26.3824 32.4689 26.1489C32.6548 25.8216 32.9018 25.5566 33.21 25.354C33.5181 25.1514 33.8451 24.9845 34.191 24.8531C34.2658 24.8247 34.3406 24.7963 34.4154 24.7679C34.4902 24.7395 34.5621 24.7175 34.6311 24.702C34.8309 24.6368 34.9942 24.6443 35.121 24.7246C35.2571 24.8013 35.3558 24.8921 35.4171 24.9972C35.4842 25.0894 35.5195 25.1402 35.523 25.1495C35.5853 25.2008 35.6271 25.2544 35.6484 25.3105C35.7087 25.4694 35.6407 25.5862 35.4444 25.6607C35.3322 25.7033 35.2105 25.7068 35.0793 25.671L34.4834 25.4962C34.4354 25.4824 34.3833 25.4861 34.3272 25.5074C34.2676 25.5193 34.2003 25.5395 34.1255 25.5679C33.9479 25.6354 33.7547 25.7462 33.5458 25.9004C33.3334 26.0452 33.186 26.1922 33.1035 26.3411C33.0246 26.4995 32.9825 26.6705 32.9775 26.8543C32.9782 27.0252 33.0087 27.1901 33.0691 27.349C33.1188 27.4799 33.1901 27.5972 33.283 27.701C33.503 27.9705 33.776 28.1823 34.102 28.3366C34.4374 28.4874 34.7838 28.6393 35.1415 28.7923C35.5049 28.9324 35.8386 29.1212 36.1428 29.3587C36.4434 29.5868 36.6718 29.9066 36.828 30.3179C36.9842 30.7293 37.0427 31.151 37.0035 31.583C36.9644 32.015 36.8585 32.4404 36.6858 32.8589C36.519 33.2646 36.3181 33.6511 36.0832 34.0184C35.8448 34.3764 35.6079 34.6963 35.3727 34.9782C35.1374 35.2601 34.9329 35.4821 34.7592 35.6444C34.6042 35.7995 34.4111 35.953 34.18 36.105C33.9489 36.2569 33.7118 36.3791 33.4688 36.4714ZM40.8031 32.8677C40.4385 33.0062 40.1074 33.0357 39.8098 32.9561C39.5122 32.8766 39.2547 32.7337 39.0373 32.5275C38.8257 32.3083 38.6684 32.0632 38.5655 31.7921C38.4483 31.4836 38.4048 31.1578 38.435 30.8147C38.4616 30.4623 38.5281 30.1162 38.6343 29.7763C38.7406 29.4365 38.8528 29.1264 38.971 28.8462C39.2713 28.1439 39.5902 27.5895 39.928 27.1831C40.275 26.7732 40.5795 26.5185 40.8412 26.4191C41.103 26.3197 41.3153 26.2872 41.4781 26.3217C41.6409 26.3561 41.7688 26.4252 41.8617 26.529C41.9639 26.6292 42.0393 26.729 42.0877 26.8283C42.1703 26.9894 42.2001 27.1385 42.1773 27.2756C42.1509 27.4033 42.0816 27.4884 41.9695 27.531C41.8666 27.5701 41.746 27.5624 41.6077 27.5079C41.4694 27.4535 41.3415 27.3844 41.2241 27.3006C41.0023 27.449 40.8133 27.585 40.657 27.7085C40.4971 27.8227 40.3526 27.9632 40.2233 28.1299C40.0999 28.2838 39.9662 28.495 39.8222 28.7636C39.5703 29.2551 39.3768 29.7457 39.2419 30.2355C39.1164 30.7218 39.1371 31.1846 39.3039 31.624C39.5311 32.2223 39.9532 32.4043 40.5702 32.17C40.9722 32.0173 41.3492 31.7565 41.7011 31.3875C42.0495 31.0092 42.3187 30.5914 42.5088 30.1341C42.5551 30.0309 42.6251 29.9616 42.7186 29.9261C42.7933 29.8977 42.863 29.898 42.9275 29.927C43.0013 29.9524 43.0524 30.0025 43.0809 30.0773C43.1128 30.1615 43.1038 30.2504 43.0539 30.3443C42.7685 30.9447 42.4529 31.4657 42.1071 31.9072C41.7707 32.3452 41.336 32.6654 40.8031 32.8677ZM45.0351 30.5867C44.951 30.6186 44.8591 30.6161 44.7595 30.5791C44.6656 30.5291 44.5867 30.42 44.5228 30.2517C44.5086 30.2143 44.4944 30.1769 44.4802 30.1396C44.4718 30.0893 44.4634 30.039 44.455 29.9887C44.383 29.5454 44.3254 29.0698 44.2823 28.5621C44.2486 28.0507 44.2255 27.5674 44.213 27.1122C44.1971 26.6476 44.1774 26.286 44.1541 26.0275C44.144 25.8601 44.1687 25.7278 44.2279 25.6304C44.2966 25.5294 44.3776 25.4612 44.4711 25.4257C44.574 25.3867 44.6705 25.3874 44.7608 25.428C44.8569 25.4557 44.9245 25.521 44.9635 25.6238C44.9955 25.7079 45.0029 25.8121 44.9859 25.9362C44.9689 26.0604 44.9609 26.2506 44.9619 26.5069C44.9724 26.7597 44.9828 27.0124 44.9932 27.2652C45.0036 27.518 45.0021 27.7111 44.9886 27.8446C45.1951 27.4025 45.3901 27.0289 45.5738 26.7238C45.7575 26.4187 46.027 26.0864 46.3825 25.7267C46.534 25.5622 46.7593 25.4232 47.0584 25.3096C47.2735 25.2279 47.5044 25.1883 47.7514 25.1908C47.9984 25.1933 48.2328 25.2754 48.4547 25.4372C48.6766 25.599 48.8621 25.8762 49.0112 26.2688C49.068 26.4184 49.0123 26.5251 48.844 26.589C48.7785 26.6139 48.6978 26.6125 48.6017 26.5848C48.5149 26.5535 48.4234 26.4813 48.3269 26.3682C48.1798 26.1781 48.0131 26.0488 47.8267 25.9806C47.6461 25.8994 47.4483 25.8996 47.2333 25.9813C47.1024 26.031 46.9635 26.1158 46.8165 26.2358C46.6357 26.3794 46.4265 26.6032 46.189 26.9073C45.948 27.2021 45.7153 27.5472 45.4911 27.9426C45.2762 28.3344 45.0989 28.7547 44.9591 29.2036C44.984 29.269 44.9984 29.3491 45.0023 29.4439C45.0155 29.5351 45.0417 29.6322 45.0807 29.735C45.0878 29.7537 45.1149 29.7969 45.162 29.8646C45.2091 29.9323 45.2469 30.0035 45.2753 30.0783C45.3143 30.1811 45.306 30.2859 45.2503 30.3927C45.2003 30.4865 45.1286 30.5512 45.0351 30.5867ZM52.0787 27.8637C52.0226 27.885 51.9665 27.9063 51.9104 27.9276C51.8508 27.9395 51.7911 27.9515 51.7315 27.9634C51.3304 28.0622 50.962 27.9936 50.6263 27.7574C50.2964 27.5083 50.0551 27.1827 49.9024 26.7807C49.803 26.519 49.7497 26.2237 49.7425 25.8948C49.7411 25.5531 49.8111 25.2163 49.9525 24.8844C50.0903 24.5433 50.2851 24.2393 50.5368 23.9726C50.7885 23.7059 51.0733 23.5121 51.3911 23.3914C51.5501 23.3311 51.7067 23.293 51.8612 23.2771C52.0249 23.2577 52.1281 23.3041 52.1707 23.4163C52.1991 23.4911 52.1855 23.5818 52.1297 23.6886C52.0798 23.7824 51.9841 23.8401 51.8425 23.8618C51.8016 23.8667 51.739 23.8851 51.6549 23.917C51.4305 24.0022 51.2246 24.15 51.037 24.3603C50.8495 24.5705 50.7012 24.814 50.5924 25.0907C50.48 25.358 50.4278 25.6292 50.436 25.9042C50.4416 26.116 50.4799 26.3154 50.5509 26.5024C50.6609 26.7922 50.8204 27.0151 51.0294 27.1711C51.2478 27.3235 51.4457 27.3659 51.6234 27.2985C51.6737 27.2901 51.7175 27.2788 51.7549 27.2646C51.8016 27.2468 51.8437 27.2309 51.8811 27.2167C52.2924 27.0604 52.6425 26.7992 52.9312 26.4328C53.2257 26.0535 53.4244 25.6893 53.5271 25.34C53.5696 25.1421 53.5864 24.9752 53.5777 24.8395C53.5654 24.6944 53.5432 24.5798 53.5113 24.4957C53.4403 24.3087 53.3362 24.2038 53.1992 24.1809C53.0622 24.1581 52.9487 24.1691 52.8588 24.214C52.7163 24.2895 52.5803 24.3679 52.4507 24.4492C52.3175 24.5211 52.2084 24.6 52.1234 24.6858C52.0744 24.7258 52.0358 24.7511 52.0078 24.7618C51.9143 24.7973 51.8207 24.79 51.7268 24.7401C51.6423 24.6866 51.5841 24.6178 51.5521 24.5337C51.4953 24.3841 51.5282 24.2593 51.6507 24.1593C51.7638 24.0629 51.9021 23.9622 52.0655 23.8574C52.2289 23.7525 52.4005 23.6552 52.5804 23.5655C52.6143 23.542 52.6452 23.5249 52.6733 23.5142C52.7013 23.5036 52.734 23.4912 52.7714 23.477C53.108 23.3492 53.4088 23.3526 53.6739 23.4872C53.9354 23.6126 54.1212 23.8201 54.2312 24.1099C54.2987 24.2875 54.3294 24.4952 54.3234 24.7328C54.3173 24.9704 54.2563 25.2182 54.1404 25.4762C54.0537 25.7551 53.9204 26.0518 53.7403 26.3662C53.5602 26.6806 53.3349 26.9748 53.0645 27.2486C52.7906 27.5131 52.462 27.7181 52.0787 27.8637ZM56.9602 26.78C56.8106 26.8368 56.638 26.8329 56.4422 26.7681C56.2594 26.7092 56.1276 26.5453 56.0469 26.2764C55.9827 26.0227 55.9256 25.6754 55.8758 25.2343C55.8318 24.7804 55.7998 24.2737 55.7799 23.7143C55.7694 23.1514 55.7629 22.5709 55.7604 21.9728C55.7637 21.3619 55.7741 20.7696 55.7916 20.196C55.8055 19.6131 55.8297 19.0851 55.864 18.6121C55.8947 18.1298 55.9276 17.7375 55.9626 17.4354C55.99 17.2539 56.0784 17.1347 56.228 17.0779C56.3122 17.046 56.3994 17.0503 56.4897 17.0909C56.5764 17.1221 56.6411 17.1938 56.6837 17.306C56.6979 17.3434 56.714 17.4282 56.7321 17.5604C56.7596 17.689 56.7748 17.8276 56.7778 17.9763C56.7901 18.1214 56.7888 18.2448 56.774 18.3467C56.7374 18.5318 56.6838 18.7287 56.6132 18.9373C56.5427 19.1459 56.4969 19.3773 56.4757 19.6313C56.4359 20.2027 56.4068 20.8021 56.3884 21.4295C56.3664 22.0475 56.3595 22.6492 56.3678 23.2343C56.3761 23.8195 56.3976 24.3409 56.4323 24.7983C56.4763 25.2523 56.5351 25.6043 56.6087 25.8545C56.6336 25.9199 56.6882 25.9794 56.7727 26.0329C56.8666 26.0828 56.9557 26.1345 57.0402 26.188C57.1341 26.238 57.1952 26.3003 57.2236 26.3751C57.252 26.4499 57.2319 26.5378 57.1633 26.6387C57.1307 26.6939 57.063 26.741 56.9602 26.78ZM59.9318 25.6515C59.7823 25.7083 59.6096 25.7043 59.4139 25.6396C59.231 25.5807 59.0993 25.4168 59.0186 25.1479C58.9543 24.8942 58.8973 24.5468 58.8474 24.1058C58.8034 23.6518 58.7714 23.1452 58.7516 22.5858C58.741 22.0229 58.7345 21.4424 58.732 20.8443C58.7353 20.2333 58.7457 19.6411 58.7632 19.0675C58.7772 18.4845 58.8013 17.9566 58.8356 17.4836C58.8664 17.0013 58.8993 16.609 58.9343 16.3069C58.9616 16.1254 59.0501 16.0062 59.1997 15.9494C59.2838 15.9175 59.371 15.9218 59.4613 15.9624C59.548 15.9936 59.6127 16.0653 59.6553 16.1775C59.6695 16.2149 59.6857 16.2997 59.7038 16.4319C59.7312 16.5605 59.7464 16.6991 59.7494 16.8478C59.7617 16.9928 59.7605 17.1163 59.7457 17.2182C59.709 17.4033 59.6554 17.6001 59.5849 17.8088C59.5143 18.0174 59.4685 18.2488 59.4473 18.5028C59.4076 19.0742 59.3785 19.6735 59.36 20.301C59.338 20.919 59.3311 21.5207 59.3394 22.1058C59.3477 22.691 59.3692 23.2123 59.4039 23.6698C59.4479 24.1238 59.5067 24.4758 59.5804 24.726C59.6052 24.7914 59.6599 24.8509 59.7444 24.9044C59.8382 24.9543 59.9274 25.006 60.0119 25.0595C60.1057 25.1094 60.1668 25.1718 60.1952 25.2466C60.2236 25.3214 60.2035 25.4093 60.1349 25.5102C60.1024 25.5653 60.0347 25.6124 59.9318 25.6515ZM67.1039 24.1793C67.0104 24.2148 66.9314 24.2181 66.867 24.1891C66.8025 24.1601 66.7578 24.1129 66.7329 24.0474C66.6761 23.8979 66.7341 23.7689 66.9069 23.6605C67.1286 23.5121 67.4021 23.2745 67.7273 22.9478C68.056 22.6304 68.3997 22.2538 68.7584 21.8181C69.1171 21.3824 69.4558 20.9222 69.7744 20.4375C70.1025 19.9492 70.3691 19.4682 70.5743 18.9945C70.7888 18.5173 70.9052 18.0773 70.9234 17.6746C70.951 17.2683 70.9098 16.8079 70.8 16.2934C70.696 15.766 70.5641 15.2919 70.4043 14.8712C70.3156 14.6375 70.2217 14.4325 70.1226 14.2562C70.0236 14.0799 69.9282 13.9556 69.8366 13.8834C69.3974 13.5154 68.9388 13.2938 68.461 13.2185C67.9889 13.1304 67.4794 13.1688 66.9323 13.3337C66.882 13.3421 66.8288 13.357 66.7727 13.3783C66.726 13.396 66.6792 13.4138 66.6325 13.4315C66.4175 13.5132 66.2271 13.6176 66.0615 13.7447C65.8958 13.8718 65.7034 14.0411 65.4842 14.2527C65.3956 14.3292 65.3199 14.4114 65.257 14.4994C65.1906 14.5781 65.1062 14.6797 65.0037 14.8042C64.9583 14.8536 64.9075 14.8889 64.8514 14.9102C64.7579 14.9457 64.6596 14.9403 64.5564 14.8939C64.4626 14.8439 64.3997 14.7769 64.3677 14.6928C64.318 14.5619 64.3462 14.4389 64.4522 14.3237C64.5431 14.225 64.6246 14.1299 64.6968 14.0383C64.7654 13.9373 64.8621 13.8258 64.9868 13.7035C65.255 13.4519 65.5169 13.2402 65.7725 13.0682C66.0339 12.8834 66.3569 12.734 66.7415 12.62C67.3985 12.4347 68.0578 12.3822 68.7194 12.4625C69.3904 12.5393 69.9662 12.802 70.4467 13.2506C70.5783 13.3718 70.7054 13.5375 70.828 13.7476C70.9471 13.9484 71.0563 14.1797 71.1557 14.4415C71.3403 14.9276 71.4766 15.4695 71.5645 16.0673C71.6582 16.6521 71.6904 17.2015 71.6609 17.7154C71.6279 18.22 71.4925 18.7367 71.2548 19.2656C71.0264 19.7909 70.736 20.3076 70.3835 20.8159C70.0367 21.3113 69.6636 21.7792 69.264 22.2198C68.8737 22.6568 68.4937 23.0365 68.124 23.3587C67.7673 23.6867 67.4628 23.9414 67.2108 24.1227C67.1863 24.1427 67.1507 24.1616 67.1039 24.1793ZM67.1653 22.9045C67.0157 22.9613 66.8431 22.9573 66.6474 22.8926C66.461 22.8243 66.3321 22.654 66.2607 22.3816C66.1752 22.0718 66.108 21.6694 66.0591 21.1745C66.016 20.6667 65.9868 20.1109 65.9714 19.507C65.9653 18.8996 65.9686 18.2886 65.9813 17.6741C66.0033 17.056 66.0301 16.4789 66.0618 15.9427C66.09 15.3972 66.1267 14.9447 66.1721 14.5852C66.1994 14.4036 66.2878 14.2845 66.4374 14.2277C66.5309 14.1922 66.6246 14.1994 66.7184 14.2493C66.8216 14.2957 66.8887 14.3879 66.9197 14.5259L66.9284 14.5065C66.9546 14.6036 66.9769 14.7609 66.9953 14.9785C67.0231 15.1926 67.0192 15.3652 66.9834 15.4965C66.9468 15.6815 66.8932 15.8784 66.8226 16.087C66.7521 16.2957 66.7063 16.527 66.6851 16.7811C66.5927 17.9179 66.556 18.9481 66.5751 19.8714C66.5999 20.7819 66.6842 21.4827 66.8279 21.9736C66.8527 22.0391 66.9074 22.0985 66.9919 22.152C67.0857 22.202 67.1749 22.2537 67.2594 22.3072C67.3532 22.3571 67.4144 22.4195 67.4428 22.4943C67.4712 22.569 67.451 22.6569 67.3824 22.7579C67.3499 22.813 67.2775 22.8619 67.1653 22.9045ZM75.2629 19.0591C75.2069 19.0804 75.1508 19.1017 75.0947 19.123C75.035 19.135 74.9754 19.1469 74.9157 19.1589C74.5147 19.2577 74.1463 19.189 73.8106 18.9528C73.4807 18.7037 73.2394 18.3782 73.0867 17.9762C72.9873 17.7144 72.934 17.4191 72.9268 17.0903C72.9253 16.7485 72.9953 16.4117 73.1367 16.0799C73.2746 15.7387 73.4694 15.4348 73.7211 15.168C73.9728 14.9013 74.2575 14.7076 74.5754 14.5869C74.7343 14.5265 74.891 14.4884 75.0454 14.4726C75.2092 14.4531 75.3124 14.4995 75.355 14.6117C75.3834 14.6865 75.3697 14.7773 75.314 14.884C75.2641 14.9779 75.1683 15.0356 75.0268 15.0573C74.9859 15.0621 74.9233 15.0805 74.8392 15.1125C74.6148 15.1977 74.4089 15.3454 74.2213 15.5557C74.0337 15.766 73.8855 16.0095 73.7766 16.2862C73.6642 16.5535 73.6121 16.8246 73.6203 17.0997C73.6258 17.3115 73.6641 17.5109 73.7351 17.6979C73.8452 17.9877 74.0047 18.2105 74.2137 18.3665C74.432 18.5189 74.63 18.5614 74.8076 18.4939C74.8579 18.4855 74.9018 18.4742 74.9392 18.46C74.9859 18.4423 75.028 18.4263 75.0654 18.4121C75.4767 18.2559 75.8267 17.9946 76.1155 17.6282C76.41 17.249 76.6086 16.8847 76.7114 16.5355C76.7538 16.3375 76.7707 16.1707 76.7619 16.0349C76.7496 15.8899 76.7275 15.7752 76.6955 15.6911C76.6245 15.5041 76.5205 15.3992 76.3835 15.3764C76.2464 15.3536 76.133 15.3646 76.043 15.4094C75.9005 15.4849 75.7645 15.5633 75.6349 15.6446C75.5018 15.7166 75.3927 15.7954 75.3076 15.8812C75.2586 15.9212 75.2201 15.9466 75.1921 15.9572C75.0986 15.9927 75.0049 15.9855 74.9111 15.9356C74.8266 15.8821 74.7684 15.8133 74.7364 15.7291C74.6796 15.5795 74.7124 15.4548 74.8349 15.3548C74.9481 15.2583 75.0863 15.1577 75.2497 15.0528C75.4132 14.948 75.5848 14.8507 75.7647 14.761C75.7985 14.7374 75.8295 14.7203 75.8575 14.7097C75.8856 14.699 75.9183 14.6866 75.9557 14.6724C76.2922 14.5446 76.593 14.548 76.8581 14.6827C77.1196 14.808 77.3054 15.0156 77.4155 15.3054C77.483 15.483 77.5137 15.6906 77.5076 15.9282C77.5016 16.1659 77.4406 16.4137 77.3246 16.6716C77.238 16.9506 77.1047 17.2472 76.9245 17.5617C76.7444 17.8761 76.5192 18.1702 76.2488 18.444C75.9749 18.7085 75.6462 18.9136 75.2629 19.0591ZM84.6855 15.2722C84.3138 15.3919 83.9839 15.4103 83.6956 15.3272C83.4073 15.2441 83.1434 15.0984 82.9037 14.8899C82.6699 14.6684 82.443 14.423 82.223 14.1536C82.0123 13.8806 81.7959 13.6205 81.5737 13.3733C81.5063 13.5058 81.4158 13.6899 81.3021 13.9257C81.1942 14.1485 81.0793 14.3953 80.9576 14.6662C80.8358 14.9371 80.7198 15.1951 80.6097 15.4402C80.4995 15.6852 80.4114 15.8898 80.3454 16.054C80.2423 16.3177 80.1034 16.5577 79.9288 16.7738C79.7635 16.9863 79.5967 17.1245 79.4284 17.1884C79.2975 17.2381 79.1676 17.234 79.0386 17.176C78.9189 17.1145 78.8183 16.9762 78.7366 16.7612C78.7189 16.7144 78.7011 16.6677 78.6834 16.6209C78.675 16.5707 78.6648 16.5157 78.6529 16.456C78.5417 15.9099 78.4614 15.4591 78.412 15.1035C78.3625 14.7479 78.3383 14.4308 78.3395 14.1522C78.3465 13.8607 78.3657 13.5593 78.3972 13.2478C78.4245 13.0663 78.513 12.9471 78.6626 12.8903C78.7467 12.8584 78.8339 12.8627 78.9242 12.9033C79.011 12.9345 79.0774 13.0109 79.1236 13.1324C79.1484 13.1979 79.1683 13.3347 79.1832 13.543C79.1981 13.7513 79.1913 13.9304 79.1626 14.0803C79.1259 14.2654 79.1067 14.5668 79.1049 14.9847C79.1125 15.399 79.1904 15.8294 79.3386 16.2759C79.5609 15.9882 79.7695 15.6362 79.9644 15.2199C80.1558 14.7942 80.3536 14.3715 80.5578 13.9516C80.7714 13.5282 81.0105 13.186 81.2751 12.9251C81.3415 12.8464 81.4114 12.777 81.4849 12.717C81.5548 12.6477 81.6225 12.6006 81.688 12.5757C81.7721 12.5438 81.85 12.5516 81.9216 12.5993C82.0025 12.6435 82.0778 12.7432 82.1475 12.8986C82.2243 13.0727 82.3405 13.2799 82.496 13.5204C82.6573 13.748 82.842 13.9666 83.05 14.1765C83.2638 14.3734 83.4868 14.524 83.719 14.6284C83.9605 14.7292 84.2028 14.7334 84.4459 14.6411C84.6329 14.5701 84.7903 14.4355 84.9182 14.2371C85.0462 14.0388 85.143 13.8148 85.2086 13.5653C85.2707 13.3063 85.2908 13.0634 85.2688 12.8364C85.2516 12.6504 85.2246 12.4949 85.1878 12.3698C85.1604 12.2411 85.1325 12.1394 85.1041 12.0646C85.0437 11.9057 84.9824 11.8006 84.9202 11.7494C84.8673 11.6946 84.8248 11.6251 84.7929 11.541C84.7396 11.4008 84.7409 11.2773 84.7966 11.1705C84.8523 11.0638 84.9269 10.9927 85.0204 10.9572C85.1513 10.9075 85.2977 10.9268 85.4596 11.015C85.6273 11.0904 85.7644 11.2683 85.8709 11.5488C85.9596 11.7825 86.0123 12.062 86.0289 12.3873C86.0493 12.8074 86.0002 13.2272 85.8814 13.6467C85.759 14.0569 85.5931 14.4087 85.3837 14.7022C85.1742 14.9957 84.9415 15.1857 84.6855 15.2722ZM92.9066 12.7919C92.7664 12.8452 92.6053 12.8154 92.4234 12.7026C92.238 12.5805 92.0973 12.3933 92.0015 12.1408C91.9411 11.9819 91.8788 11.7756 91.8146 11.5219C91.7503 11.2682 91.7001 11.0091 91.6638 10.7448C91.6241 10.4711 91.6079 10.2312 91.6152 10.0252C91.637 9.63181 91.6106 9.33698 91.536 9.14066C91.4437 8.89759 91.2854 8.81866 91.061 8.90387C91.033 8.91452 91.0002 8.92695 90.9629 8.94115C90.9255 8.95535 90.8916 8.9789 90.8613 9.0118C90.6956 9.13889 90.4912 9.36096 90.2479 9.67798C90.001 9.98566 89.7479 10.3332 89.4885 10.7205C89.2385 11.1043 89.0071 11.4809 88.7945 11.8505C88.5818 12.2201 88.4269 12.5303 88.3296 12.7812C88.1953 13.1317 88.1174 13.3913 88.0959 13.5599C88.0743 13.7285 88.0635 13.8128 88.0635 13.8128C88.0278 13.9441 87.9632 14.0274 87.8697 14.0629C87.7856 14.0949 87.6995 14.0794 87.6114 14.0166C87.5199 13.9444 87.4597 13.8282 87.4309 13.668C87.2707 12.8517 87.1624 12.1441 87.1061 11.545C87.0591 10.9425 87.0638 10.4058 87.1204 9.93506C87.1477 9.75353 87.2362 9.63436 87.3858 9.57756C87.4699 9.54561 87.5571 9.54992 87.6474 9.59051C87.7342 9.62175 87.8006 9.69814 87.8468 9.81967C87.8716 9.88511 87.8915 10.022 87.9064 10.2302C87.9307 10.435 87.9285 10.6123 87.8998 10.7622C87.8632 10.9473 87.8494 11.1504 87.8585 11.3716C87.8734 11.5799 87.9027 11.8683 87.9464 12.2368C87.9889 12.0388 88.0351 11.8929 88.085 11.799C88.1314 11.6958 88.1923 11.5604 88.2676 11.3927C88.5054 10.8639 88.8274 10.3458 89.2338 9.83846C89.6459 9.31825 90.0543 8.85833 90.4587 8.4587C90.5438 8.3729 90.6569 8.27645 90.7981 8.16936C90.9393 8.06226 91.0893 7.97853 91.2483 7.91818C91.4352 7.84718 91.623 7.83469 91.8117 7.88072C92.0003 7.92675 92.1496 8.09467 92.2597 8.38447C92.3165 8.53405 92.3577 8.727 92.3833 8.96332C92.4182 9.19608 92.4299 9.48045 92.4184 9.81641C92.4002 10.2191 92.4387 10.6163 92.534 11.008C92.6386 11.3961 92.7406 11.7211 92.84 11.9829C92.8684 12.0576 92.8968 12.1324 92.9252 12.2072C92.9594 12.2691 92.9872 12.3281 93.0085 12.3842C93.044 12.4777 93.0584 12.5578 93.0516 12.6245C93.0484 12.7006 93.0001 12.7564 92.9066 12.7919Z" fill="#262423"/>
<path d="M1.10574 27.25C-0.507295 33.0831 16.5011 46.1821 40.6967 44.163C70.9411 41.639 87.9313 20.2018 99.9758 29.1877C104.209 32.3459 104.756 40.6157 99.087 46M99.087 46L97.1859 40.1109M99.087 46L106 44.1491" stroke="url(#paint0_radial_362_3207)" stroke-width="1.5"/>
<defs>
<radialGradient id="paint0_radial_362_3207" cx="0" cy="0" r="1" gradientUnits="userSpaceOnUse" gradientTransform="translate(125.011 31.6978) rotate(-177.814) scale(123.487 561.142)">
<stop stop-color="#262423"/>
<stop offset="1" stop-opacity="0"/>
</radialGradient>
</defs>
</svg>
