<?xml version="1.0" standalone="no"?>
<!DOCTYPE svg PUBLIC "-//W3C//DTD SVG 20010904//EN"
 "http://www.w3.org/TR/2001/REC-SVG-20010904/DTD/svg10.dtd">
<svg version="1.0" xmlns="http://www.w3.org/2000/svg"
 width="450.000000pt" height="450.000000pt" viewBox="0 0 450.000000 450.000000"
 preserveAspectRatio="xMidYMid meet">
<metadata>
Created by potrace 1.10, written by Peter Selinger 2001-2011
</metadata>
<g transform="translate(0.000000,450.000000) scale(0.100000,-0.100000)"
fill="#000000" stroke="none">
<path d="M2053 3691 c-5 -3 -9 -22 -9 -41 l1 -35 -70 -3 c-38 -2 -86 -7 -105
-11 l-35 -7 -6 -71 c-4 -39 -6 -215 -5 -392 1 -282 -1 -320 -14 -315 -49 20
-178 54 -244 64 l-76 13 -1 81 c-1 44 -2 106 -3 136 l-1 55 -108 -2 -109 -2 4
44 3 45 -122 0 c-68 0 -126 1 -130 3 -5 1 -8 -34 -8 -78 0 -75 1 -80 25 -92
26 -13 157 -16 200 -4 19 5 26 14 28 39 l3 32 75 1 c92 2 102 2 112 0 4 0 8
-60 9 -132 l3 -130 -48 7 c-26 4 -83 8 -127 7 -44 0 -83 4 -86 9 -4 6 -25 1
-50 -11 -23 -12 -44 -21 -46 -21 -2 0 -3 17 -3 39 0 42 -12 57 -59 71 -39 11
-88 -4 -96 -30 -8 -26 -10 -1038 -2 -1047 10 -9 9 -25 -2 -19 -4 3 -6 -6 -3
-19 2 -14 8 -22 14 -19 5 3 6 -5 4 -18 -3 -12 -7 -56 -8 -97 -3 -69 -1 -74 24
-93 15 -12 43 -21 67 -22 57 -1 82 26 89 96 5 59 -8 57 -28 -5 -15 -47 -35
-67 -66 -67 -39 0 -66 35 -60 78 3 20 5 59 6 85 0 27 4 46 9 43 5 -4 7 3 4 14
-3 11 -9 17 -14 14 -5 -3 -9 5 -9 18 0 17 3 19 9 9 19 -29 28 221 23 599 -3
195 -5 220 -15 185 -7 -22 -12 -64 -11 -92 1 -29 -1 -53 -5 -53 -4 0 -7 88 -8
195 -2 211 1 225 52 225 30 0 42 -18 18 -28 -15 -5 -19 -18 -20 -62 0 -30 -2
-77 -2 -105 -1 -27 2 -174 8 -325 6 -166 6 -312 1 -370 -5 -52 -9 -124 -8
-160 l0 -65 9 55 c4 30 10 74 13 97 2 24 8 48 12 54 4 6 7 54 7 105 0 51 3 91
8 88 5 -2 2 10 -6 29 -18 43 -31 508 -15 538 8 13 8 31 1 56 -12 44 0 66 24
42 13 -13 14 -34 5 -149 -14 -189 -22 -469 -12 -447 7 17 9 17 21 3 8 -10 12
-43 11 -98 -2 -111 13 -329 24 -347 5 -8 8 -33 8 -56 -2 -32 3 -47 22 -64 20
-19 38 -23 142 -28 287 -14 605 88 742 237 27 30 68 109 77 150 11 49 66 184
82 203 9 10 30 17 50 17 48 0 78 -34 93 -106 7 -32 15 -65 17 -74 3 -8 -6 -2
-20 13 -28 32 -86 52 -120 41 -27 -8 -88 -64 -81 -75 2 -4 0 -10 -6 -14 -5 -3
-10 -10 -10 -14 0 -5 22 14 50 42 46 46 52 49 87 44 38 -6 82 -45 140 -122
l23 -30 -6 30 -5 30 15 -25 c10 -17 11 -27 3 -32 -19 -11 31 -71 107 -128 158
-118 342 -180 538 -180 101 0 241 22 264 41 8 6 15 8 15 3 4 -21 6 -41 8 -66
0 -14 13 -41 27 -58 24 -28 32 -31 72 -28 40 3 50 8 70 38 22 32 23 41 16 105
-4 39 -8 102 -8 142 1 40 -3 70 -8 67 -5 -3 -6 5 -3 19 7 26 7 50 0 617 -4
360 -4 365 -25 382 -24 20 -95 24 -120 8 -11 -7 -15 -26 -14 -75 2 -66 2 -66
-17 -46 -19 20 -28 20 -217 16 -319 -7 -318 -7 -397 -49 -80 -42 -53 -38 39 5
34 16 72 29 86 29 16 -1 -3 -12 -50 -29 -41 -15 -90 -36 -108 -45 -19 -10 -35
-16 -37 -14 -2 2 -10 195 -10 248 0 1 36 3 79 6 67 5 78 4 73 -9 -3 -8 0 -22
6 -31 10 -14 29 -16 112 -14 l99 3 3 30 c2 17 0 50 -5 75 l-7 45 -65 6 c-36 3
-82 3 -102 1 -34 -4 -37 -7 -32 -28 13 -50 1 -59 -88 -62 -46 -2 -85 -5 -87
-8 -2 -2 -3 -66 -2 -142 l2 -138 -33 -16 c-19 -9 -60 -40 -92 -69 -32 -29 -65
-54 -73 -55 -26 -4 -84 -67 -106 -114 -11 -25 -32 -57 -45 -72 -29 -31 -26
-37 5 -10 11 9 32 40 46 67 14 28 42 66 63 85 21 19 32 27 25 17 -8 -9 -11
-20 -9 -23 3 -3 16 9 28 26 12 17 25 29 28 26 3 -3 -3 -15 -13 -26 -10 -11
-14 -20 -9 -20 5 0 -1 -7 -13 -15 -11 -8 -33 -45 -49 -82 -22 -54 -28 -84 -28
-145 -1 -44 -5 -74 -10 -70 -5 3 -6 -2 -3 -12 4 -10 9 -36 12 -59 5 -39 4 -40
-5 -12 -6 17 -12 52 -15 79 -5 58 -18 74 -74 87 -53 12 -90 -8 -117 -60 -16
-33 -18 -34 -22 -13 -2 13 1 29 7 36 15 18 -4 118 -25 129 -10 5 -13 16 -8 29
3 11 2 18 -2 15 -5 -3 -17 6 -27 19 -10 13 -13 24 -8 24 6 0 8 6 5 13 -3 8
-12 14 -20 14 -8 0 -13 -6 -10 -14 4 -9 -2 -9 -20 3 -13 9 -27 15 -29 12 -3
-3 10 -13 28 -23 19 -10 42 -34 52 -54 11 -20 21 -40 24 -45 2 -5 -3 -7 -12
-3 -21 8 -47 -1 -47 -16 0 -7 4 -7 12 1 21 21 27 13 15 -18 -9 -23 -9 -35 0
-49 9 -14 9 -21 1 -23 -6 -2 -3 -11 8 -23 19 -18 18 -18 -6 -12 l-25 6 25 -20
c16 -14 19 -19 8 -15 -22 7 -23 -12 -3 -40 8 -12 11 -24 8 -28 -3 -3 -2 -6 4
-6 6 0 14 7 17 16 9 22 8 26 -6 18 -6 -4 -8 -3 -4 4 3 6 1 12 -6 15 -7 2 -2 2
10 0 15 -2 21 0 17 6 -3 7 0 8 9 5 16 -6 13 -19 -17 -59 -13 -17 -17 -18 -33
-5 -16 14 -17 13 -12 -5 3 -11 9 -28 13 -38 6 -14 4 -16 -11 -10 -11 4 -15 3
-10 -5 9 -16 -30 -25 -54 -12 -25 14 -60 81 -60 117 0 15 -4 44 -9 63 -5 19
-12 91 -15 159 -6 136 -20 175 -68 199 -21 10 -32 10 -53 0 -35 -16 -53 -59
-60 -143 -6 -65 -9 -99 -20 -180 -2 -16 -6 -79 -10 -140 -3 -60 -11 -114 -16
-120 -16 -16 -10 -28 9 -14 14 11 15 11 5 -1 -26 -29 -86 -22 -104 11 -6 11
-12 33 -14 47 -2 15 -6 44 -9 66 -7 49 -44 126 -61 126 -7 0 -20 3 -28 6 -24
9 -63 -37 -87 -104 -13 -35 -32 -70 -44 -77 -27 -19 -57 -20 -50 -1 3 8 -5 22
-18 31 -14 11 -16 15 -6 12 10 -4 20 -2 23 3 4 6 1 10 -6 10 -7 0 -9 3 -6 6 3
4 2 16 -4 27 -8 14 -8 18 0 13 7 -5 11 6 11 32 0 22 3 54 6 71 4 18 2 31 -4
31 -5 0 -9 -7 -8 -16 0 -9 -6 -19 -14 -21 -11 -4 -12 -2 -2 5 10 6 10 15 3 36
-10 24 -9 26 9 16 12 -7 21 -7 25 0 3 5 0 10 -7 10 -10 0 -10 2 0 8 16 11 24
52 9 52 -8 0 -8 3 1 12 16 16 15 28 -3 28 -8 0 -15 5 -15 11 0 6 7 8 16 5 10
-4 29 7 52 28 21 19 51 46 67 61 17 15 21 22 10 16 -11 -5 -32 -21 -47 -35
-15 -14 -30 -26 -33 -26 -4 0 -14 -7 -22 -16 -9 -8 -19 -12 -22 -7 -13 19 -32
5 -65 -47 -20 -30 -36 -60 -36 -67 0 -7 -11 -24 -24 -38 -19 -20 -26 -43 -32
-93 -6 -63 -6 -67 20 -88 14 -13 26 -29 26 -37 0 -7 17 -49 39 -93 61 -126
134 -189 276 -236 57 -19 91 -23 182 -23 128 1 124 -2 -67 -52 -93 -25 -123
-28 -267 -28 -147 0 -164 2 -189 20 -31 23 -33 38 -38 285 -5 214 -5 222 -16
215 -6 -3 -7 1 -4 9 3 9 11 16 16 16 6 0 8 14 4 33 -3 17 -6 122 -7 232 -2
206 3 239 43 273 17 13 121 30 216 34 l72 4 0 -72 c0 -66 -2 -72 -25 -82 -39
-18 -126 -104 -121 -119 3 -7 0 -12 -6 -10 -6 1 -12 -3 -15 -10 -5 -15 20 -11
41 6 9 7 16 10 17 5 0 -5 4 1 9 13 9 22 89 87 97 79 3 -2 4 -79 4 -170 -1 -95
2 -166 7 -166 13 0 18 103 12 223 -3 54 -2 107 2 117 17 47 307 67 332 23 6
-11 10 -12 15 -4 5 8 28 -2 70 -29 34 -22 66 -38 72 -35 5 3 6 0 4 -7 -7 -17
34 -55 58 -55 16 0 16 2 1 18 -9 10 -21 16 -27 12 -6 -3 -7 -1 -3 5 4 7 -8 25
-26 41 -33 31 -55 41 -42 19 4 -7 3 -8 -5 -4 -6 4 -9 12 -6 17 7 11 -53 49
-77 49 -12 0 -18 8 -18 25 l0 25 61 -37 c84 -52 150 -120 192 -201 20 -37 37
-61 37 -53 0 8 8 3 20 -12 11 -14 20 -29 20 -34 0 -4 -9 3 -20 17 -11 14 -20
19 -20 11 0 -7 18 -31 40 -53 37 -37 43 -40 77 -33 21 3 48 13 59 20 23 15
118 164 111 172 -3 2 -26 -30 -52 -72 -27 -43 -60 -82 -76 -90 -41 -22 -83
-19 -105 7 -21 23 -21 23 35 0 9 -3 12 -1 7 6 -4 7 -13 12 -20 12 -13 0 -53
48 -74 90 l-12 25 5 -30 c6 -33 -7 -18 -20 24 -5 18 -4 22 6 16 8 -3 3 4 -11
17 -14 13 -40 42 -59 66 -29 37 -170 142 -191 142 -9 0 -7 767 2 775 7 7 121
25 163 25 27 0 30 -3 30 -32 l0 -33 120 0 120 0 -2 69 c-2 37 -8 75 -14 82 -9
11 -36 14 -109 13 -54 -1 -102 -4 -107 -8z m211 -48 c3 -21 6 -50 6 -65 l0
-28 -105 0 -105 0 0 58 c0 32 2 61 5 64 3 3 48 6 99 7 l93 2 7 -38z m-1006
-478 c-1 -36 -7 -66 -13 -68 -18 -7 -180 -8 -198 -1 -13 5 -17 19 -17 68 0 35
2 65 4 67 2 2 54 3 116 1 l111 -3 -3 -64z m1740 -30 c1 -1 5 -27 8 -58 l6 -57
-97 0 c-96 0 -97 0 -91 23 3 12 6 39 6 59 0 30 4 37 23 41 20 3 138 -3 145 -8z
m486 -154 c10 -8 14 -32 14 -74 0 -43 -3 -56 -8 -42 -5 11 -9 16 -9 11 -1 -5
-8 -3 -16 4 -8 6 -19 9 -24 6 -6 -4 -9 11 -7 38 1 25 0 43 -4 41 -3 -2 -11 4
-17 13 -9 15 -6 17 23 16 18 -1 40 -6 48 -13z m-78 -33 c10 -32 13 -167 4
-173 -4 -2 -10 33 -13 78 -3 45 -8 90 -12 100 -4 9 -3 17 3 17 6 0 14 -10 18
-22z m-2116 -62 c0 -2 -11 -6 -25 -8 -14 -3 -25 -1 -25 3 0 5 11 9 25 9 14 0
25 -2 25 -4z m1880 -4 c0 -4 15 -6 34 -4 40 5 99 -12 117 -34 8 -10 14 -69 17
-172 9 -268 8 -305 -5 -309 -7 -3 -13 3 -13 11 0 9 -7 19 -15 22 -8 4 -15 17
-15 30 0 13 -4 24 -8 24 -5 0 -14 18 -21 40 -6 21 -17 45 -24 52 -7 7 -18 21
-23 31 -19 33 -108 118 -151 143 -53 31 -132 61 -169 63 -75 6 -172 1 -198 -9
-30 -11 -42 -8 -32 8 12 20 245 96 321 105 60 8 185 7 185 -1z m170 -24 c0 -6
-6 -5 -15 2 -8 7 -15 14 -15 16 0 2 7 1 15 -2 8 -4 15 -11 15 -16z m117 -136
c1 -86 5 -258 9 -382 3 -124 3 -222 -1 -218 -4 4 -12 96 -19 205 -17 299 -14
553 6 553 2 0 4 -71 5 -158z m-2298 132 c7 9 19 16 25 16 6 0 -4 -12 -22 -26
-18 -14 -29 -30 -26 -36 4 -6 2 -8 -4 -4 -6 3 -13 -2 -15 -11 -2 -10 -4 -2 -3
17 1 40 18 67 26 43 5 -13 8 -13 19 1z m463 1 c128 -27 198 -54 198 -77 0 -17
-4 -19 -32 -12 -53 11 -189 6 -245 -9 l-53 -14 0 63 0 64 29 0 c16 0 63 -7
103 -15z m1755 -24 c-1 -15 -4 -17 -14 -9 -17 14 -16 28 1 28 8 0 14 -9 13
-19z m114 -116 l-7 -90 -5 102 c-3 77 -1 99 7 90 9 -8 10 -39 5 -102z m-81
-75 c3 -139 5 -163 12 -176 4 -7 10 -133 9 -194 0 -8 -1 -36 -1 -62 -1 -26 5
-59 13 -75 7 -15 12 -37 9 -48 -2 -11 6 -2 17 20 12 21 21 45 21 52 0 7 3 13
8 13 4 0 8 -18 9 -40 2 -33 0 -38 -15 -34 -15 5 -15 4 -2 -8 12 -10 14 -33 12
-103 -1 -49 3 -111 9 -137 33 -145 -13 -229 -99 -180 -19 11 -21 16 -11 28 10
12 9 13 -3 9 -13 -5 -16 2 -16 37 -1 24 -7 47 -15 53 -7 5 -12 16 -10 23 3 6
0 12 -6 12 -6 0 -11 -4 -11 -8 0 -8 -53 -42 -66 -42 -4 0 8 10 27 23 19 12 42
39 52 60 19 41 41 178 34 214 -2 12 0 20 4 17 13 -8 11 10 -3 24 -9 9 -9 12 0
12 7 0 10 12 8 33 -2 17 1 38 7 46 9 11 9 13 1 8 -8 -5 -11 29 -10 123 0 72
-3 130 -7 130 -4 0 -7 53 -6 119 1 65 -3 127 -9 137 -5 10 -7 26 -5 34 13 44
14 44 27 20 8 -15 14 -71 16 -140z m-1702 115 c-2 -2 -28 -4 -58 -6 -30 -1
-75 -8 -100 -16 -53 -15 -63 -16 -56 -4 5 8 73 22 166 35 16 2 53 -5 48 -9z
m942 11 c0 -2 -24 -18 -52 -35 -29 -17 -69 -42 -88 -57 l-35 -26 35 32 c55 51
140 103 140 86z m-855 -16 c27 -7 27 -8 5 -8 -14 0 -36 4 -50 8 -20 6 -21 8
-5 8 11 0 34 -4 50 -8z m1219 -29 c69 -34 143 -102 181 -166 37 -64 39 -81 13
-105 -20 -19 -21 -21 -4 -18 10 1 21 -3 24 -11 2 -8 0 -11 -5 -8 -5 3 -8 -4
-7 -16 1 -12 3 -22 4 -22 1 0 3 -12 4 -28 1 -21 -2 -26 -14 -22 -9 3 -7 -1 5
-10 12 -10 16 -19 10 -23 -13 -9 -16 -42 -4 -42 5 0 9 -5 9 -11 0 -5 -6 -7
-12 -3 -7 4 -4 -2 6 -15 22 -24 13 -41 -23 -44 -23 -1 -30 -27 -7 -27 20 0 15
-20 -17 -62 -58 -76 -105 -49 -126 72 -7 41 -18 83 -23 93 -23 44 -93 36 -104
-12 -36 -151 -54 -191 -88 -191 -12 0 -30 8 -39 18 -20 22 -44 163 -50 290 -5
116 -22 145 -84 150 -36 3 -44 -1 -63 -27 -22 -31 -23 -46 -20 -171 1 -36 -4
-86 -10 -111 -18 -72 -90 -138 -90 -83 0 8 -5 14 -11 14 -5 0 -7 5 -4 10 3 6
2 10 -4 10 -6 0 -8 8 -4 18 3 9 3 14 -2 10 -4 -4 -14 -3 -22 3 -10 9 -13 8
-13 -5 0 -9 4 -16 9 -16 5 0 11 -7 15 -15 4 -13 2 -14 -14 -5 -11 6 -20 15
-20 20 0 4 -3 15 -6 23 -4 12 1 15 20 13 17 -2 26 2 26 11 0 8 -4 12 -8 9 -4
-2 -6 10 -4 29 2 18 -1 36 -7 39 -6 4 -11 3 -11 -2 0 -5 -7 -9 -16 -9 -13 0
-15 13 -11 86 3 73 9 97 40 162 44 93 100 157 162 188 39 19 49 21 56 10 7
-11 9 -11 9 3 0 12 11 19 38 23 20 4 44 8 52 10 8 2 57 3 107 1 80 -3 101 -7
157 -35z m356 -69 c0 -75 -7 -79 -13 -7 -3 28 -8 58 -12 68 -6 13 -3 16 9 11
12 -5 16 -21 16 -72z m-1900 61 c0 -5 -14 -16 -30 -25 -17 -9 -30 -13 -30 -8
0 5 12 16 28 24 32 18 32 18 32 9z m441 -10 c13 -17 13 -17 -6 -3 -11 8 -22
16 -24 17 -2 2 0 3 6 3 6 0 17 -8 24 -17z m-784 -120 c-2 -21 -4 -6 -4 32 0
39 2 55 4 38 2 -18 2 -50 0 -70z m248 57 c-16 -16 -30 -28 -33 -25 -4 4 47 55
56 55 3 0 -7 -13 -23 -30z m496 0 c19 -26 42 -170 27 -170 -4 0 -8 10 -9 23
-2 67 -12 115 -28 137 -21 29 -48 37 -65 20 -8 -9 -6 -11 10 -6 29 9 52 -15
59 -62 3 -20 12 -71 20 -113 8 -41 17 -104 20 -140 8 -102 48 -217 73 -213 4
1 13 -1 20 -3 7 -3 24 -3 37 -1 20 4 23 3 14 -8 -6 -7 -8 -17 -6 -22 8 -11
-10 -37 -25 -37 -7 -1 -12 -6 -11 -11 3 -17 -79 -90 -133 -117 -117 -59 -300
-53 -399 13 -16 11 -39 25 -50 32 -36 24 -49 42 -85 117 -3 8 -12 17 -19 19
-10 3 -10 0 -2 -17 19 -35 4 -24 -18 15 -25 42 -27 51 -5 30 13 -13 20 -14 47
-3 32 13 39 24 89 132 18 39 29 51 49 53 21 2 29 -3 39 -28 9 -23 15 -28 21
-18 5 7 6 -4 3 -27 -3 -22 -2 -35 3 -28 4 6 8 -15 8 -51 0 -100 51 -154 114
-121 46 23 58 58 65 185 4 63 13 167 22 230 18 143 20 151 29 174 7 15 5 17
-6 11 -8 -5 -5 2 5 14 25 28 63 24 87 -9z m1616 -62 c-3 -8 -6 -5 -6 6 -1 11
2 17 5 13 3 -3 4 -12 1 -19z m-1730 -40 c-3 -8 -6 -5 -6 6 -1 11 2 17 5 13 3
-3 4 -12 1 -19z m-770 -28 c0 -16 -4 -27 -9 -24 -10 6 -11 38 -1 47 9 10 10
10 10 -23z m110 -32 c-2 -13 -4 -5 -4 17 -1 22 1 32 4 23 2 -10 2 -28 0 -40z
m180 0 c2 -18 0 -20 -7 -8 -12 18 -13 30 -2 30 4 0 9 -10 9 -22z m1432 -4 c12
-15 21 -34 21 -43 0 -9 -8 -1 -17 17 -17 35 -57 52 -76 33 -6 -6 -16 -11 -21
-11 -6 0 -2 7 8 15 30 22 62 18 85 -11z m-7 -34 c11 -20 18 -58 18 -90 0 -59
24 -243 36 -275 21 -59 91 -76 132 -32 30 32 59 104 66 162 6 50 6 49 -12 -15
-21 -75 -50 -145 -57 -138 -3 3 2 19 11 36 8 17 23 62 32 99 16 64 18 67 50
71 17 1 33 -1 33 -5 1 -4 3 -17 4 -28 19 -138 33 -176 72 -194 31 -14 42 -14
76 3 42 22 34 -2 -15 -50 -50 -49 -126 -89 -185 -99 -89 -14 -205 -8 -265 15
-32 12 -58 24 -58 27 0 3 8 12 18 19 16 13 16 14 -3 7 -11 -3 -23 -10 -26 -15
-8 -12 -49 26 -49 45 0 9 -5 19 -12 23 -7 4 -8 3 -4 -4 4 -7 1 -12 -8 -12 -9
0 -13 6 -10 15 3 8 -4 27 -16 42 l-22 28 26 20 c53 43 87 215 65 335 -2 15 1
25 8 25 7 0 18 6 25 13 21 21 52 9 70 -28z m-1447 11 c-5 -16 -2 -18 14 -14
11 3 21 11 23 19 2 8 8 10 16 5 10 -6 4 -12 -20 -24 -35 -17 -53 -11 -42 16 9
23 17 21 9 -2z m2238 -40 c2 -28 -1 -51 -4 -51 -4 0 -7 25 -7 55 1 69 9 66 11
-4z m-218 -12 c-3 -9 6 -27 20 -41 20 -20 22 -27 11 -31 -8 -3 -17 1 -20 10
-5 13 -9 13 -23 2 -14 -12 -15 -11 -9 8 4 12 2 24 -4 28 -14 9 -13 26 3 23 7
-2 11 6 9 22 -1 19 0 22 8 10 5 -8 7 -22 5 -31z m-2175 -25 c0 -30 -4 -43 -11
-39 -6 4 -8 14 -5 22 4 8 2 11 -5 7 -8 -4 -9 1 -3 17 4 13 7 29 7 36 0 7 4 10
9 7 4 -3 8 -25 8 -50z m-112 21 c-3 -3 -9 2 -12 12 -6 14 -5 15 5 6 7 -7 10
-15 7 -18z m263 11 c5 3 12 -2 16 -12 4 -10 0 -20 -10 -26 -10 -5 -17 -14 -17
-19 0 -6 5 -7 10 -4 6 3 11 -1 11 -9 5 -59 3 -76 -11 -82 -12 -4 -11 -9 8 -24
13 -11 18 -21 12 -25 -6 -3 -7 -11 -4 -17 4 -6 1 -14 -6 -18 -9 -6 -8 -15 6
-41 14 -29 15 -32 1 -21 -16 14 -42 76 -28 67 5 -2 8 6 7 20 0 14 -4 25 -8 25
-7 0 -5 13 8 73 4 20 0 34 -12 48 -12 14 -14 19 -4 19 9 0 7 5 -6 16 -18 14
-18 15 4 4 22 -11 33 2 12 15 -5 3 -10 12 -9 18 0 9 2 8 6 -1 2 -6 9 -10 14
-6z m849 0 c0 -8 -5 -18 -12 -22 -7 -4 -8 -3 -4 4 4 7 2 12 -3 12 -6 0 -11 5
-11 10 0 6 7 10 15 10 8 0 15 -6 15 -14z m1277 -89 c0 -40 -2 -54 -4 -32 -10
95 -18 40 -21 -143 -1 -108 -7 -218 -13 -244 -14 -63 -46 -95 -100 -102 -24
-3 -71 -10 -104 -15 l-60 -9 70 -2 70 -2 -50 -10 c-67 -13 -261 5 -346 33 -81
26 -181 70 -174 77 2 3 -16 15 -42 27 -37 17 -44 23 -30 28 10 4 16 3 12 -2
-3 -5 13 -15 35 -23 22 -7 40 -17 40 -23 0 -16 47 -25 155 -32 145 -8 268 19
344 78 13 11 20 19 17 19 -4 0 6 18 23 39 35 43 74 127 86 181 4 19 16 46 27
60 16 23 23 52 27 123 1 9 7 17 15 17 9 0 12 9 9 28 -3 18 -2 23 5 14 5 -7 9
-46 9 -85z m-2387 53 c0 -5 -4 -10 -10 -10 -5 0 -10 5 -10 10 0 6 5 10 10 10
6 0 10 -4 10 -10z m135 1 c3 -5 1 -12 -5 -16 -5 -3 -10 1 -10 9 0 18 6 21 15
7z m78 -21 c-3 -11 -7 -20 -9 -20 -2 0 -4 9 -4 20 0 11 4 20 9 20 5 0 7 -9 4
-20z m934 -2 c-3 -8 -6 -5 -6 6 -1 11 2 17 5 13 3 -3 4 -12 1 -19z m157 4 c2
-4 -13 -6 -35 -4 -21 2 -39 6 -39 8 0 7 69 4 74 -4z m-1304 -23 c0 -6 -4 -7
-10 -4 -5 3 -10 11 -10 16 0 6 5 7 10 4 6 -3 10 -11 10 -16z m1125 0 c-6 -32
-12 -34 -12 -4 0 14 3 25 8 25 4 0 6 -10 4 -21z m1385 -61 c0 -89 -7 -100 -15
-22 -5 46 1 104 11 104 2 0 4 -37 4 -82z m-2360 64 c0 -5 -7 -17 -15 -28 -14
-19 -14 -19 -15 2 0 11 3 24 7 27 9 10 23 9 23 -1z m77 -24 c-3 -7 -5 -2 -5
12 0 14 2 19 5 13 2 -7 2 -19 0 -25z m1113 12 c6 -11 8 -20 6 -20 -3 0 -10 9
-16 20 -6 11 -8 20 -6 20 3 0 10 -9 16 -20z m947 -12 c-7 -4 -12 -17 -12 -29
0 -12 -7 -24 -15 -26 -9 -3 -11 -1 -5 4 6 4 10 19 9 33 -1 33 16 56 27 38 5
-7 3 -16 -4 -20z m-2287 -8 c0 -5 -2 -10 -4 -10 -3 0 -8 5 -11 10 -3 6 -1 10
4 10 6 0 11 -4 11 -10z m210 -26 c0 -13 5 -24 10 -24 6 0 10 -8 10 -17 0 -14
-4 -12 -17 7 -17 24 -25 73 -11 64 4 -3 8 -16 8 -30z m2101 -12 c-6 -2 -11
-10 -11 -17 0 -7 -7 -15 -15 -19 -13 -4 -14 -2 -5 14 6 11 8 24 5 29 -3 5 3
17 12 27 17 17 18 17 21 -6 2 -14 -1 -26 -7 -28z m-2317 -18 c3 -8 2 -12 -4
-9 -6 3 -10 10 -10 16 0 14 7 11 14 -7z m1423 10 c-3 -4 -2 -15 4 -25 10 -20
-4 -28 -16 -9 -8 12 1 40 11 40 4 0 4 -3 1 -6z m-1408 -43 c-1 -15 -18 -45
-18 -34 -1 6 -3 18 -6 26 -4 8 0 14 10 14 8 0 15 -3 14 -6z m128 -38 c-3 -10
-5 -2 -5 17 0 19 2 27 5 18 2 -10 2 -26 0 -35z m2150 5 c-3 -8 -6 -5 -6 6 -1
11 2 17 5 13 3 -3 4 -12 1 -19z m-27 -13 c-14 -17 -30 -20 -30 -4 0 5 5 7 10
4 6 -3 10 -1 10 4 0 6 5 11 11 11 8 0 8 -5 -1 -15z m-1950 -5 c0 -5 -4 -10
-10 -10 -5 0 -10 5 -10 10 0 6 5 10 10 10 6 0 10 -4 10 -10z m1089 -6 c4 3 7
-4 7 -14 0 -14 -3 -16 -13 -8 -7 6 -13 18 -12 27 0 10 2 12 6 3 2 -6 8 -10 12
-8z m881 -7 c0 -7 -7 -22 -15 -33 -13 -17 -14 -16 -4 14 11 33 19 41 19 19z
m-40 -36 c-6 -12 -15 -21 -21 -21 -5 0 -2 11 8 24 21 28 29 27 13 -3z m-1513
-3 c-3 -8 -6 -5 -6 6 -1 11 2 17 5 13 3 -3 4 -12 1 -19z m366 2 c-10 -11 -19
-20 -21 -20 -1 0 2 9 8 20 6 11 15 20 20 20 6 0 2 -9 -7 -20z m383 -17 c-10
-10 -19 5 -10 18 6 11 8 11 12 0 2 -7 1 -15 -2 -18z m-842 -42 c17 -8 18 -10
4 -10 -17 -1 -58 44 -58 63 0 6 8 -1 17 -16 9 -15 26 -31 37 -37z m-324 8 c0
-10 6 -18 13 -16 6 1 11 -3 10 -10 -3 -16 79 -88 138 -119 54 -30 61 -46 7
-18 -61 31 -116 73 -147 113 -31 38 -50 88 -30 76 5 -4 9 -15 9 -26z m1926
-16 c-13 -27 -36 -59 -50 -72 -14 -13 -23 -29 -19 -35 3 -6 3 -8 -1 -4 -5 4
-25 -3 -45 -15 -49 -30 -88 -47 -109 -46 -9 0 7 10 36 21 64 25 141 92 177
153 34 59 42 58 11 -2z m141 15 c-3 -8 -6 -5 -6 6 -1 11 2 17 5 13 3 -3 4 -12
1 -19z m-864 -3 c4 -8 2 -17 -4 -20 -5 -4 -8 -1 -7 6 2 7 -2 13 -9 14 -21 0
-27 15 -6 15 12 0 23 -7 26 -15z m316 -24 c-6 -2 -18 4 -27 13 -15 15 -15 15
10 4 15 -7 23 -15 17 -17z m-259 -83 c8 -3 12 -8 9 -12 -3 -3 -18 3 -32 15
-15 11 -32 17 -38 13 -7 -4 -9 -3 -5 4 3 6 -1 18 -10 26 -8 9 -12 16 -7 16 4
0 0 5 -9 11 -10 5 -18 15 -18 21 0 7 21 -11 48 -39 26 -27 54 -52 62 -55z
m-1570 82 c0 -5 -5 -10 -11 -10 -5 0 -7 5 -4 10 3 6 8 10 11 10 2 0 4 -4 4
-10z m0 -30 c0 -5 -5 -10 -11 -10 -5 0 -7 5 -4 10 3 6 8 10 11 10 2 0 4 -4 4
-10z m1020 -30 c-6 -11 -16 -20 -22 -20 -6 0 -3 9 7 20 10 11 20 20 22 20 2 0
-1 -9 -7 -20z m-51 -46 c-23 -28 -102 -61 -159 -68 l-55 -6 53 14 c29 7 78 27
110 44 67 36 68 37 51 16z m-379 -54 c0 -5 -7 -7 -15 -4 -8 4 -15 8 -15 10 0
2 7 4 15 4 8 0 15 -4 15 -10z m65 -11 c11 -17 -1 -21 -15 -4 -8 9 -8 15 -2 15
6 0 14 -5 17 -11z m1323 4 c-10 -2 -26 -2 -35 0 -10 3 -2 5 17 5 19 0 27 -2
18 -5z m-1248 -19 c0 -2 -11 -4 -25 -4 -14 0 -25 4 -25 9 0 4 11 6 25 3 14 -2
25 -6 25 -8z"/>
<path d="M2096 3625 c-3 -8 -3 -22 0 -30 10 -26 114 -12 114 16 0 5 -12 2 -27
-8 -26 -17 -26 -17 -21 5 4 15 2 22 -8 22 -8 0 -14 -9 -14 -20 0 -12 -7 -20
-16 -20 -12 0 -15 7 -12 25 6 27 -6 34 -16 10z"/>
<path d="M1066 3184 c-3 -8 -1 -24 5 -35 8 -16 17 -19 47 -13 48 8 44 8 65 -1
20 -8 57 18 44 32 -4 3 -14 -2 -22 -13 -14 -19 -15 -18 -21 4 -8 26 -13 27
-29 5 -12 -17 -35 -11 -35 10 0 7 4 6 10 -3 8 -13 10 -13 10 2 0 9 -4 19 -9
22 -12 8 -34 -21 -26 -34 3 -5 -1 -10 -11 -10 -12 0 -15 6 -12 25 6 27 -6 34
-16 9z"/>
<path d="M2873 3089 c-6 -21 -7 -21 -20 -4 -12 17 -13 17 -13 2 0 -21 34 -35
76 -33 33 1 64 21 64 40 0 6 -7 3 -14 -6 -15 -20 -36 -24 -36 -6 0 6 -7 4 -18
-5 -10 -10 -22 -14 -25 -10 -10 10 -8 33 3 33 5 0 7 -8 4 -17 -5 -15 -4 -16 5
-3 15 21 14 30 -5 30 -9 0 -18 -10 -21 -21z"/>
<path d="M3456 2951 c4 -16 3 -21 -5 -17 -6 4 -11 2 -11 -3 0 -6 4 -11 9 -11
17 0 22 19 11 37 -9 15 -10 14 -4 -6z"/>
<path d="M2680 2720 c-10 -7 1 -8 35 -4 28 4 52 8 54 10 10 9 -75 3 -89 -6z"/>
<path d="M2578 2675 c-20 -13 -57 -56 -82 -94 -62 -93 -59 -102 4 -12 28 39
69 85 92 101 49 36 38 40 -14 5z"/>
<path d="M2641 2615 c1 -64 4 -85 14 -85 10 0 13 20 12 85 -1 58 -6 85 -14 85
-8 0 -12 -26 -12 -85z"/>
<path d="M3130 2580 c0 -6 7 -10 15 -10 8 0 15 2 15 4 0 2 -7 6 -15 10 -8 3
-15 1 -15 -4z"/>
<path d="M3156 2542 c-12 -12 -5 -22 14 -19 28 5 34 14 11 20 -11 2 -22 2 -25
-1z"/>
<path d="M3176 2496 c7 -18 32 -28 39 -16 4 6 -1 10 -10 10 -9 0 -13 5 -10 10
3 6 -1 10 -9 10 -9 0 -13 -6 -10 -14z"/>
<path d="M2409 2369 c-11 -50 -9 -69 8 -69 15 0 16 2 3 10 -9 6 -10 10 -3 10
7 0 10 9 8 21 -4 20 -14 38 -16 28z"/>
<path d="M3203 2206 c0 -8 6 -12 14 -9 7 3 10 9 7 14 -8 14 -21 11 -21 -5z"/>
<path d="M2680 1930 c0 -5 7 -7 15 -4 8 4 15 8 15 10 0 2 -7 4 -15 4 -8 0 -15
-4 -15 -10z"/>
<path d="M3325 2194 c-17 -80 -50 -162 -86 -215 -43 -64 -129 -139 -159 -139
-10 0 -22 -5 -26 -11 -11 -18 41 -2 87 26 41 26 104 101 143 169 23 40 62 184
52 193 -3 3 -8 -8 -11 -23z"/>
<path d="M2980 2930 c-19 -4 27 -7 102 -6 75 1 129 4 119 8 -22 8 -175 6 -221
-2z"/>
<path d="M3532 2699 c2 -123 6 -186 10 -159 6 43 -1 350 -8 359 -3 3 -3 -87
-2 -200z"/>
<path d="M2566 2775 c-11 -8 -16 -15 -10 -15 5 0 18 7 28 15 11 8 16 15 10 15
-5 0 -18 -7 -28 -15z"/>
<path d="M934 2650 c0 -63 1 -89 3 -57 2 31 2 83 0 115 -2 31 -3 5 -3 -58z"/>
<path d="M1558 2696 c-20 -6 -43 -17 -50 -24 -11 -11 11 -6 122 28 24 8 24 8
-5 8 -16 0 -47 -5 -67 -12z"/>
<path d="M2080 2541 c0 -6 4 -13 10 -16 6 -3 7 1 4 9 -7 18 -14 21 -14 7z"/>
<path d="M2030 2501 c0 -13 28 -33 41 -29 8 3 6 9 -5 21 -19 18 -36 22 -36 8z"/>
<path d="M1165 2420 c-4 -12 -5 -24 -2 -27 3 -2 8 5 12 17 4 12 5 24 2 27 -3
2 -8 -5 -12 -17z"/>
<path d="M3542 2345 c0 -16 2 -22 5 -12 2 9 2 23 0 30 -3 6 -5 -1 -5 -18z"/>
<path d="M1160 2199 c0 -9 9 -42 21 -75 11 -32 23 -69 26 -81 3 -13 12 -23 19
-23 12 0 11 6 -2 33 -10 17 -28 61 -40 97 -13 36 -24 58 -24 49z"/>
<path d="M2340 2092 c0 -13 62 -107 95 -143 47 -53 115 -104 169 -128 27 -12
51 -19 54 -16 3 3 -17 14 -44 26 -86 38 -169 114 -231 212 -35 56 -43 65 -43
49z"/>
<path d="M3543 2050 c0 -30 2 -43 4 -27 2 15 2 39 0 55 -2 15 -4 2 -4 -28z"/>
<path d="M2050 1957 c-54 -74 -157 -147 -229 -162 -9 -2 -36 -11 -60 -19 -24
-9 -52 -16 -62 -16 -11 0 -19 -4 -19 -10 0 -24 194 41 263 89 45 31 167 157
167 172 0 20 -18 4 -60 -54z"/>
<path d="M1955 1749 c-187 -110 -287 -139 -480 -141 -64 0 -74 -2 -50 -9 39
-12 193 -2 270 18 33 9 107 39 165 67 153 75 160 79 160 88 0 13 -11 9 -65
-23z"/>
<path d="M1942 1483 c-35 -89 -31 -194 9 -255 29 -45 79 -72 118 -63 21 4 30
2 34 -9 8 -22 67 -56 95 -56 44 0 105 25 125 52 19 25 22 26 47 13 24 -12 33
-12 66 1 60 24 79 57 77 132 -2 79 -22 151 -46 164 -10 5 -21 7 -24 5 -2 -3 5
-35 16 -72 34 -108 25 -166 -30 -195 -26 -14 -59 -3 -59 19 0 24 -26 45 -45
37 -22 -8 -30 -36 -14 -47 19 -13 -28 -55 -77 -68 -41 -11 -70 -3 -98 28 -17
19 -18 23 -4 39 49 55 65 145 28 157 -27 9 -68 -18 -81 -53 -6 -15 -9 -46 -7
-69 8 -105 -109 -28 -127 83 -8 55 10 155 32 172 15 11 15 12 -4 12 -13 0 -24
-10 -31 -27z m192 -208 c-9 -25 -21 -45 -27 -45 -15 0 0 70 20 92 25 27 28 7
7 -47z"/>
</g>
</svg>
