<?xml version="1.0" standalone="no"?>
<!DOCTYPE svg PUBLIC "-//W3C//DTD SVG 20010904//EN"
 "http://www.w3.org/TR/2001/REC-SVG-20010904/DTD/svg10.dtd">
<svg version="1.0" xmlns="http://www.w3.org/2000/svg"
 width="450.000000pt" height="450.000000pt" viewBox="0 0 450.000000 450.000000"
 preserveAspectRatio="xMidYMid meet">
<metadata>
Created by potrace 1.10, written by Peter Selinger 2001-2011
</metadata>
<g transform="translate(0.000000,450.000000) scale(0.100000,-0.100000)"
fill="#000000" stroke="none">
<path d="M2135 3746 c-53 -26 -103 -68 -130 -109 l-16 -26 -34 20 c-41 25
-130 27 -172 6 -110 -57 -128 -233 -30 -302 26 -18 57 -20 57 -3 0 6 -3 9 -6
5 -15 -14 -63 25 -84 68 -64 132 83 288 208 220 53 -28 53 -29 41 -63 -16 -47
-5 -82 27 -82 33 0 40 22 20 73 -9 24 -16 46 -16 50 0 14 75 90 111 113 56 35
126 44 174 24 22 -10 48 -26 58 -37 26 -30 33 -86 13 -114 -21 -31 -20 -49 3
-49 20 0 31 18 31 50 0 23 81 77 129 86 38 8 113 -8 147 -31 12 -8 39 -34 59
-59 43 -52 57 -120 42 -196 -12 -57 -30 -86 -81 -132 -22 -21 -35 -38 -28 -38
7 0 32 19 55 43 47 47 77 121 77 191 0 95 -84 202 -181 230 -72 22 -78 21
-155 -19 -37 -19 -68 -35 -70 -35 -2 0 -4 11 -4 25 0 34 -54 93 -98 105 -57
15 -93 12 -147 -14z m239 -180 c-3 -9 -10 -16 -15 -16 -5 0 -4 9 3 20 14 22
21 20 12 -4z m-365 -54 c1 -15 -4 -22 -11 -20 -15 5 -22 43 -13 66 6 15 8 15
15 -3 5 -11 9 -30 9 -43z"/>
<path d="M1182 3558 c-17 -17 -15 -56 8 -116 15 -38 18 -58 10 -70 -5 -9 -10
-12 -10 -5 0 17 -63 53 -92 53 -35 0 -78 -36 -78 -66 0 -14 7 -40 14 -59 11
-26 12 -35 3 -35 -18 1 -89 37 -119 62 -37 29 -81 17 -86 -25 -4 -36 33 -95
64 -103 13 -3 30 -18 37 -33 7 -16 22 -27 37 -29 14 -2 33 -11 43 -20 15 -13
22 -14 37 -4 12 7 21 8 25 2 8 -13 25 -13 25 0 0 6 -8 11 -17 11 -10 1 -2 5
17 10 l35 8 -35 -4 c-19 -2 -47 -7 -61 -10 -19 -5 -26 -3 -26 8 0 9 6 13 14
10 16 -6 18 13 1 23 -6 4 -16 0 -23 -9 -15 -21 -39 -22 -55 -2 -10 12 -10 18
0 30 7 8 18 15 24 15 6 0 2 -7 -8 -15 -17 -13 -17 -15 -4 -15 23 0 32 18 18
35 -8 10 -19 11 -42 5 -33 -10 -71 7 -83 38 -4 11 5 7 22 -11 16 -15 33 -27
37 -27 4 0 -11 18 -33 39 -45 44 -49 56 -23 69 20 11 52 1 71 -22 12 -14 123
-76 137 -76 6 0 0 33 -13 67 -6 16 -5 16 10 5 15 -12 15 -11 7 19 -5 17 -7 29
-3 26 3 -4 14 -2 25 4 27 15 78 -11 102 -52 17 -29 17 -32 2 -26 -10 4 -1 -9
19 -28 35 -32 36 -37 30 -77 -4 -24 -13 -47 -19 -51 -7 -5 -3 -7 9 -5 28 4 33
92 7 128 -10 14 -28 43 -41 65 -34 60 -65 80 -109 69 -26 -6 -38 -16 -43 -34
-6 -21 -7 -20 -8 12 -1 42 17 58 66 58 35 0 80 -44 114 -110 12 -25 24 -40 26
-33 2 6 -3 23 -13 38 -13 20 -15 38 -10 86 6 47 4 59 -5 53 -8 -4 -10 -3 -5 5
4 6 -2 23 -13 37 -25 32 -27 57 -5 75 14 11 20 9 45 -19 27 -30 29 -37 23 -82
-7 -54 11 -72 22 -22 3 15 7 32 9 39 2 6 0 14 -6 17 -5 2 -4 3 3 2 7 -2 12 -9
11 -15 -2 -6 2 -11 7 -11 5 0 10 -17 11 -37 0 -21 3 -32 6 -25 8 19 23 4 23
-24 0 -24 -18 -46 -69 -87 -13 -10 -20 -21 -17 -24 3 -3 12 2 21 11 9 9 20 16
24 16 5 0 20 12 35 26 29 30 35 74 11 94 -8 7 -15 22 -15 33 0 23 -106 127
-130 127 -9 0 -21 -5 -28 -12z m95 -130 c-3 -7 -5 -2 -5 12 0 14 2 19 5 13 2
-7 2 -19 0 -25z"/>
<path d="M1110 3270 c0 -5 5 -10 11 -10 5 0 7 5 4 10 -3 6 -8 10 -11 10 -2 0
-4 -4 -4 -10z"/>
<path d="M1084 3247 c10 -15 30 -30 45 -34 30 -7 41 -20 41 -49 0 -23 26 -51
37 -40 4 4 2 10 -4 14 -6 4 -13 25 -15 47 -3 38 -5 41 -44 50 -23 6 -49 17
-59 25 -18 14 -18 14 -1 -13z"/>
<path d="M1250 3245 c0 -3 11 -22 23 -43 33 -53 39 -83 21 -104 -12 -12 -25
-15 -45 -11 -18 3 -29 1 -29 -6 0 -18 65 -13 83 7 24 26 21 57 -10 113 -22 42
-43 63 -43 44z"/>
<path d="M2446 3058 c-17 -24 -21 -104 -7 -127 6 -9 4 -22 -5 -36 -13 -19 -12
-25 4 -46 11 -13 17 -29 15 -36 -7 -18 16 -53 34 -53 9 0 24 -7 33 -15 14 -13
17 -12 28 5 11 18 9 20 -12 20 -14 0 -28 5 -31 10 -9 15 -27 12 -19 -2 4 -7 3
-10 -1 -5 -5 4 -10 16 -12 27 -2 15 3 20 18 20 22 0 22 21 -1 28 -8 3 -10 0
-5 -8 6 -9 3 -9 -14 0 -12 6 -25 18 -28 26 -6 16 13 44 31 44 6 0 5 -4 -3 -9
-10 -6 -10 -10 -1 -16 15 -9 35 9 26 24 -4 6 -14 11 -21 11 -37 0 -48 97 -15
130 27 27 57 12 64 -33 3 -17 8 -45 10 -62 9 -54 15 -78 25 -88 15 -15 38 9
45 48 12 62 74 85 114 42 43 -46 40 -71 -36 -337 -9 -31 -50 -43 -75 -22 -9 8
-20 12 -24 9 -11 -11 30 -36 58 -37 37 0 58 29 69 95 5 32 13 62 18 67 4 4 25
3 46 -3 77 -21 154 19 141 74 -4 14 -2 28 4 31 6 4 11 12 11 17 0 6 -5 7 -11
3 -9 -5 -10 1 -5 22 12 54 19 113 13 127 -3 9 -14 13 -29 10 -24 -5 -49 -41
-63 -92 -4 -13 -19 -35 -33 -48 -14 -12 -20 -23 -13 -23 20 0 57 47 70 90 7
23 20 44 29 47 9 4 20 11 24 17 4 6 5 -7 3 -29 -9 -70 -16 -95 -29 -95 -17 0
-51 -38 -42 -47 10 -11 42 13 38 29 -3 11 -1 11 10 0 11 -11 10 -18 -4 -42
-14 -25 -15 -30 -3 -30 20 0 19 -14 -4 -34 -13 -11 -33 -16 -69 -15 -75 3 -77
6 -58 83 17 66 17 68 -5 112 -26 55 -56 70 -103 50 -38 -16 -46 -26 -56 -70
l-7 -31 -21 45 c-12 25 -22 59 -22 75 0 41 -25 75 -55 75 -13 0 -31 -10 -39
-22z m434 -202 c0 -3 -4 -8 -10 -11 -5 -3 -10 -1 -10 4 0 6 5 11 10 11 6 0 10
-2 10 -4z"/>
<path d="M2632 2938 c-15 -20 -24 -58 -14 -58 5 0 18 -17 28 -37 14 -30 19
-34 22 -19 2 10 -5 31 -17 47 -25 34 -26 45 -4 57 21 12 61 -4 68 -29 3 -10
-1 -34 -10 -54 -17 -42 -19 -55 -7 -55 9 0 32 79 32 109 0 40 -73 69 -98 39z"/>
<path d="M2803 2914 c-12 -19 -18 -34 -13 -34 12 0 43 47 38 58 -1 5 -13 -6
-25 -24z"/>
<path d="M2601 2841 c-1 -8 4 -29 11 -47 10 -28 9 -36 -5 -52 -23 -25 -22 -47
1 -24 10 9 27 22 36 27 15 9 16 14 5 38 -7 15 -16 27 -21 27 -5 0 -13 10 -18
23 -5 12 -9 16 -9 8z"/>
<path d="M1915 2800 c-16 -4 -40 -12 -51 -18 -26 -14 -79 -91 -94 -137 -10
-31 -14 -33 -45 -28 -99 16 -165 -89 -116 -186 12 -23 29 -45 37 -48 27 -10
25 4 -6 35 -64 64 -24 184 62 184 47 0 58 -7 58 -38 0 -32 18 -66 31 -59 14 9
11 48 -6 72 -14 20 -14 27 7 76 51 119 127 164 208 122 41 -21 63 -68 57 -122
-5 -51 9 -58 18 -9 8 40 0 70 -27 109 -31 44 -76 60 -133 47z m-131 -246 c3
-8 2 -12 -4 -9 -6 3 -10 10 -10 16 0 14 7 11 14 -7z"/>
<path d="M2701 2769 c-1 -24 -69 -123 -89 -131 -14 -5 -13 -7 4 -7 15 -1 31
15 58 59 21 33 35 68 33 78 -4 15 -5 15 -6 1z"/>
<path d="M945 2518 c-131 -67 -186 -205 -120 -302 l25 -36 -40 -40 c-141 -141
-117 -383 46 -459 72 -34 151 -29 210 14 20 15 21 14 32 -22 22 -71 118 -143
190 -143 42 1 104 33 140 75 38 43 52 74 52 116 0 41 -16 36 -17 -6 -1 -45
-28 -90 -76 -129 -34 -27 -46 -31 -102 -31 -55 0 -68 4 -102 31 -49 39 -91
119 -75 143 29 40 43 74 35 82 -15 15 -52 -20 -59 -56 -7 -40 -35 -61 -103
-77 -42 -9 -57 -9 -97 7 -136 52 -189 209 -121 358 29 64 94 131 116 121 52
-23 119 -16 151 16 50 50 -22 74 -106 36 -63 -29 -72 -27 -98 28 -22 47 -20
89 8 144 28 56 55 82 115 112 64 32 104 30 142 -6 23 -20 30 -24 26 -11 -4 10
-7 20 -7 23 0 2 -13 10 -30 19 -40 20 -87 18 -135 -7z m79 -307 c8 -12 -25
-39 -49 -41 -41 -4 -85 0 -85 9 0 23 122 53 134 32z m92 -448 c-8 -15 -15 -22
-16 -15 0 17 20 55 27 49 2 -3 -2 -18 -11 -34z"/>
<path d="M3084 2371 c-18 -11 -35 -25 -39 -31 -5 -8 -13 -5 -26 9 -24 26 -40
26 -70 2 -18 -14 -24 -29 -24 -60 0 -39 -1 -41 -30 -41 -16 -1 -46 -9 -65 -18
-27 -13 -35 -24 -35 -45 -1 -23 -9 -32 -50 -53 -28 -14 -69 -46 -91 -71 -32
-34 -47 -43 -62 -39 -21 7 -48 -16 -38 -33 4 -5 2 -12 -4 -16 -15 -9 -12 -41
5 -55 12 -10 20 -9 40 4 25 16 26 16 88 -35 34 -29 64 -55 67 -58 3 -4 35 -22
72 -40 51 -25 85 -35 138 -39 l70 -5 -33 -36 c-18 -20 -50 -72 -72 -116 -22
-44 -41 -82 -43 -84 -1 -3 -24 6 -51 19 -59 27 -81 22 -81 -20 0 -36 29 -68
70 -77 16 -3 32 -13 35 -23 6 -19 31 -30 52 -23 7 3 26 34 44 71 18 37 48 93
67 125 l35 58 25 -58 c13 -32 35 -72 48 -90 l23 -31 -34 -27 c-37 -28 -47 -67
-21 -82 8 -4 -57 -6 -145 -5 -87 2 -159 0 -159 -5 0 -4 87 -9 193 -11 502 -9
747 -6 747 8 0 6 -15 10 -34 10 -35 0 -42 14 -19 41 6 8 18 29 28 48 l18 35
-34 29 c-19 16 -65 57 -103 91 -91 80 -92 81 -137 66 -34 -12 -51 -28 -53 -54
-2 -21 -25 -14 -69 20 -26 20 -47 42 -47 50 0 24 -51 74 -76 74 -28 0 -27 2
-13 -39 7 -21 16 -30 25 -27 8 3 18 -4 24 -14 6 -11 16 -20 23 -20 7 -1 59
-39 117 -85 58 -47 135 -108 172 -137 37 -29 67 -58 67 -64 1 -7 -42 -13 -121
-17 -154 -9 -391 -7 -358 2 14 4 34 21 45 38 11 17 30 36 43 42 25 12 31 56 7
64 -20 8 -94 158 -104 211 l-8 43 51 12 c57 14 146 55 173 80 10 9 34 27 53
40 38 26 83 71 99 99 9 15 10 14 11 -6 1 -62 78 -164 135 -178 17 -4 36 -11
43 -17 8 -7 21 -6 38 1 21 10 23 15 13 33 -6 12 -11 36 -11 54 0 46 -74 130
-130 147 -33 10 -37 13 -22 19 11 4 38 8 61 8 32 1 50 8 74 30 28 26 32 36 37
100 3 47 1 71 -6 71 -6 0 -16 16 -23 35 -7 19 -20 35 -28 35 -8 0 -33 -19 -55
-43 -40 -42 -51 -60 -97 -162 -12 -27 -24 -52 -25 -54 -2 -2 -25 16 -51 40
-27 25 -74 56 -105 69 -32 14 -61 33 -64 43 -6 20 -60 47 -92 47 -17 0 -19 6
-15 43 4 33 0 48 -17 70 -25 32 -44 34 -86 8z m73 -38 c8 -25 8 -41 2 -48 -7
-7 -8 -3 -4 10 6 17 4 17 -14 -4 -27 -30 -38 -22 -13 9 11 13 17 32 14 42 -5
21 -23 20 -30 -2 -3 -7 0 -10 7 -6 14 9 14 -1 1 -17 -6 -7 -16 -20 -23 -30 -7
-10 -25 -20 -39 -21 -23 -3 -26 -1 -18 15 15 28 33 35 25 10 -9 -29 -3 -26 25
11 17 24 19 30 7 25 -25 -9 -21 8 6 26 33 24 41 21 54 -20z m-182 -4 c-6 -19
-4 -21 19 -17 29 6 31 1 12 -24 -16 -22 -30 -23 -22 -3 5 13 -5 20 -26 16 -12
-2 -9 24 4 37 17 17 20 15 13 -9z m35 7 c0 -3 -4 -8 -10 -11 -5 -3 -10 -1 -10
4 0 6 5 11 10 11 6 0 10 -2 10 -4z m690 -50 c0 -2 -7 -7 -16 -10 -8 -3 -12 -2
-9 4 6 10 25 14 25 6z m-66 -63 c-16 -21 -29 -41 -29 -45 0 -3 -3 -10 -7 -14
-15 -14 -8 -26 7 -14 8 7 15 9 15 4 0 -4 18 9 40 31 22 21 42 36 45 33 4 -3
-10 -18 -29 -33 -20 -15 -35 -35 -34 -44 2 -10 -4 -16 -17 -16 -11 0 -26 -4
-32 -8 -8 -5 -13 -3 -13 4 0 7 -3 9 -7 5 -5 -4 0 -14 11 -21 10 -8 15 -18 11
-24 -3 -6 -1 -11 4 -11 6 0 11 7 11 15 0 8 4 15 9 15 5 0 16 6 24 14 17 18 88
48 95 41 7 -7 6 -7 -62 -39 -32 -15 -56 -29 -53 -32 3 -3 19 2 36 10 32 17 62
22 46 8 -6 -5 -32 -17 -58 -26 -46 -17 -60 -16 -63 5 -3 23 -6 22 -18 -10 -7
-19 -19 -37 -27 -39 -10 -3 -11 -1 -2 5 7 5 14 23 16 39 6 53 90 205 105 190
3 -3 -8 -22 -24 -43z m-485 22 c-6 -5 -50 -10 -99 -10 -49 0 -93 5 -99 10 -7
7 26 10 99 10 73 0 106 -3 99 -10z m521 -27 c-21 -23 -42 -40 -45 -36 -8 7 59
78 73 78 6 0 -6 -19 -28 -42z m-765 12 c-28 -12 -37 -12 -30 0 3 6 16 10 28 9
21 0 21 -1 2 -9z m305 -1 c11 -8 8 -9 -15 -4 -28 6 -29 5 -14 -10 13 -13 21
-15 37 -6 28 15 37 14 22 -4 -6 -8 -17 -13 -23 -12 -7 1 -11 -3 -10 -8 1 -6
-6 -11 -16 -11 -13 0 -17 6 -13 21 5 19 4 19 -15 2 -19 -17 -21 -17 -27 -1 -4
9 -5 18 -4 19 12 9 45 24 53 25 6 0 17 -5 25 -11z m-240 -31 c0 -19 -16 -5
-17 14 -2 18 0 20 7 8 5 -8 10 -18 10 -22z m-126 -3 c-29 -22 -6 -18 35 6 l36
21 -25 -22 c-14 -13 -24 -26 -23 -31 2 -4 -12 -3 -29 3 l-31 11 23 19 c12 10
25 16 28 13 3 -3 -3 -12 -14 -20z m271 16 c3 -5 1 -12 -5 -16 -5 -3 -10 -1
-10 6 0 8 -4 8 -15 -1 -8 -7 -15 -9 -15 -5 0 4 -7 2 -15 -5 -12 -10 -15 -10
-15 0 0 10 -3 10 -15 0 -12 -10 -15 -10 -15 3 0 11 10 15 36 15 19 0 38 3 41
6 9 9 21 7 28 -3z m-178 -21 c1 -11 -3 -20 -8 -20 -6 0 -7 5 -4 10 3 6 1 10
-5 10 -6 0 -8 5 -5 10 10 16 21 11 22 -10z m343 10 c0 -5 -10 -14 -21 -21 -17
-9 -20 -8 -16 3 2 7 10 12 16 11 6 -2 11 2 11 7 0 6 2 10 5 10 3 0 5 -4 5 -10z
m-285 -10 c3 -5 1 -10 -4 -10 -6 0 -11 5 -11 10 0 6 2 10 4 10 3 0 8 -4 11
-10z m740 0 c3 -5 1 -10 -5 -10 -7 0 -23 -9 -37 -20 -40 -32 -52 -22 -13 10
37 32 45 35 55 20z m-688 -29 c9 9 17 8 28 -1 18 -15 20 -50 3 -50 -6 0 -8 -3
-4 -7 4 -5 12 -8 18 -8 21 0 34 -34 20 -55 -13 -21 -16 -38 -5 -27 10 11 33
-14 33 -35 0 -12 -9 -22 -20 -25 -19 -5 -19 -7 -5 -23 20 -22 10 -49 -16 -43
-24 7 -25 -6 -1 -23 13 -10 15 -17 6 -31 -6 -10 -19 -18 -29 -18 -10 0 -20 -6
-22 -12 -3 -7 0 -13 6 -13 6 0 11 -4 11 -10 0 -5 -24 -10 -52 -10 -47 1 -51 2
-35 14 10 8 19 25 21 37 1 13 6 32 10 42 5 9 6 26 3 37 -3 10 1 24 8 30 7 6
13 34 13 66 0 44 -4 57 -19 67 -10 6 -19 20 -19 29 0 10 -4 18 -10 18 -5 0
-19 10 -30 23 l-21 22 38 5 c21 3 42 2 47 -2 5 -4 15 -3 23 3z m134 -13 c3 -5
12 -8 20 -6 23 5 25 -61 2 -77 -10 -8 -14 -17 -9 -22 5 -4 11 -2 13 5 8 21 33
-6 33 -35 0 -16 -7 -27 -20 -30 -11 -3 -20 -11 -20 -19 0 -7 6 -11 14 -8 21 8
39 -31 26 -56 -6 -11 -17 -20 -25 -20 -8 0 -15 -7 -15 -15 0 -8 7 -15 15 -15
23 0 18 -26 -10 -48 -24 -19 -102 -38 -113 -27 -3 3 3 14 14 26 10 11 19 30
20 42 1 12 6 33 11 47 6 14 8 30 6 37 -3 6 1 21 7 33 9 17 8 26 -5 46 -9 14
-13 33 -10 44 4 12 -1 26 -13 38 -10 10 -19 33 -20 51 -1 31 0 32 36 25 20 -4
40 -11 43 -16z m123 16 c9 -3 16 -15 16 -26 0 -10 -4 -16 -10 -13 -5 3 -10 2
-10 -2 0 -5 10 -13 22 -18 29 -13 35 -45 12 -62 -17 -13 -17 -13 0 -26 21 -15
18 -52 -3 -52 -8 0 -16 -6 -18 -12 -3 -7 3 -13 12 -13 26 0 16 -55 -10 -56
-35 -2 -38 -4 -25 -19 10 -13 10 -19 -5 -35 -10 -11 -23 -20 -29 -20 -15 0
-13 59 2 87 9 16 9 29 2 49 -6 15 -8 35 -4 43 14 33 13 49 -6 66 -13 12 -17
25 -14 45 4 15 1 31 -5 34 -19 12 -12 23 13 19 13 -3 27 0 30 6 8 13 9 13 30
5z m-390 -20 c-17 -14 -18 -15 -1 -10 26 8 41 -3 26 -20 -6 -8 -9 -18 -5 -21
4 -4 11 -2 15 5 9 16 41 5 41 -14 0 -8 -4 -14 -10 -14 -5 0 -10 -5 -10 -11 0
-6 7 -8 16 -5 19 7 44 -10 44 -30 0 -7 -7 -20 -16 -28 -8 -9 -11 -16 -5 -16 6
0 11 -9 11 -20 0 -13 -7 -20 -20 -20 -11 0 -20 -4 -20 -10 0 -5 5 -10 11 -10
6 0 9 -12 7 -27 -2 -20 -8 -27 -20 -25 -11 2 -18 -3 -18 -13 0 -8 5 -15 10
-15 17 0 11 -26 -10 -45 -17 -15 -24 -16 -46 -7 -31 15 -37 15 -29 2 8 -13 -5
-13 -25 0 -12 8 -12 10 -1 10 18 0 40 30 41 54 0 11 10 30 22 43 18 19 20 27
10 48 -7 15 -8 27 -2 30 16 10 11 44 -10 65 -11 11 -17 25 -14 33 2 7 -7 23
-21 35 -31 27 -32 39 -2 45 46 9 51 8 31 -9z m-94 -11 c0 -15 2 -16 10 -3 8
13 11 13 22 1 10 -11 10 -14 1 -18 -19 -7 -16 -24 3 -21 9 2 21 -5 28 -15 9
-15 8 -20 -7 -28 -20 -11 -14 -31 7 -23 7 3 16 -2 19 -10 7 -19 -1 -46 -14
-46 -5 0 -9 -5 -9 -10 0 -6 8 -10 18 -8 12 2 17 -4 17 -22 0 -20 -5 -25 -22
-23 -15 2 -23 -3 -23 -12 0 -8 5 -15 10 -15 14 0 12 -23 -4 -45 -9 -13 -18
-16 -32 -10 -18 8 -27 11 -47 14 -5 0 1 13 12 27 25 31 45 125 37 169 -7 34
-41 85 -57 85 -5 0 1 -14 13 -31 39 -52 29 -165 -19 -221 -13 -15 -21 -11 -95
44 -79 59 -80 60 -94 39 -19 -27 -34 -27 -34 -1 0 12 7 20 17 20 13 0 14 3 5
12 -16 16 -15 28 3 28 8 0 15 -8 15 -17 0 -12 18 1 53 40 45 50 135 116 160
117 4 0 7 -8 7 -17z m558 -2 c20 -10 45 -28 55 -39 18 -20 18 -21 -2 -32 -26
-14 -27 -26 -1 -33 24 -6 26 -29 5 -47 -11 -9 -12 -16 -5 -25 8 -10 -3 -24
-46 -59 -57 -47 -85 -57 -44 -16 16 16 21 29 16 51 -3 15 -1 31 4 34 6 3 10
17 10 30 0 13 -4 27 -10 30 -5 3 -7 20 -3 37 4 22 2 34 -9 42 -13 9 -22 46
-11 46 2 0 20 -9 41 -19z m120 -116 c-14 -27 -39 -55 -50 -55 -5 0 -1 11 8 25
12 19 14 28 5 39 -6 7 -9 21 -5 29 5 15 8 15 29 -1 19 -14 21 -21 13 -37z
m-570 -16 c-3 -8 -7 -3 -11 10 -4 17 -3 21 5 13 5 -5 8 -16 6 -23z m616 7 c-4
-12 1 -14 20 -10 15 2 36 -1 49 -7 29 -15 77 -60 77 -73 0 -5 -15 4 -33 22
-32 31 -55 43 -42 22 3 -5 1 -10 -5 -10 -7 0 -10 7 -7 15 4 8 1 17 -5 21 -7 4
-8 3 -4 -4 4 -7 2 -12 -3 -12 -6 0 -11 6 -11 13 0 8 -4 7 -10 -3 -9 -13 -10
-13 -10 0 0 11 -3 10 -11 -4 -8 -13 -7 -28 4 -57 9 -22 12 -37 7 -34 -27 17
-44 135 -19 135 5 0 6 -7 3 -14z m80 -91 c54 -61 82 -105 65 -105 -13 0 -25
14 -71 82 -17 27 -33 46 -35 44 -6 -6 16 -46 43 -79 34 -40 30 -55 -5 -21 -16
16 -39 51 -50 77 -25 58 -25 56 -6 53 8 -1 34 -24 59 -51z m56 -19 c48 -56 40
-71 -9 -16 -28 30 -50 59 -51 64 0 11 28 -12 60 -48z m-610 -150 c0 -3 -4 -8
-10 -11 -5 -3 -10 -1 -10 4 0 6 5 11 10 11 6 0 10 -2 10 -4z m32 -38 c-9 -9
-12 -7 -12 12 0 19 3 21 12 12 9 -9 9 -15 0 -24z m-51 10 c0 -7 3 -25 5 -40 4
-22 1 -26 -11 -22 -11 4 -12 11 -5 24 15 27 -2 34 -22 8 -10 -13 -18 -18 -18
-13 0 13 32 55 43 55 4 0 7 -6 8 -12z m29 -4 c0 -8 -4 -12 -10 -9 -5 3 -10 10
-10 16 0 5 5 9 10 9 6 0 10 -7 10 -16z m4 -39 c-4 -8 -8 -15 -10 -15 -2 0 -4
7 -4 15 0 8 4 15 10 15 5 0 7 -7 4 -15z m36 -9 c0 -8 -10 -17 -22 -20 -23 -6
-23 -7 -4 -21 27 -20 42 -19 25 2 -12 14 -12 16 1 11 8 -2 15 -12 15 -22 0 -9
7 -21 15 -26 8 -5 11 -12 7 -17 -5 -4 -13 -1 -18 7 -8 11 -12 12 -16 3 -8 -21
-25 -14 -18 7 4 14 2 20 -8 20 -32 0 -27 49 5 50 4 0 4 7 1 17 -4 11 -3 14 5
9 7 -4 12 -13 12 -20z m-130 -20 c0 -2 -7 -9 -15 -16 -13 -11 -14 -10 -9 4 5
14 24 23 24 12z m44 -10 c-5 -13 -34 -31 -34 -21 0 5 30 35 35 35 3 0 2 -6 -1
-14z m525 -44 c36 -32 83 -71 104 -86 20 -16 37 -33 37 -39 0 -19 -52 -87 -66
-87 -16 0 -18 24 -4 50 8 15 4 24 -23 49 -86 81 -106 90 -140 68 -21 -13 -25
-13 -49 8 l-26 22 36 37 c20 20 43 36 51 36 8 0 44 -26 80 -58z m-129 44 c0
-2 -8 -10 -17 -17 -16 -13 -17 -12 -4 4 13 16 21 21 21 13z m-445 -43 c3 -10
1 -19 -4 -21 -6 -2 -11 -10 -11 -18 0 -8 -4 -14 -10 -14 -11 0 -1 32 14 42 6
4 0 11 -14 17 -23 9 -23 10 -4 10 12 1 25 -7 29 -16z m-45 -26 c0 -9 -39 -81
-40 -73 0 18 24 76 32 76 4 0 8 -1 8 -3z m210 -61 c-1 -6 -10 0 -20 13 -11 13
-20 28 -20 35 1 6 10 0 20 -13 11 -13 20 -28 20 -35z m39 10 c15 -18 15 -18
-6 -7 -14 7 -23 21 -22 34 0 15 2 17 6 7 3 -8 13 -24 22 -34z m366 -21 c41
-44 63 -85 45 -85 -5 0 -29 18 -54 39 -25 22 -56 47 -68 56 -20 13 -21 17 -8
25 27 17 41 11 85 -35z m-705 5 c32 -16 61 -34 65 -40 11 -18 -6 -50 -27 -50
-17 0 -18 3 -8 15 10 12 8 16 -15 25 -15 6 -31 8 -36 5 -22 -14 -76 44 -62 68
7 12 21 8 83 -23z m110 21 c0 -6 -4 -13 -10 -16 -5 -3 -10 1 -10 9 0 9 5 16
10 16 6 0 10 -4 10 -9z m213 -36 c-3 -9 -8 -14 -10 -11 -3 3 -2 9 2 15 9 16
15 13 8 -4z m-225 -7 c-2 -5 -8 -9 -13 -9 -5 0 -11 4 -13 9 -1 5 4 9 13 9 9 0
14 -4 13 -9z m282 -18 c0 -12 -6 -20 -12 -19 -27 3 -37 -2 -43 -19 -3 -11 -17
-24 -31 -31 -14 -6 -22 -16 -18 -22 4 -7 -1 -10 -11 -7 -30 5 -28 25 5 55 31
27 87 62 103 63 4 0 7 -9 7 -20z m-65 -80 c-3 -5 -11 -10 -16 -10 -6 0 -7 5
-4 10 3 6 11 10 16 10 6 0 7 -4 4 -10z"/>
<path d="M3145 2210 c-3 -6 1 -7 9 -4 18 7 21 14 7 14 -6 0 -13 -4 -16 -10z"/>
<path d="M2706 2054 c-31 -31 -7 -94 36 -94 23 0 48 33 48 63 0 42 -54 62 -84
31z m36 -3 c-10 -6 -9 -10 7 -14 25 -6 28 -27 4 -27 -15 0 -16 2 -3 10 11 8 9
9 -12 8 -21 -2 -28 -8 -28 -23 0 -17 2 -18 11 -5 7 10 9 11 7 2 -6 -21 -23
-15 -26 10 -4 21 20 48 42 48 6 0 5 -4 -2 -9z m15 -77 c-3 -3 -12 -4 -19 -1
-8 3 -5 6 6 6 11 1 17 -2 13 -5z"/>
<path d="M2797 1479 c12 -12 25 -20 28 -17 3 3 -7 13 -22 23 l-28 17 22 -23z"/>
<path d="M2278 2308 c-7 -13 -18 -32 -24 -43 -6 -11 -15 -19 -21 -18 -6 1 -10
-5 -9 -14 0 -8 -8 -20 -19 -27 -27 -15 -35 -27 -34 -51 1 -11 -6 -37 -15 -57
-26 -61 -22 -73 32 -86 26 -6 67 -14 92 -17 101 -12 126 -17 153 -27 30 -11
34 -23 13 -35 -7 -4 -21 -21 -29 -38 -9 -16 -24 -40 -34 -53 -16 -20 -21 -21
-38 -9 -18 14 -16 16 22 41 73 48 79 111 8 81 -32 -14 -55 -48 -43 -63 8 -10
6 -17 -10 -28 -28 -20 -28 -30 3 -50 33 -21 56 -12 85 37 14 22 33 45 43 50 9
5 17 15 17 22 0 7 10 17 22 22 23 10 70 93 62 107 -3 5 -23 17 -45 29 -22 11
-43 28 -46 37 -4 9 -14 23 -22 30 -14 12 -14 13 4 8 18 -6 19 -5 3 7 -26 20
-108 129 -108 143 0 11 -21 24 -40 24 -5 0 -15 -10 -22 -22z m18 -30 c-2 -7
-7 -22 -12 -33 -4 -11 -8 -26 -10 -33 -4 -20 -9 -23 -27 -16 -13 5 -13 8 4 25
11 11 24 31 29 44 10 25 22 35 16 13z m76 -57 c12 -20 39 -59 59 -86 l37 -51
-29 -32 c-24 -26 -34 -31 -56 -26 -17 5 -24 3 -20 -3 8 -12 -108 -10 -164 2
l-33 8 25 21 c34 27 96 136 111 192 11 41 13 43 30 27 10 -9 28 -33 40 -52z
m-125 -46 c2 -6 -2 -19 -9 -28 -12 -15 -16 -16 -32 -4 -25 19 -14 50 16 45 12
-2 23 -8 25 -13z m-56 -98 c-28 -28 -36 -16 -16 24 15 29 18 30 27 15 8 -14 5
-23 -11 -39z m348 -33 c1 -2 -7 -21 -20 -44 -15 -25 -28 -39 -37 -35 -7 3 -18
5 -23 5 -4 0 -6 6 -3 14 3 7 -2 16 -11 20 -15 5 -13 11 12 39 29 35 31 35 82
1z m-132 -40 c-3 -3 -12 -4 -19 -1 -8 3 -5 6 6 6 11 1 17 -2 13 -5z m-7 -67
c0 -2 -10 -12 -22 -23 l-23 -19 19 23 c18 21 26 27 26 19z"/>
<path d="M2150 2282 c0 -17 30 -75 36 -69 3 3 -4 22 -15 44 -11 21 -20 32 -21
25z"/>
<path d="M2110 2210 c40 -22 50 -24 50 -11 0 5 -14 14 -31 20 -49 17 -58 12
-19 -9z"/>
<path d="M2110 2144 l-25 -15 30 6 c17 4 34 11 40 16 15 15 -17 10 -45 -7z"/>
<path d="M2470 1403 c-21 -15 -49 -18 -182 -18 -87 0 -158 -3 -158 -7 0 -4 70
-7 157 -7 121 0 163 4 186 16 22 11 42 13 71 8 72 -13 196 -20 214 -13 22 8
23 8 -78 13 -47 2 -98 9 -114 14 -39 16 -68 14 -96 -6z"/>
<path d="M2570 1291 c-47 -3 -78 -9 -70 -12 8 -3 65 -2 125 3 61 4 124 6 140
3 32 -5 194 -18 235 -18 166 -3 370 5 365 13 -4 7 -81 10 -213 9 -114 -1 -272
0 -352 3 -80 3 -183 3 -230 -1z"/>
<path d="M1234 1225 c-39 -60 -22 -173 36 -232 60 -61 166 -91 239 -68 16 5
21 2 21 -12 0 -10 15 -41 33 -68 75 -116 227 -140 344 -56 40 29 83 100 83
137 0 28 -37 84 -56 84 -13 0 -11 -6 10 -25 51 -47 30 -126 -50 -184 -115 -85
-256 -55 -332 70 -29 48 -28 55 13 93 51 48 45 106 -11 106 -33 0 -48 -26 -47
-80 l1 -49 -43 -7 c-53 -8 -132 16 -176 54 -78 65 -93 218 -25 250 l21 11 -22
0 c-13 1 -29 -9 -39 -24z m356 -185 c12 -23 -2 -51 -39 -76 -20 -14 -21 -14
-21 18 0 33 23 78 40 78 5 0 14 -9 20 -20z"/>
</g>
</svg>
