<?xml version="1.0" standalone="no"?>
<!DOCTYPE svg PUBLIC "-//W3C//DTD SVG 20010904//EN"
 "http://www.w3.org/TR/2001/REC-SVG-20010904/DTD/svg10.dtd">
<svg version="1.0" xmlns="http://www.w3.org/2000/svg"
 width="450.000000pt" height="450.000000pt" viewBox="0 0 450.000000 450.000000"
 preserveAspectRatio="xMidYMid meet">
<metadata>
Created by potrace 1.10, written by Peter Selinger 2001-2011
</metadata>
<g transform="translate(0.000000,450.000000) scale(0.100000,-0.100000)"
fill="#000000" stroke="none">
<path d="M2501 3671 c-16 -11 -17 -61 -2 -90 6 -11 11 -53 11 -94 0 -66 -2
-75 -20 -80 -28 -7 -25 -36 10 -117 34 -76 37 -100 15 -100 -8 0 -15 -8 -15
-18 0 -10 -11 -28 -25 -40 -25 -22 -27 -22 -80 -7 -62 19 -164 21 -193 6 -23
-12 -37 -45 -27 -61 10 -17 25 -11 25 9 0 53 161 36 302 -32 172 -85 291 -249
331 -459 18 -96 12 -109 -40 -84 -21 10 -64 27 -97 37 -116 37 -130 52 -185
194 -43 112 -102 183 -213 256 -49 32 -94 56 -99 53 -5 -3 -22 6 -38 19 -84
71 -344 89 -466 33 -33 -15 -71 -37 -84 -49 -13 -12 -21 -17 -17 -10 4 7 -4
18 -20 26 -17 9 -23 17 -15 21 21 13 11 43 -30 90 -48 54 -72 58 -99 14 l-19
-32 -16 38 c-13 31 -15 58 -10 140 8 115 -1 137 -53 140 -17 1 -37 7 -44 14
-17 17 -65 15 -72 -3 -4 -12 -10 -14 -25 -5 -44 23 -112 -6 -98 -43 4 -12 0
-12 -31 -1 -52 18 -107 17 -123 -2 -21 -25 26 -59 106 -77 81 -19 112 -38 131
-82 26 -62 14 -69 -62 -35 -34 16 -49 18 -64 10 -66 -35 38 -113 174 -132 76
-10 113 -31 86 -48 -8 -5 -19 -11 -25 -13 -12 -4 7 -42 41 -82 18 -21 27 -26
35 -18 8 8 4 21 -15 46 l-27 35 38 30 c21 17 54 51 73 76 19 25 37 45 40 45 3
0 18 -17 33 -40 l29 -40 -37 -44 c-20 -25 -56 -59 -81 -75 -46 -33 -60 -62
-23 -53 14 4 31 -4 54 -27 39 -38 37 -46 -27 -86 -22 -14 -44 -39 -53 -60 -8
-20 -25 -49 -37 -65 -57 -72 -68 -88 -68 -95 0 -15 49 39 60 67 7 16 16 29 21
29 4 0 -8 -35 -28 -77 -42 -95 -72 -221 -67 -294 5 -80 -16 -24 -23 63 -5 53
-2 73 11 92 9 14 16 31 16 38 -1 24 -50 -67 -50 -92 0 -51 31 -166 60 -226 33
-68 34 -74 21 -74 -5 0 -14 12 -20 28 -13 35 -30 56 -59 71 -30 16 -55 7 -91
-34 -17 -19 -32 -35 -35 -35 -2 0 -6 10 -10 23 -3 13 -28 43 -56 66 -28 23
-60 61 -72 84 -11 23 -52 77 -89 120 -71 79 -83 107 -50 107 23 0 38 -17 76
-89 38 -71 57 -75 85 -20 21 41 22 41 63 35 41 -7 57 -19 57 -43 0 -15 -16
-17 -25 -3 -11 18 -54 11 -75 -12 -26 -29 -26 -63 2 -82 42 -30 94 -12 86 30
-4 23 13 28 37 10 18 -13 18 -17 5 -72 -15 -62 -15 -82 2 -99 6 -7 7 -1 3 16
-4 15 1 52 11 84 l17 59 -26 21 c-17 16 -23 29 -20 46 7 41 -17 61 -78 62 -53
2 -54 1 -72 -35 -10 -21 -22 -38 -26 -38 -4 0 -21 28 -37 61 -31 67 -60 92
-96 87 -20 -3 -23 -9 -22 -41 1 -21 -1 -35 -4 -32 -3 2 -11 0 -19 -6 -16 -14
-17 -51 -1 -68 11 -10 10 -15 -4 -25 -10 -7 -18 -18 -18 -24 0 -22 61 -54 116
-59 44 -5 57 -10 64 -27 9 -20 41 -52 123 -118 36 -29 37 -31 20 -50 -16 -18
-14 -21 49 -78 51 -46 73 -76 101 -134 60 -127 164 -243 231 -260 15 -4 26 -9
23 -12 -3 -3 -22 -1 -42 5 -33 9 -40 7 -61 -14 -34 -34 -33 -96 2 -142 31 -41
147 -118 204 -135 22 -7 40 -17 40 -22 0 -4 -7 -5 -15 -2 -8 3 -21 8 -28 11
-17 7 -114 -69 -122 -96 -9 -27 11 -49 45 -49 38 0 129 -74 137 -111 11 -58
29 -57 91 4 54 54 56 58 45 86 -9 24 -8 33 3 42 8 6 14 7 14 2 0 -34 236 -98
376 -102 151 -4 360 38 504 102 10 5 22 -3 35 -23 27 -41 49 -46 86 -19 27 19
33 20 56 8 15 -8 42 -39 61 -69 20 -30 44 -68 55 -85 27 -41 85 -85 115 -85
13 0 36 6 50 14 15 8 35 17 45 20 9 3 20 19 23 36 4 16 11 30 16 30 5 0 6 -5
2 -11 -4 -7 -1 -10 7 -7 19 6 35 66 23 86 -8 11 -6 25 4 45 13 26 13 31 -6 55
-20 28 -29 29 -96 16 l-39 -7 8 49 c16 107 0 164 -49 164 -42 0 -61 -34 -59
-105 1 -51 -2 -66 -18 -81 -18 -16 -22 -16 -54 -1 -45 21 -59 3 -21 -30 76
-65 161 11 136 122 -12 55 -2 77 28 59 20 -13 27 -69 14 -116 -5 -19 -5 -43 0
-57 8 -21 12 -23 51 -17 71 12 79 12 91 -6 15 -25 -3 -52 -38 -56 -32 -4 -29
-24 5 -32 15 -4 24 -13 24 -25 0 -16 -6 -20 -32 -17 -23 1 -33 -2 -33 -12 0
-8 5 -16 11 -18 7 -2 9 -13 5 -26 -8 -26 -51 -31 -60 -7 -3 8 -12 15 -21 15
-18 0 -20 -26 -2 -33 9 -3 9 -7 0 -17 -9 -10 -18 -10 -41 -1 -38 16 -70 51
-116 128 -20 34 -50 72 -66 83 l-29 21 46 46 47 46 -25 18 c-67 49 -63 42 -48
83 14 38 14 38 65 34 29 -2 50 0 48 4 -3 4 4 12 15 17 29 16 39 13 17 -4 -17
-13 -17 -15 -4 -15 18 0 58 45 58 64 0 6 11 28 25 49 22 32 31 37 63 37 21 0
47 7 58 16 19 15 19 16 -1 9 -11 -4 -37 -8 -58 -10 -21 -2 -46 -9 -55 -17 -15
-11 -21 -9 -51 20 l-33 32 28 -11 c16 -6 51 -11 78 -10 59 1 102 35 112 88 3
18 10 36 15 39 21 12 8 53 -21 71 -16 9 -30 22 -30 27 0 5 19 28 43 50 58 56
71 102 52 184 -14 60 -33 102 -46 102 -4 0 1 -16 12 -36 39 -78 37 -174 -7
-221 l-25 -28 22 42 c41 83 19 183 -56 256 -21 20 -33 37 -26 37 7 0 19 -7 27
-15 17 -17 94 -21 94 -4 0 5 4 7 10 4 5 -3 19 -1 31 5 16 9 20 19 17 40 -3 20
-1 27 9 23 23 -9 52 -76 46 -106 -8 -40 4 -75 29 -83 30 -9 55 24 64 84 3 26
10 55 15 64 19 37 102 45 225 22 41 -8 69 18 53 48 -13 24 -67 48 -111 48 -31
1 -32 1 -14 15 11 8 36 17 55 20 72 12 82 16 93 40 14 32 -4 55 -43 55 -35 0
-153 -46 -170 -66 -6 -8 -16 -14 -22 -14 -18 0 55 70 94 90 56 29 63 43 38 74
-34 44 -53 35 -148 -71 -16 -18 -34 -33 -40 -33 -17 0 -13 50 4 56 8 4 12 10
9 15 -3 5 -1 9 5 9 16 0 24 46 11 69 -13 26 -42 27 -62 4 -19 -22 -42 -117
-34 -139 3 -8 2 -13 -3 -10 -4 3 -17 -4 -27 -17 l-19 -22 23 19 c12 11 22 15
22 9 0 -19 -72 -73 -98 -73 -5 0 -9 8 -8 17 0 10 -8 19 -19 21 -11 2 -28 11
-38 20 -9 8 -27 20 -39 26 -15 8 -27 31 -39 74 -36 126 -84 205 -198 322 -109
111 -183 161 -243 162 -20 1 -26 4 -18 12 13 13 13 63 0 71 -5 3 -10 19 -10
34 0 15 -5 32 -10 37 -11 11 68 180 117 253 28 41 30 91 4 122 -29 35 -52 16
-70 -60 -10 -42 -17 -59 -25 -51 -5 5 -24 10 -40 10 -24 0 -27 -3 -16 -10 8
-5 10 -10 4 -10 -6 0 -17 7 -24 15 -15 18 -47 20 -53 3 -2 -7 -5 27 -6 77 -1
49 -7 101 -14 115 -13 26 -43 36 -66 21z m50 -13 c1 -2 4 -50 8 -108 l6 -105
30 1 c17 0 35 -7 42 -15 10 -14 15 -14 33 -3 19 12 24 11 35 -5 13 -17 14 -17
33 0 13 12 21 35 24 72 5 63 13 75 34 54 13 -14 13 -19 -1 -45 -8 -16 -15 -35
-15 -43 0 -8 -16 -43 -35 -78 -20 -36 -30 -61 -24 -58 8 5 8 1 -1 -14 -6 -12
-15 -19 -20 -16 -9 6 -50 -42 -50 -59 0 -6 9 4 21 23 28 47 32 34 6 -21 l-22
-47 -57 -1 c-56 0 -58 1 -58 26 0 15 -12 52 -26 84 -28 63 -29 97 -1 92 15 -3
17 7 17 76 0 46 -7 98 -15 123 -18 50 -14 69 15 69 11 0 21 -1 21 -2z m248
-202 c-9 -8 -10 -7 -5 7 3 10 7 24 7 30 1 7 3 4 6 -7 3 -10 -1 -23 -8 -30z
m-1519 2 c0 -5 4 -7 9 -3 6 3 14 -3 20 -12 6 -10 11 -12 11 -5 0 18 28 15 38
-5 5 -10 8 -40 6 -68 -6 -119 -5 -152 5 -178 12 -31 6 -51 -11 -41 -6 4 -8 2
-4 -4 11 -17 -12 -24 -47 -13 -17 5 -50 12 -72 15 -76 10 -97 17 -136 41 -61
39 -50 62 14 28 52 -27 101 -25 90 4 -5 12 -3 14 6 8 10 -6 11 -2 6 16 -3 13
-9 32 -12 42 -5 19 -52 70 -68 74 -90 23 -131 37 -142 48 -16 17 -17 29 -1 19
6 -4 23 -8 37 -10 14 -1 36 -5 48 -8 15 -3 26 1 32 12 9 15 11 15 28 -1 11 -9
23 -14 26 -10 4 3 -5 14 -19 24 -25 16 -25 18 -8 27 21 10 47 5 39 -8 -7 -11
36 0 59 16 19 13 46 9 46 -8z m1363 -336 c9 -2 17 1 17 7 0 6 -5 10 -12 9 -6
-2 -13 4 -15 12 -2 10 4 16 17 16 16 0 20 -7 20 -31 0 -17 5 -36 11 -42 7 -7
7 -21 1 -44 -6 -19 -11 -28 -11 -21 -2 23 -21 12 -21 -13 0 -24 -1 -24 -52 15
-29 22 -73 47 -98 55 -25 7 -37 14 -27 14 9 1 25 10 34 20 9 11 21 17 26 14 6
-4 8 1 4 10 -5 14 0 17 28 17 24 0 35 -5 38 -17 3 -13 5 -11 7 7 l2 25 7 -25
c4 -14 15 -26 24 -28z m-1263 -7 c-19 -19 -38 -35 -44 -35 -5 0 5 16 24 35 19
19 38 35 44 35 5 0 -5 -16 -24 -35z m635 -30 c33 -9 104 -39 159 -68 141 -73
212 -146 290 -295 32 -62 56 -116 53 -118 -3 -3 -22 -1 -44 5 -67 19 -179 13
-261 -13 -21 -7 -23 -6 -13 12 15 28 13 63 -4 86 -8 11 -15 27 -15 37 0 18
-63 79 -81 79 -6 0 4 -12 21 -27 17 -14 43 -51 56 -82 24 -53 24 -58 10 -89
-9 -18 -16 -39 -16 -47 0 -7 -4 -16 -9 -19 -4 -3 -8 8 -7 23 1 16 5 27 10 23
12 -7 -1 100 -16 133 -6 14 -26 35 -45 46 -18 11 -33 25 -33 30 0 20 -52 77
-80 89 -36 15 -96 5 -104 -17 -4 -9 -9 -13 -13 -10 -3 4 0 13 7 22 27 32 -6
12 -108 -69 -181 -141 -243 -235 -285 -426 -14 -63 -28 -131 -30 -150 -11 -82
31 -320 62 -351 9 -9 24 -27 35 -39 16 -20 16 -22 1 -17 -9 4 -22 7 -27 7 -6
0 -8 3 -5 7 7 7 -31 45 -101 102 -34 28 -49 53 -85 140 -77 184 -83 264 -31
431 60 193 151 312 316 413 58 36 68 38 125 35 45 -3 71 -10 92 -26 37 -27 37
-27 44 -1 3 12 10 18 17 14 8 -5 7 -12 -4 -24 -17 -19 -12 -31 11 -31 10 0 12
6 8 21 -5 16 -4 20 6 13 7 -4 36 -13 64 -19 39 -9 54 -18 70 -43 25 -40 41
-42 20 -3 -18 37 -52 61 -83 61 -34 0 -74 24 -116 70 -39 43 -81 66 -91 50 -4
-6 3 -10 14 -10 21 0 98 -66 88 -76 -3 -3 -20 4 -37 16 -39 28 -140 38 -194
20 -20 -6 -62 -33 -92 -59 l-56 -48 -34 33 -34 33 48 48 c45 46 51 48 70 35
l21 -14 -28 -36 c-29 -38 -45 -72 -34 -72 4 0 26 20 49 44 23 25 61 57 83 72
89 58 247 80 366 49z m726 -87 c135 -46 312 -239 377 -411 24 -64 52 -208 48
-247 -4 -37 -18 -90 -24 -90 -3 0 -26 19 -51 43 -26 23 -75 67 -110 97 -66 56
-111 129 -111 180 0 81 -73 256 -144 345 -17 22 -37 52 -44 68 -10 24 -9 27 7
27 10 0 33 -5 52 -12z m-282 -195 c16 -32 33 -82 21 -63 -20 30 -80 133 -80
137 0 8 46 -51 59 -74z m-479 51 c62 -41 66 -76 12 -92 -30 -9 -62 -37 -143
-128 -96 -107 -127 -155 -127 -194 0 -8 5 -1 11 17 12 31 50 80 132 167 22 24
48 55 58 70 15 22 83 66 102 66 3 0 -13 -18 -35 -40 -59 -59 -181 -226 -213
-292 -42 -86 -60 -185 -61 -333 -1 -140 5 -166 56 -243 15 -24 28 -45 28 -48
0 -5 -58 2 -138 17 -99 19 -116 49 -142 249 -30 225 48 508 174 634 23 23 41
44 41 49 0 4 2 6 5 5 3 -2 28 14 57 35 28 20 55 37 60 37 6 0 20 9 33 20 28
24 57 25 90 4z m-584 -76 c-11 -15 -16 -18 -16 -7 0 16 21 42 28 34 2 -2 -3
-14 -12 -27z m674 -8 c0 -5 -5 -10 -11 -10 -5 0 -7 5 -4 10 3 6 8 10 11 10 2
0 4 -4 4 -10z m40 -62 c10 -24 20 -68 22 -98 3 -51 1 -54 -22 -60 -19 -4 -35
-25 -65 -82 -22 -41 -46 -85 -53 -97 -7 -11 -9 -21 -4 -21 9 0 92 142 92 158
0 14 39 36 48 27 9 -8 -22 -61 -31 -55 -12 7 -64 -87 -84 -150 -21 -69 -21
-225 0 -295 8 -27 19 -61 23 -74 5 -17 4 -22 -4 -17 -12 7 -26 53 -48 156 -17
79 -18 117 -3 159 6 18 9 34 6 37 -3 3 -13 -18 -22 -46 -15 -44 -16 -60 -5
-112 23 -119 61 -215 80 -203 4 2 15 -14 25 -35 18 -39 18 -41 -1 -55 -29 -21
-149 -48 -182 -40 -41 9 -60 33 -89 112 -62 171 -32 380 86 584 44 76 47 84
29 73 -7 -4 -8 -3 -4 5 4 6 11 9 16 6 4 -3 27 19 51 47 60 75 101 118 112 118
4 0 16 -19 27 -42z m1385 -88 c3 -6 -1 -7 -9 -4 -18 7 -21 14 -7 14 6 0 13 -4
16 -10z m-24 -78 c-48 -103 -8 -118 83 -33 68 63 85 71 105 47 9 -11 1 -20
-42 -44 -30 -17 -66 -45 -81 -63 -24 -28 -25 -34 -13 -46 13 -13 20 -12 53 11
76 50 169 71 181 41 8 -22 0 -27 -58 -36 -51 -8 -139 -52 -139 -69 0 -6 27
-10 60 -10 63 0 105 -14 114 -37 8 -21 -18 -26 -74 -14 -73 16 -119 13 -167
-8 -40 -18 -42 -23 -54 -80 -13 -69 -30 -98 -49 -86 -8 5 -10 21 -6 51 7 52
-23 121 -58 133 -16 6 -21 17 -21 44 0 32 3 36 32 42 42 8 93 66 94 108 1 18
2 37 4 42 1 6 3 18 3 27 3 25 33 51 45 39 7 -7 4 -25 -12 -59z m-916 48 c3 -5
1 -10 -4 -10 -6 0 -11 5 -11 10 0 6 2 10 4 10 3 0 8 -4 11 -10z m-985 -45 c-7
-8 -23 -47 -36 -87 -25 -79 -33 -72 -9 8 20 68 49 127 53 108 2 -8 -2 -21 -8
-29z m905 20 c116 -16 132 -21 162 -48 12 -10 41 -23 65 -28 24 -5 53 -10 65
-13 55 -12 173 -94 264 -185 107 -108 166 -189 174 -241 l5 -35 -13 36 c-6 21
-19 45 -28 55 -9 11 -21 28 -27 39 -9 16 -11 17 -12 4 0 -9 9 -28 21 -43 29
-37 50 -128 35 -157 -6 -12 -18 -24 -26 -26 -10 -3 -8 1 4 11 24 20 7 21 -19
2 -11 -8 -26 -11 -35 -8 -8 3 -58 46 -110 97 -113 108 -161 142 -283 200 -149
70 -398 145 -481 145 -32 0 -74 45 -82 86 -12 67 63 124 166 124 30 0 100 -7
155 -15z m220 -50 c33 -12 36 -14 14 -15 -14 0 -34 7 -45 15 -24 18 -19 18 31
0z m-853 -37 c-27 -45 -69 -164 -77 -222 -4 -26 -10 -45 -12 -42 -23 23 73
296 104 296 3 0 -4 -15 -15 -32z m1046 -20 l21 -38 -34 22 c-27 19 -32 26 -23
41 5 10 11 17 12 15 1 -1 12 -20 24 -40z m-2108 3 c0 -22 48 -64 65 -57 11 4
62 -61 54 -68 -2 -2 -25 -1 -51 3 -52 8 -102 36 -92 52 4 7 15 2 28 -10 12
-12 30 -21 39 -21 31 0 18 29 -22 49 -47 25 -71 71 -36 71 8 0 15 -9 15 -19z
m1344 1 c-5 -4 -20 -22 -33 -40 -28 -40 -42 -35 -16 5 20 31 47 54 55 47 2 -3
0 -8 -6 -12z m1137 -62 c15 0 18 -7 16 -45 -1 -27 -7 -45 -14 -45 -7 0 -10 7
-7 15 4 8 1 15 -5 15 -6 0 -11 -16 -11 -35 0 -19 4 -35 10 -35 5 0 7 7 3 16
-4 11 -2 15 7 12 19 -6 22 -45 4 -52 -8 -3 -12 -2 -9 4 3 6 1 10 -5 10 -6 0
-13 -7 -16 -15 -4 -9 -19 -15 -36 -15 -25 0 -29 3 -23 18 22 52 26 144 8 206
-3 12 6 6 27 -17 18 -20 40 -37 51 -37z m-1121 34 c0 -8 -4 -12 -10 -9 -5 3
-10 10 -10 16 0 5 5 9 10 9 6 0 10 -7 10 -16z m-1093 -46 c2 -34 -1 -38 -21
-38 -35 0 -52 25 -37 56 8 18 18 24 33 22 18 -2 23 -10 25 -40z m1106 12 c15
-7 27 -17 27 -22 0 -4 -9 -3 -20 4 -15 10 -23 10 -28 2 -4 -6 -17 -15 -30 -19
-13 -4 -33 -21 -44 -38 -18 -29 -19 -29 -14 -7 3 14 6 28 6 32 0 4 8 9 18 13
11 3 24 17 31 31 6 14 14 24 19 22 4 -2 19 -10 35 -18z m-1327 -28 c-4 -3 -14
2 -24 12 -16 18 -16 18 6 6 13 -6 21 -14 18 -18z m679 -44 c-4 -24 -11 -88
-16 -143 l-8 -100 5 115 c4 111 11 170 21 170 3 0 2 -19 -2 -42z m734 2 c9 -5
56 -19 104 -30 125 -30 245 -75 294 -110 23 -17 44 -30 48 -30 3 0 21 -11 38
-24 18 -13 70 -44 117 -69 47 -26 96 -58 108 -72 13 -14 27 -23 32 -20 14 9
93 -76 96 -103 2 -13 14 -41 27 -61 36 -54 43 -96 21 -129 l-17 -27 21 19 c34
29 29 80 -14 149 -45 72 -39 85 9 19 47 -63 56 -90 45 -129 -10 -37 -57 -80
-69 -62 -4 8 -21 10 -47 6 -34 -6 -52 0 -138 44 -54 28 -115 61 -134 73 -19
13 -109 63 -200 111 -220 117 -230 123 -267 151 -17 13 -36 24 -42 24 -6 0
-11 5 -11 10 0 6 -17 18 -37 27 -76 35 -191 146 -180 175 2 8 10 1 17 -14 15
-32 35 -38 26 -8 -3 11 -9 29 -12 39 -10 32 31 64 74 58 21 -3 29 -3 20 -1
-10 3 -18 9 -18 14 0 8 50 -9 89 -30z m131 -10 c8 -5 11 -10 5 -10 -5 0 -17 5
-25 10 -8 5 -10 10 -5 10 6 0 17 -5 25 -10z m110 -31 c30 -11 90 -33 134 -49
43 -16 108 -46 145 -66 74 -41 236 -167 221 -172 -6 -2 -7 -9 -4 -14 4 -7 2
-8 -5 -4 -6 4 -9 11 -7 15 7 11 -64 72 -74 66 -5 -3 -39 11 -77 31 -81 42
-110 67 -36 30 72 -36 89 -32 28 6 -67 42 -156 83 -295 134 -63 24 -108 43
-100 44 8 0 40 -9 70 -21z m-459 -62 c-10 -9 -11 -8 -5 6 3 10 9 15 12 12 3
-3 0 -11 -7 -18z m61 -67 c5 0 6 -5 3 -11 -4 -6 -13 -8 -21 -5 -8 3 -11 0 -8
-9 4 -11 12 -12 31 -4 36 13 41 4 6 -13 -15 -7 -36 -29 -45 -48 -14 -28 -18
-30 -18 -13 0 12 -3 29 -7 39 -5 13 -3 16 10 11 12 -4 17 -1 17 9 0 10 -6 14
-15 10 -17 -6 -21 9 -5 19 6 3 10 11 10 16 0 6 -4 7 -10 4 -5 -3 -10 3 -10 14
0 12 5 21 10 21 6 0 9 3 9 8 -4 26 4 21 18 -10 8 -21 19 -38 25 -38z m-835
-15 c32 -30 53 -55 46 -55 -6 0 -15 5 -18 10 -12 19 -65 11 -91 -15 -21 -21
-24 -32 -19 -58 l6 -32 -17 33 c-9 18 -30 40 -45 47 -15 8 -31 20 -35 26 -7
13 82 99 103 99 6 0 38 -25 70 -55z m500 -12 c-3 -10 -5 -2 -5 17 0 19 2 27 5
18 2 -10 2 -26 0 -35z m512 -108 c99 -65 136 -92 190 -137 7 -6 34 -25 60 -43
43 -28 75 -43 236 -107 162 -65 265 -135 265 -180 0 -11 -13 -32 -28 -48 -57
-56 -198 -50 -367 17 -91 35 -102 42 -230 126 -65 43 -205 174 -256 240 -12
15 -24 26 -27 23 -2 -3 1 -12 7 -20 7 -8 11 -22 9 -30 -2 -9 -10 2 -20 24 -9
22 -12 38 -7 35 15 -10 10 4 -13 36 -26 34 -26 93 -1 121 29 32 64 21 182 -57z
m-964 42 c-8 -20 67 -137 115 -179 51 -45 204 -114 288 -129 38 -7 74 -7 117
0 34 6 91 11 126 11 67 0 132 23 158 53 19 24 35 21 51 -8 8 -14 33 -42 57
-61 55 -45 55 -66 1 -89 -24 -10 -57 -24 -75 -31 -17 -8 -42 -14 -55 -14 -18
0 -20 -2 -8 -10 11 -7 11 -10 2 -10 -7 0 -10 -5 -6 -12 4 -6 3 -8 -3 -5 -6 4
-48 -3 -94 -14 -184 -47 -384 -6 -538 109 -56 42 -146 131 -139 138 4 3 31
-16 60 -44 64 -60 160 -133 167 -127 2 3 2 7 0 8 -2 2 -31 26 -64 52 -33 27
-72 60 -86 74 -14 14 -39 33 -55 41 -43 22 -50 32 -58 72 -4 21 -12 40 -17 44
-7 4 -9 -2 -5 -17 3 -13 -6 1 -20 31 -18 39 -24 63 -19 86 6 37 15 42 67 43
26 1 36 -3 33 -12z m32 -19 c-3 -8 -6 -5 -6 6 -1 11 2 17 5 13 3 -3 4 -12 1
-19z m443 -127 c0 -3 -4 -1 -10 5 -5 5 -12 32 -15 59 l-5 50 15 -55 c8 -30 14
-57 15 -59z m740 -25 c19 -14 34 -22 147 -80 51 -26 96 -53 100 -59 4 -6 -10
-1 -31 11 -20 12 -69 36 -108 52 -39 17 -98 48 -130 70 -32 22 -62 40 -66 40
-5 0 -17 10 -28 21 -15 18 -8 16 41 -11 33 -18 67 -38 75 -44z m-993 32 c-3
-8 -6 -5 -6 6 -1 11 2 17 5 13 3 -3 4 -12 1 -19z m-37 -54 c0 -9 -64 34 -68
46 -3 7 12 1 32 -15 20 -15 36 -29 36 -31z m1700 28 c0 -5 -8 -16 -17 -25 -17
-14 -20 -14 -43 5 l-24 20 38 -8 c28 -5 37 -4 32 5 -4 6 -2 11 3 11 6 0 11 -4
11 -8z m30 -130 c0 -13 -3 -12 -15 4 -19 25 -19 40 0 24 8 -7 15 -20 15 -28z
m-1370 18 c0 -5 -8 -10 -17 -10 -15 0 -16 2 -3 10 19 12 20 12 20 0z m-102 -7
c-10 -2 -28 -2 -40 0 -13 2 -5 4 17 4 22 1 32 -1 23 -4z m542 -93 c0 -5 -4
-10 -10 -10 -5 0 -10 5 -10 10 0 6 5 10 10 10 6 0 10 -4 10 -10z m50 -51 c14
-10 48 -31 75 -45 104 -54 109 -79 32 -143 -126 -106 -265 -146 -494 -144
-122 1 -153 -1 -153 -12 0 -32 342 -32 450 1 81 24 143 58 213 117 34 29 76
61 92 71 29 17 32 17 80 -4 28 -12 78 -26 113 -30 35 -5 66 -11 69 -14 12 -12
-21 -67 -63 -106 -63 -58 -186 -114 -322 -147 -100 -24 -136 -28 -247 -27
-213 2 -383 51 -428 123 l-21 34 27 -17 c25 -17 26 -17 24 2 -1 15 -14 21 -62
31 -33 7 -71 19 -83 28 -13 8 -26 12 -29 9 -8 -7 -111 51 -171 97 -73 55 -101
114 -70 145 19 19 53 14 117 -19 150 -75 388 -103 536 -61 106 30 247 99 244
120 -5 28 28 24 71 -9z m-101 -2 c-33 -19 -123 -57 -126 -54 -2 3 21 17 51 31
30 14 58 31 62 38 6 9 9 9 12 -1 2 -7 2 -13 1 -14z m854 6 c-7 -2 -19 -2 -25
0 -7 3 -2 5 12 5 14 0 19 -2 13 -5z m-1116 -109 c-3 -3 -12 -4 -19 -1 -8 3 -5
6 6 6 11 1 17 -2 13 -5z m573 -4 c17 -11 14 -15 -20 -25 -21 -7 -23 -6 -13 7
7 8 10 18 6 21 -10 10 10 8 27 -3z m-627 -7 c-7 -2 -19 -2 -25 0 -7 3 -2 5 12
5 14 0 19 -2 13 -5z m897 -191 c0 -5 11 -14 24 -21 l23 -13 -21 -22 c-11 -13
-41 -37 -65 -55 l-45 -32 -24 26 c-13 15 -22 27 -21 29 51 31 87 60 97 76 12
20 32 27 32 12z m-1129 -122 c16 -19 29 -39 29 -45 0 -5 -15 -28 -34 -50 l-33
-39 -13 24 c-18 35 -78 88 -125 112 -22 11 -42 22 -44 24 -2 2 14 23 35 47
l39 43 59 -40 c32 -22 71 -56 87 -76z m-4 99 c30 -9 43 -19 48 -36 9 -39 -5
-47 -34 -20 -14 13 -38 32 -53 42 -28 17 -39 42 -15 31 6 -3 31 -11 54 -17z"/>
<path d="M1120 3395 c7 -9 15 -13 17 -11 7 7 -7 26 -19 26 -6 0 -6 -6 2 -15z"/>
<path d="M2550 3138 c0 -4 9 -8 20 -8 11 0 20 4 20 9 0 6 -9 9 -20 8 -11 -1
-20 -5 -20 -9z"/>
<path d="M1502 2598 c-11 -13 -25 -41 -31 -63 -5 -22 -19 -66 -31 -98 -24 -64
-22 -86 2 -35 35 74 48 110 48 135 0 16 11 39 27 55 15 15 22 28 17 28 -6 0
-20 -10 -32 -22z"/>
<path d="M1417 2286 c-8 -105 26 -333 53 -360 9 -8 9 -5 1 14 -16 38 -43 286
-37 328 4 20 2 51 -2 67 -7 25 -10 17 -15 -49z"/>
<path d="M2744 2933 c18 -32 59 -103 91 -158 53 -92 57 -105 57 -160 -1 -87
13 -96 15 -10 l3 72 -64 106 c-35 57 -76 128 -91 156 -16 28 -32 51 -36 51 -4
0 7 -26 25 -57z"/>
<path d="M2967 2464 c110 -105 128 -121 157 -140 65 -41 21 4 -150 154 -70 61
-76 52 -7 -14z"/>
<path d="M1685 2344 c-26 -70 -27 -83 -21 -167 15 -214 41 -347 68 -347 7 0 6
5 -1 14 -19 23 -40 156 -47 299 -6 122 -5 139 16 201 31 93 19 94 -15 0z"/>
<path d="M2090 2494 c0 -8 5 -12 10 -9 6 3 10 10 10 16 0 5 -4 9 -10 9 -5 0
-10 -7 -10 -16z"/>
<path d="M1981 2324 c0 -11 3 -14 6 -6 3 7 2 16 -1 19 -3 4 -6 -2 -5 -13z"/>
<path d="M2815 2424 c28 -26 79 -70 115 -97 36 -27 70 -54 75 -61 6 -6 28 -25
50 -41 31 -23 26 -16 -21 30 -59 58 -146 130 -229 188 -38 27 -37 26 10 -19z"/>
<path d="M3240 2370 c0 -11 4 -20 9 -20 6 0 9 9 8 20 -1 11 -5 20 -9 20 -4 0
-8 -9 -8 -20z"/>
<path d="M2106 2393 c-6 -14 -5 -15 5 -6 7 7 10 15 7 18 -3 3 -9 -2 -12 -12z"/>
<path d="M2250 2113 c93 -88 109 -98 205 -127 124 -38 128 -39 121 -27 -4 6
-14 11 -23 11 -29 0 -169 54 -208 81 -22 15 -64 50 -94 78 -30 28 -59 51 -63
51 -5 0 23 -30 62 -67z"/>
<path d="M2605 1941 c30 -34 118 -90 152 -97 18 -4 36 -17 47 -35 10 -16 22
-27 27 -23 16 10 -34 63 -71 73 -19 6 -60 28 -90 49 -77 53 -88 59 -65 33z"/>
<path d="M2860 2085 c7 -8 17 -15 22 -15 6 0 5 7 -2 15 -7 8 -17 15 -22 15 -6
0 -5 -7 2 -15z"/>
<path d="M1540 1640 c8 -5 22 -9 30 -9 10 0 8 3 -5 9 -27 12 -43 12 -25 0z"/>
<path d="M1635 1609 c28 -11 69 -24 93 -28 50 -10 266 3 302 18 24 11 24 11
-5 7 -16 -3 -86 -8 -155 -11 -109 -6 -133 -4 -190 14 -83 26 -111 26 -45 0z"/>
<path d="M2432 1531 c18 -30 -3 -65 -58 -97 -65 -38 -258 -83 -358 -84 -96 0
-96 -6 -1 -13 153 -10 379 66 428 144 11 18 2 69 -13 69 -6 0 -5 -8 2 -19z"/>
<path d="M1530 1425 c25 -26 47 -37 89 -45 31 -6 72 -17 91 -24 19 -8 64 -16
100 -20 l65 -6 -55 16 c-30 8 -78 22 -106 29 -28 8 -67 15 -87 15 -28 0 -46 8
-76 35 -50 45 -65 45 -21 0z"/>
<path d="M1893 1333 c9 -2 23 -2 30 0 6 3 -1 5 -18 5 -16 0 -22 -2 -12 -5z"/>
<path d="M1652 1156 c1 -10 8 -17 13 -17 15 1 12 24 -3 29 -9 3 -13 -2 -10
-12z"/>
<path d="M1240 3535 c-8 -9 -22 -12 -41 -8 -18 3 -29 1 -29 -6 0 -15 55 -14
80 1 16 10 24 10 43 -1 63 -40 70 -41 33 -7 -42 39 -66 45 -86 21z"/>
<path d="M1394 3474 c11 -10 15 -27 11 -52 -2 -20 -6 -73 -9 -117 -3 -61 -2
-72 5 -45 5 19 11 73 14 119 4 81 -3 111 -27 111 -5 0 -2 -7 6 -16z"/>
<path d="M1467 3134 c-9 -10 2 -24 19 -24 8 0 14 7 14 15 0 15 -21 21 -33 9z"/>
<path d="M2230 3084 c0 -9 63 -55 143 -104 56 -35 118 -125 142 -207 9 -30 18
-53 20 -51 11 10 -22 110 -52 161 -33 54 -121 137 -146 137 -6 0 -20 8 -31 19
-32 28 -76 54 -76 45z"/>
<path d="M2550 2676 c0 -2 8 -10 18 -17 15 -13 16 -12 3 4 -13 16 -21 21 -21
13z"/>
<path d="M2580 2635 c0 -15 18 -40 24 -34 3 3 -1 14 -9 25 -8 10 -14 15 -15 9z"/>
<path d="M1257 2583 c-4 -3 -7 -16 -6 -27 0 -19 1 -19 10 3 10 24 8 36 -4 24z"/>
<path d="M3191 1644 c0 -11 3 -14 6 -6 3 7 2 16 -1 19 -3 4 -6 -2 -5 -13z"/>
<path d="M1180 1225 c-31 -37 20 -84 102 -94 l53 -6 -53 -33 c-63 -39 -80 -73
-59 -117 8 -16 18 -43 23 -60 8 -24 16 -31 41 -33 17 -2 34 -10 37 -18 7 -19
-18 -18 -49 2 -14 9 -25 13 -25 9 0 -15 35 -34 63 -35 16 0 48 -11 73 -25 46
-26 84 -33 84 -15 0 5 -6 7 -14 4 -15 -6 -70 25 -61 34 3 3 16 0 29 -7 36 -20
82 9 106 65 24 54 32 57 19 7 -6 -21 -24 -51 -42 -67 l-32 -28 32 16 c18 9 37
24 42 34 16 29 25 122 13 122 -14 0 2 57 23 80 19 21 19 30 -5 58 -11 14 -24
20 -31 16 -7 -4 -9 -3 -6 3 9 14 -37 44 -72 48 -94 12 -161 25 -193 39 -46 20
-82 20 -98 1z m107 -33 c20 -11 76 -19 175 -25 26 -2 48 -13 79 -41 41 -36 42
-39 24 -52 -10 -8 -15 -14 -11 -14 5 0 3 -7 -5 -16 -7 -8 -14 -35 -15 -60 -3
-49 -11 -67 -24 -59 -4 3 -7 -3 -5 -12 3 -23 -33 -63 -57 -63 -10 0 -18 4 -18
10 0 5 -7 7 -15 4 -8 -4 -23 0 -32 7 -12 10 -15 10 -9 2 12 -21 -19 -15 -39 7
-10 11 -29 20 -43 20 -21 0 -24 4 -20 25 3 14 2 25 -1 25 -8 0 -31 50 -31 67
0 7 4 13 9 13 5 0 13 9 16 21 4 11 9 18 12 15 6 -6 63 31 75 48 11 16 -36 44
-83 49 -25 3 -43 9 -41 16 1 6 -3 10 -9 9 -6 -2 -13 4 -14 13 -2 13 3 15 29 9
17 -4 41 -12 53 -18z"/>
<path d="M1536 1088 c3 -5 10 -6 15 -3 13 9 11 12 -6 12 -8 0 -12 -4 -9 -9z"/>
<path d="M2530 1160 c-36 -16 -78 -29 -93 -30 -15 0 -42 -7 -59 -16 -21 -11
-46 -15 -75 -11 -53 6 -58 -8 -5 -17 25 -4 58 1 102 16 107 34 201 71 206 80
8 13 -7 9 -76 -22z"/>
<path d="M1930 1122 c0 -4 10 -14 23 -21 25 -16 232 -24 276 -11 20 6 14 8
-24 8 -150 -1 -236 6 -246 19 -12 14 -29 18 -29 5z"/>
<path d="M1571 1004 c0 -11 3 -14 6 -6 3 7 2 16 -1 19 -3 4 -6 -2 -5 -13z"/>
</g>
</svg>
