<?xml version="1.0" standalone="no"?>
<!DOCTYPE svg PUBLIC "-//W3C//DTD SVG 20010904//EN"
 "http://www.w3.org/TR/2001/REC-SVG-20010904/DTD/svg10.dtd">
<svg version="1.0" xmlns="http://www.w3.org/2000/svg"
 width="450.000000pt" height="450.000000pt" viewBox="0 0 450.000000 450.000000"
 preserveAspectRatio="xMidYMid meet">
<metadata>
Created by potrace 1.10, written by Peter Selinger 2001-2011
</metadata>
<g transform="translate(0.000000,450.000000) scale(0.100000,-0.100000)"
fill="#000000" stroke="none">
<path d="M1445 3723 c-4 -32 -9 -70 -11 -85 -2 -15 -16 -78 -30 -140 -37 -155
-45 -215 -33 -247 16 -42 94 -108 167 -142 125 -58 307 -136 371 -159 110 -39
170 -69 181 -91 15 -27 15 -85 2 -382 -8 -190 -13 -242 -26 -262 -20 -30 -17
-30 -64 -6 -80 41 -142 36 -142 -9 0 -24 51 -41 129 -44 56 -3 138 -37 156
-66 3 -6 6 -40 6 -78 0 -92 0 -92 -13 -92 -6 0 -8 3 -5 7 4 3 -3 11 -15 17
-13 6 -24 20 -26 31 -9 58 -13 66 -31 60 -11 -3 -23 0 -27 6 -5 9 -2 10 9 6
10 -3 17 -3 17 2 0 12 -72 31 -117 31 -50 0 -151 26 -168 44 -7 7 -17 30 -20
50 -4 20 -11 36 -16 36 -5 0 -9 7 -9 15 0 8 4 15 10 15 5 0 9 25 8 55 -1 51
-3 54 -19 39 -14 -13 -17 -30 -14 -101 3 -73 8 -89 30 -119 23 -30 73 -54 125
-59 134 -15 149 -18 169 -36 11 -11 21 -27 21 -35 0 -8 7 -28 15 -44 13 -25
22 -30 50 -30 39 0 37 7 39 -140 l1 -55 -46 0 c-35 -1 -56 -8 -82 -28 -36 -27
-107 -117 -107 -135 0 -6 -6 -17 -14 -25 -14 -14 -19 -35 -17 -70 0 -10 16
-27 35 -38 26 -15 39 -33 51 -69 18 -55 80 -119 142 -146 23 -10 82 -20 149
-24 125 -9 154 -15 154 -35 0 -24 -21 -29 -134 -30 -118 -1 -158 -14 -171 -56
-18 -56 35 -89 144 -89 76 0 146 -21 160 -49 14 -27 -7 -79 -44 -107 -30 -22
-48 -27 -134 -33 -117 -7 -259 8 -314 34 -51 24 -83 82 -91 165 -13 135 -17
166 -27 200 -5 19 -9 45 -9 58 0 13 -9 45 -20 71 -28 64 -94 104 -339 208 -10
5 -12 2 -6 -8 5 -8 5 -11 -1 -6 -5 5 -9 12 -9 16 0 5 -14 20 -31 34 -17 15
-37 40 -44 57 -20 48 1 63 89 62 39 0 74 4 77 9 3 5 9 7 14 4 12 -7 109 14
143 31 57 30 19 68 -57 58 -51 -7 -76 5 -76 40 0 11 -4 27 -9 34 -11 19 -92
36 -101 22 -4 -6 -14 -8 -23 -4 -10 4 -25 -4 -42 -22 l-25 -27 0 33 c0 40 -9
34 -20 -14 -9 -40 1 -48 38 -35 24 9 52 7 85 -6 10 -4 17 -3 17 5 0 6 4 9 9 5
6 -3 19 5 30 17 l21 22 0 -27 c0 -44 33 -69 88 -65 37 2 47 0 47 -12 0 -22
-83 -40 -205 -45 -93 -3 -106 -6 -122 -25 -19 -24 -24 -45 -8 -35 6 3 7 -1 4
-10 -13 -32 50 -98 141 -150 86 -49 225 -106 237 -98 7 3 8 1 4 -6 -4 -6 0
-14 9 -17 9 -4 22 -19 30 -34 19 -36 55 -214 65 -321 11 -115 49 -187 110
-211 48 -19 186 -38 270 -38 122 0 198 20 232 61 52 62 45 131 -16 168 -28 17
-74 23 -256 34 -12 1 -15 9 -12 30 7 45 46 59 150 52 121 -9 175 16 143 66 -6
11 -7 19 -2 19 5 0 18 -16 30 -35 24 -41 56 -46 121 -18 48 21 56 53 13 53
-16 0 -35 5 -43 10 -12 8 -11 10 8 11 35 2 40 3 48 12 12 12 26 8 18 -5 -6
-10 -4 -10 7 0 7 6 20 12 29 12 8 0 23 9 33 20 12 15 24 19 42 14 29 -7 125
14 125 27 0 5 14 22 30 37 20 18 27 31 22 40 -11 17 -43 4 -40 -17 2 -10 -5
-17 -19 -19 -35 -5 -28 11 26 56 l49 42 18 -57 c29 -90 109 -163 150 -135 34
23 33 124 -3 178 -15 24 -21 25 -83 22 -44 -2 -66 1 -64 7 3 6 31 11 64 10 84
0 104 21 104 110 1 57 8 81 18 57 6 -14 82 -70 105 -77 17 -5 33 3 68 36 27
25 44 48 41 56 -3 8 -2 12 3 8 12 -7 45 80 38 99 -3 8 -2 16 3 18 5 2 12 80
14 173 3 94 10 185 17 203 6 17 33 68 59 113 36 58 51 96 56 137 11 76 10 268
-2 482 -5 96 -6 202 -2 235 9 73 -1 205 -13 163 -12 -44 -14 -170 -10 -583 3
-299 -2 -339 -52 -425 -70 -118 -74 -133 -82 -315 -9 -197 -14 -236 -43 -290
-29 -53 -67 -95 -87 -95 -22 0 -93 58 -107 87 -10 22 -21 29 -51 31 -33 3 -43
-2 -73 -33 -37 -39 -65 -83 -45 -71 16 10 14 3 -11 -51 -13 -27 -23 -49 -24
-50 0 -2 -22 18 -49 43 -87 81 -237 150 -368 169 -46 7 -47 8 -31 26 11 12 14
27 10 44 -5 19 -3 25 5 20 7 -5 7 0 -1 16 -14 26 -29 39 -45 39 -5 0 -3 -5 5
-10 12 -8 11 -10 -7 -10 -12 0 -35 -14 -52 -31 -34 -34 -43 -26 -11 9 16 17
17 22 6 22 -8 0 -18 -9 -21 -20 -4 -11 -17 -32 -31 -45 -13 -13 -24 -29 -24
-36 0 -6 10 1 22 16 19 25 22 25 31 9 9 -15 11 -14 23 12 12 24 13 25 7 4 -3
-14 -6 -33 -5 -42 0 -11 -6 -18 -18 -18 -14 0 -17 5 -12 22 3 14 2 19 -6 14
-7 -4 -12 -14 -12 -21 0 -8 -12 -17 -27 -21 -16 -3 -41 -10 -58 -14 -16 -5
-48 -11 -70 -15 -79 -13 -153 -65 -204 -142 -46 -69 -38 -72 16 -6 56 69 80
91 111 99 12 3 22 9 22 13 0 3 35 6 78 6 98 0 139 -24 205 -120 11 -14 29 -30
40 -35 17 -7 11 -9 -28 -11 -76 -2 -99 -6 -140 -23 -53 -23 -106 -20 -156 8
-68 37 -103 41 -145 17 -19 -12 -44 -21 -54 -21 -23 0 -50 42 -31 48 6 2 11
11 11 21 0 24 55 109 103 159 38 39 45 42 77 37 22 -4 42 -1 54 8 17 12 18 28
17 198 -2 133 -6 190 -15 204 -16 24 -96 71 -96 56 0 -6 -6 -8 -14 -5 -10 4
-6 12 14 33 32 32 38 65 44 256 3 66 8 182 11 257 8 138 -1 198 -28 198 -7 0
-7 -4 1 -12 7 -7 12 -16 12 -22 0 -5 -6 -1 -14 9 -8 11 -12 23 -9 28 8 14
-142 77 -391 163 -134 47 -260 120 -292 169 -24 37 -15 117 33 305 17 65 31
240 20 240 -2 0 -8 -26 -12 -57z m325 -693 c8 -5 11 -10 5 -10 -5 0 -17 5 -25
10 -8 5 -10 10 -5 10 6 0 17 -5 25 -10z m128 -50 c46 -18 82 -34 80 -36 -5 -5
-147 48 -173 65 -25 16 -10 11 93 -29z m147 -60 c3 -6 -1 -7 -9 -4 -18 7 -21
14 -7 14 6 0 13 -4 16 -10z m1492 -222 c-3 -8 -6 -5 -6 6 -1 11 2 17 5 13 3
-3 4 -12 1 -19z m10 -110 c-2 -18 -4 -6 -4 27 0 33 2 48 4 33 2 -15 2 -42 0
-60z m-1557 -388 l35 -18 -56 3 c-50 3 -99 18 -99 30 0 2 21 -2 48 -10 66 -21
77 -17 17 6 -41 15 -44 18 -15 13 19 -4 51 -15 70 -24z m115 -60 c3 -6 -1 -7
-9 -4 -18 7 -21 14 -7 14 6 0 13 -4 16 -10z m-295 -50 c0 -5 -5 -10 -11 -10
-5 0 -7 5 -4 10 3 6 8 10 11 10 2 0 4 -4 4 -10z m180 -30 c0 -5 -4 -10 -9 -10
-6 0 -13 5 -16 10 -3 6 1 10 9 10 9 0 16 -4 16 -10z m1407 -272 c-2 -18 -4 -4
-4 32 0 36 2 50 4 33 2 -18 2 -48 0 -65z m-1907 53 c0 -12 -29 -23 -41 -15
-18 10 -9 24 16 24 14 0 25 -4 25 -9z m995 -81 c7 -23 -12 -63 -26 -55 -5 4
-9 0 -10 -7 0 -10 -2 -10 -6 1 -5 11 -7 11 -15 0 -6 -10 -7 -6 -2 11 4 14 7
34 6 45 -1 14 1 16 7 7 7 -11 9 -10 14 2 9 22 24 20 32 -4z m49 -103 c53 -13
72 -35 37 -44 -26 -7 -28 -33 -2 -33 28 0 35 -17 11 -25 -31 -10 -26 -39 5
-31 29 7 36 -17 9 -32 -22 -12 -8 -35 16 -27 25 8 35 -12 20 -41 -8 -15 -21
-22 -34 -21 -15 1 -21 -4 -21 -18 0 -14 6 -20 23 -19 17 0 22 -5 22 -23 0 -25
-10 -29 -26 -13 -8 8 -14 7 -23 -3 -15 -19 -4 -47 20 -47 27 0 13 -26 -28 -55
-19 -12 -46 -22 -59 -20 -13 1 -24 -2 -24 -7 0 -5 -28 -8 -62 -7 -60 2 -61 3
-38 18 70 46 160 159 160 201 0 20 -102 134 -161 181 -22 18 -57 37 -77 44
l-36 13 41 7 c48 8 93 -9 74 -28 -18 -18 -13 -25 17 -29 17 -2 27 -9 27 -20 0
-30 14 -31 27 -3 11 25 10 29 -27 61 l-40 34 50 -1 c28 0 72 -6 99 -12z m597
-14 c11 -13 11 -15 1 -9 -8 5 -26 12 -40 16 l-27 8 26 1 c15 1 33 -7 40 -16z
m-453 -29 c25 -16 29 -52 7 -60 -22 -9 -18 -24 5 -24 13 0 20 -7 20 -20 0 -11
-4 -20 -10 -20 -5 0 -10 -7 -10 -15 0 -10 7 -15 18 -13 12 2 18 -5 20 -24 3
-24 0 -28 -21 -28 -27 0 -41 -22 -25 -38 6 -6 17 -8 24 -5 9 3 14 -2 14 -16 0
-16 -6 -20 -22 -18 -17 1 -23 -3 -23 -18 0 -11 6 -19 13 -18 30 7 8 -28 -30
-47 -51 -25 -51 -25 -38 1 7 11 9 27 6 34 -2 7 2 19 10 26 8 6 14 28 14 48 -1
20 2 52 5 72 5 25 2 39 -8 47 -8 7 -13 21 -10 31 3 10 0 22 -6 25 -6 4 -11 18
-11 31 0 13 -4 26 -9 29 -5 3 -7 15 -4 26 6 22 28 20 71 -6z m365 -10 c-15
-20 -28 -43 -29 -51 -2 -8 -6 -18 -10 -21 -4 -4 -5 0 -1 9 3 9 1 21 -5 27 -11
11 -1 35 11 27 5 -2 19 7 31 20 34 36 35 31 3 -11z m23 -13 c0 -11 -5 -19 -11
-18 -5 1 -9 -8 -9 -20 1 -13 -3 -20 -11 -16 -17 6 -13 27 10 53 22 24 21 24
21 1z m30 4 c-12 -9 -15 -15 -7 -15 11 0 11 -3 1 -15 -10 -12 -10 -15 1 -15 9
-1 7 -6 -6 -16 -11 -8 -19 -19 -18 -24 1 -4 -8 -7 -21 -6 -14 0 -22 6 -19 13
3 7 8 11 13 8 4 -2 16 3 26 11 14 12 15 14 3 11 -9 -3 -16 1 -16 8 0 8 5 13
11 12 5 -1 10 3 11 8 1 17 16 35 28 35 7 0 3 -7 -7 -15z m-332 -16 c29 -23 34
-50 11 -69 -18 -15 -11 -30 16 -30 20 0 26 -15 9 -25 -16 -10 -12 -35 6 -35
10 0 14 -7 12 -22 -2 -17 -10 -23 -28 -23 -18 0 -26 -6 -28 -22 -2 -15 2 -23
12 -23 17 0 30 16 19 23 -5 2 -2 2 6 0 35 -9 71 73 41 92 -5 3 -10 17 -10 31
0 13 -4 24 -10 24 -5 0 -9 11 -8 25 3 33 10 32 47 -10 36 -41 38 -50 14 -60
-16 -6 -15 -8 5 -24 l24 -17 -50 -45 c-56 -50 -132 -96 -132 -79 0 6 7 22 16
35 9 14 14 35 11 46 -3 12 -1 29 6 39 8 14 8 25 -3 47 -8 15 -15 37 -17 48 -1
11 -5 37 -9 58 -7 42 2 46 40 16z m232 -97 c-18 -16 -19 -16 -12 1 3 10 6 24
6 30 0 8 4 7 12 -1 10 -9 8 -16 -6 -30z m111 32 c-3 -3 -12 -4 -19 -1 -8 3 -5
6 6 6 11 1 17 -2 13 -5z m-11 -26 c4 -5 -8 -8 -27 -9 -27 0 -30 -2 -14 -8 17
-7 14 -9 -15 -13 -44 -7 -49 -3 -22 20 21 18 64 23 78 10z m-1596 -8 c8 -5 11
-10 5 -10 -5 0 -17 5 -25 10 -8 5 -10 10 -5 10 6 0 17 -5 25 -10z m160 -70
c22 -11 40 -22 40 -24 0 -5 -169 69 -178 79 -9 9 89 -30 138 -55z m1268 32 c6
-18 -15 -14 -22 4 -4 10 -1 14 6 12 6 -2 14 -10 16 -16z m-824 -27 c20 -14 41
-25 47 -25 6 0 8 -4 5 -8 -7 -12 77 -5 159 12 39 8 84 13 100 12 17 -2 43 -4
58 -4 25 -2 27 -4 16 -24 -7 -13 -17 -26 -23 -30 -6 -4 -11 -12 -11 -17 0 -20
-70 -101 -100 -115 -46 -22 -180 -17 -220 9 -72 45 -145 135 -145 178 0 15 34
35 61 36 9 1 33 -10 53 -24z m914 -7 c-2 -7 4 -13 12 -13 8 0 14 6 12 13 -2
10 2 10 18 2 11 -6 18 -15 15 -21 -4 -5 1 -9 9 -9 9 0 16 -4 16 -10 0 -13 -6
-13 -31 1 -11 5 -16 15 -13 21 4 7 2 8 -5 4 -9 -6 -9 -11 0 -22 6 -8 7 -14 2
-14 -14 0 -54 46 -46 53 10 10 13 8 11 -5z m43 -73 c1 6 1 14 0 18 -1 5 4 7
11 4 7 -2 12 -10 10 -17 -2 -7 3 -10 11 -7 10 4 13 -1 12 -16 -4 -37 -5 -38
-14 -33 -11 7 -23 -22 -15 -35 3 -5 0 -9 -5 -9 -6 0 -11 5 -11 11 0 5 -4 8 -9
5 -5 -3 -14 1 -21 9 -7 8 -9 15 -4 15 5 1 -1 9 -12 18 -12 10 -24 29 -28 43
-7 24 -7 23 14 -4 21 -26 40 -28 40 -4 0 8 -3 8 -9 -2 -6 -10 -10 -10 -16 -1
-4 6 -4 14 -1 17 3 4 -4 18 -16 32 -13 14 -4 8 20 -14 23 -21 43 -35 43 -30z
m-210 -25 c6 0 7 -4 4 -10 -3 -5 -15 -10 -25 -10 -10 0 -20 -4 -22 -8 -3 -10
-68 -25 -68 -16 0 3 18 13 40 23 22 10 37 21 32 26 -4 4 1 5 11 2 10 -4 23 -7
28 -7z m-301 -150 c0 17 13 5 16 -15 2 -10 -7 -13 -33 -9 -48 6 -55 12 -42 36
11 20 11 20 35 -3 15 -14 24 -18 24 -9z m70 0 c0 -5 -6 -10 -14 -10 -8 0 -18
5 -21 10 -3 6 3 10 14 10 12 0 21 -4 21 -10z m-423 -166 c-3 -3 -12 -4 -19 -1
-8 3 -5 6 6 6 11 1 17 -2 13 -5z m213 -26 c19 -13 35 -29 38 -36 2 -7 -8 -2
-23 12 -26 24 -54 31 -150 39 -22 2 -8 4 31 5 59 2 77 -2 104 -20z m40 -103
c0 -8 -14 -29 -31 -47 l-31 -33 26 33 c14 19 26 40 26 48 0 8 2 14 5 14 3 0 5
-7 5 -15z"/>
<path d="M2453 1747 c-9 -19 -8 -24 3 -24 16 0 28 27 16 39 -5 5 -13 -2 -19
-15z"/>
<path d="M2495 1612 c-19 -14 -15 -50 6 -55 18 -5 19 -8 7 -26 -18 -30 0 -40
23 -12 23 28 24 47 4 55 -8 3 -15 12 -15 20 0 18 -13 27 -25 18z"/>
<path d="M2520 1335 c0 -7 -7 -18 -17 -23 -14 -9 -14 -11 6 -21 18 -10 20 -15
10 -27 -8 -10 -15 -11 -24 -4 -8 6 -18 5 -30 -4 -22 -16 -14 -32 19 -38 39 -8
66 28 61 77 -2 22 -4 43 -4 48 -2 14 -21 7 -21 -8z"/>
<path d="M3047 1317 c-17 -12 -18 -40 -2 -54 4 -5 5 -2 0 6 -6 11 -4 13 10 7
18 -6 18 -6 -1 15 -19 22 -19 22 2 11 11 -6 26 -7 33 -2 11 6 9 10 -6 19 -15
7 -25 7 -36 -2z"/>
<path d="M2500 1166 c0 -2 8 -10 18 -17 15 -13 16 -12 3 4 -13 16 -21 21 -21
13z"/>
<path d="M2893 3448 c-2 -5 -20 -8 -39 -8 -22 0 -37 -6 -40 -15 -4 -8 -10 -15
-16 -15 -5 0 -6 5 -3 10 9 15 -12 12 -27 -3 -7 -8 -20 -12 -30 -9 -10 2 -26 1
-35 -4 -24 -10 -22 -9 -66 -19 -25 -5 -41 -15 -46 -28 -6 -17 -9 -18 -14 -4
-5 14 -13 13 -69 -7 -35 -13 -67 -24 -73 -25 -35 -5 -75 -25 -75 -37 0 -8 -4
-14 -8 -14 -12 0 -10 -164 2 -172 7 -5 7 -8 -2 -8 -14 0 -14 -54 1 -84 6 -12
5 -16 -1 -12 -6 3 -10 -45 -11 -126 -1 -97 2 -134 11 -140 10 -6 10 -8 1 -8
-7 0 -13 -11 -13 -25 0 -14 5 -25 10 -25 6 0 10 -5 10 -11 0 -5 -4 -7 -10 -4
-6 4 -10 -18 -10 -59 0 -42 4 -66 13 -70 10 -5 10 -7 0 -12 -10 -4 -13 -41
-13 -134 0 -120 2 -131 23 -155 36 -42 152 -53 152 -15 0 11 -13 15 -51 15
-34 0 -59 6 -70 16 -11 9 -26 14 -34 11 -12 -4 -13 -2 -3 9 8 10 13 110 17
331 5 292 4 318 -12 329 -14 9 -15 10 -1 6 15 -5 17 9 16 129 0 74 -4 134 -8
134 -5 0 -9 7 -9 15 0 8 5 15 10 15 6 0 10 11 10 25 0 17 7 29 23 35 12 5 15
9 8 9 -12 1 -12 4 -3 13 10 10 15 10 21 -1 7 -11 18 -10 65 3 31 9 54 21 51
26 -4 6 1 10 10 10 9 0 14 -4 11 -9 -4 -5 23 0 58 12 36 11 63 23 61 26 -2 3
9 6 23 7 15 1 69 11 121 23 73 17 122 22 214 20 91 -1 122 2 129 12 8 11 9 10
4 -3 -4 -13 0 -18 13 -18 33 0 155 -54 185 -81 13 -13 22 -15 27 -8 5 8 8 8
13 0 4 -6 3 -11 -2 -11 -12 0 -10 -73 3 -82 6 -5 3 -8 -6 -8 -9 0 -20 -10 -26
-22 -6 -13 -23 -49 -37 -80 -15 -31 -38 -67 -51 -80 -14 -13 -25 -27 -25 -33
0 -5 -15 -17 -33 -26 -17 -9 -37 -26 -43 -38 -7 -14 -13 -18 -16 -11 -3 10
-13 10 -43 -1 -45 -16 -65 -31 -65 -51 0 -10 -2 -10 -9 1 -7 11 -13 11 -39 -1
-18 -10 -35 -12 -43 -7 -11 7 -11 9 1 9 22 0 133 54 185 90 25 17 49 29 54 26
9 -6 45 31 54 57 4 9 13 17 22 17 8 0 15 5 15 11 0 5 -4 8 -9 5 -5 -4 -4 10 2
29 9 30 8 39 -9 63 -30 40 -138 110 -202 129 -79 24 -199 22 -279 -6 -34 -11
-69 -18 -77 -15 -10 4 -16 1 -16 -8 0 -8 -29 -33 -64 -55 -55 -35 -67 -39 -77
-27 -6 8 -21 14 -32 14 -20 0 -20 0 2 -24 l23 -24 -66 -47 c-36 -26 -66 -52
-66 -58 0 -23 90 -94 178 -140 121 -64 123 -67 112 -228 -7 -106 -13 -134 -39
-191 -37 -84 -36 -78 -70 -388 -18 -159 -25 -263 -20 -277 6 -17 17 -23 38
-23 35 0 41 21 47 160 2 52 7 102 10 110 3 8 8 38 10 65 6 81 15 135 22 135 7
0 7 -30 -8 -295 -10 -184 -6 -204 39 -190 30 9 34 38 35 257 1 148 4 200 14
210 9 9 50 13 145 13 121 0 135 -2 164 -23 23 -16 30 -28 27 -45 -4 -20 -4
-21 5 -2 6 13 8 -27 5 -115 -5 -129 -14 -195 -14 -95 0 27 -3 45 -7 42 -10
-11 -4 -88 8 -103 7 -9 7 -19 0 -32 -14 -26 17 -87 44 -87 33 0 42 40 34 155
-12 185 -11 280 5 280 20 0 26 -23 26 -104 0 -40 3 -128 7 -195 6 -114 8 -124
30 -138 19 -13 26 -13 39 -2 20 16 16 95 -15 372 -16 135 -25 179 -45 221 -27
55 -26 73 5 139 30 66 45 9 53 -200 2 -76 5 -141 5 -145 1 -5 5 -8 11 -8 15 0
23 49 11 64 -10 12 -8 13 7 9 15 -3 21 -15 24 -44 4 -43 -11 -66 -30 -47 -9 9
-12 7 -12 -9 0 -28 25 -36 46 -16 13 13 15 29 11 70 -3 29 -2 55 2 57 8 6 5
401 -4 416 -12 20 -67 42 -90 36 -13 -3 -34 -23 -46 -43 -13 -21 -29 -44 -36
-51 -13 -14 -16 -24 -31 -97 -7 -36 -11 -40 -38 -38 -16 1 -46 3 -68 4 -21 1
-34 4 -28 8 6 3 -23 5 -64 3 -96 -5 -141 4 -159 31 -10 15 -15 59 -17 143 -3
128 2 146 47 164 17 8 18 9 2 9 -24 1 -67 -43 -67 -69 0 -11 -7 -20 -15 -20
-8 0 -15 -4 -15 -10 0 -5 7 -10 15 -10 12 0 15 -19 17 -102 1 -126 2 -119 -7
-140 -4 -11 -3 -18 4 -18 6 0 11 7 11 15 0 18 0 18 42 1 19 -8 98 -19 177 -25
176 -12 200 -25 237 -129 11 -31 11 -39 -2 -48 -18 -14 -18 -25 0 -18 9 4 16
-6 20 -32 9 -46 -9 -69 -19 -24 -8 38 -23 45 -72 33 -30 -7 -44 -5 -69 9 -32
19 -92 24 -231 20 -104 -3 -112 -12 -120 -141 -3 -50 -10 -91 -14 -91 -5 0 -7
12 -4 28 2 15 7 67 10 115 6 98 -4 132 -37 124 -11 -3 -28 1 -37 10 -15 13
-17 22 -9 57 5 22 16 60 26 83 14 36 20 41 39 36 14 -3 23 -1 23 6 0 6 -9 11
-19 11 -17 0 -19 4 -10 32 5 18 9 47 9 64 0 17 7 37 15 44 8 7 15 17 15 22 0
6 -7 4 -17 -3 -15 -13 -16 -9 -11 48 4 37 12 69 22 78 16 17 21 35 10 35 -4 0
-13 -8 -20 -17 -10 -14 -13 -15 -14 -4 0 8 -6 22 -14 30 -13 15 -4 16 102 13
64 -1 127 -8 139 -14 35 -17 169 9 199 40 10 9 19 16 21 14 9 -7 63 30 57 40
-4 7 -3 8 5 4 30 -19 165 172 145 206 -4 7 -3 10 1 5 9 -8 35 43 42 81 10 63
-44 129 -131 160 -122 43 -236 62 -236 40 0 -9 -2 -10 -8 -2 -8 13 -171 14
-179 2z m230 -15 c-7 -2 -19 -2 -25 0 -7 3 -2 5 12 5 14 0 19 -2 13 -5z m94
-9 c-3 -3 -12 -4 -19 -1 -8 3 -5 6 6 6 11 1 17 -2 13 -5z m48 -14 c3 -6 -1 -7
-9 -4 -18 7 -21 14 -7 14 6 0 13 -4 16 -10z m95 -34 c0 -3 -4 -8 -10 -11 -5
-3 -10 -1 -10 4 0 6 5 11 10 11 6 0 10 -2 10 -4z m-315 -75 c3 -5 -4 -12 -15
-16 -11 -3 -20 -11 -20 -17 0 -5 6 -7 13 -4 6 3 20 9 30 12 9 4 17 10 17 15 0
22 139 -52 198 -104 41 -38 22 -99 -50 -161 -40 -35 -43 -36 -50 -16 -4 11
-12 20 -17 20 -7 0 -7 -9 -1 -24 10 -28 4 -33 -100 -86 -49 -25 -82 -34 -133
-37 -68 -4 -69 -4 -62 19 l6 23 -20 -24 c-20 -22 -24 -23 -80 -13 -74 13 -251
97 -240 113 5 8 -22 49 -33 49 -7 0 -6 -5 2 -15 7 -8 8 -15 4 -15 -5 0 -15 9
-22 21 -11 17 -10 23 10 39 13 11 29 19 36 20 6 0 12 5 12 11 0 5 5 7 11 3 8
-4 2 -12 -15 -21 -14 -7 -26 -18 -26 -22 0 -13 29 -21 35 -10 4 5 11 7 16 3 5
-3 7 -9 4 -14 -10 -16 15 -60 39 -72 14 -6 23 -15 20 -19 -3 -5 7 -9 21 -9 15
0 24 4 20 10 -3 6 -12 10 -18 10 -7 0 -25 11 -42 25 -27 23 -24 23 40 -8 84
-41 149 -59 190 -54 46 6 118 29 135 43 8 6 33 21 55 32 33 17 37 22 22 27
-11 5 -47 -6 -97 -28 -44 -20 -80 -35 -80 -32 0 14 14 34 21 29 5 -3 9 9 9 26
0 21 -9 39 -27 56 l-26 24 34 -6 c19 -4 42 -11 52 -16 10 -5 42 -16 70 -25 29
-8 57 -19 63 -24 17 -13 176 72 162 87 -4 3 -38 -8 -76 -25 -39 -17 -72 -31
-75 -31 -2 0 -21 7 -42 16 l-38 15 34 29 c31 26 35 27 47 12 7 -10 12 -11 12
-3 0 7 6 9 13 6 6 -4 3 1 -8 10 -16 13 -18 19 -7 35 14 24 0 27 -18 5 -9 -11
-22 -14 -42 -10 -16 4 -28 2 -28 -3 0 -6 8 -12 17 -14 14 -3 11 -8 -14 -26
-26 -18 -39 -21 -72 -16 -29 5 -41 12 -41 23 0 32 14 40 52 32 28 -7 38 -5 42
5 6 15 1 19 -35 27 -20 5 -26 13 -26 32 l0 26 23 -22 c29 -27 32 -17 5 17 -17
22 -21 23 -34 9 -9 -8 -18 -23 -21 -33 -5 -14 -18 -17 -66 -17 -43 0 -60 3
-60 13 0 7 -5 10 -12 6 -7 -4 -8 -3 -4 5 9 13 77 43 84 36 3 -2 -1 -11 -8 -20
-9 -10 -9 -15 -1 -15 6 0 16 11 23 24 6 15 21 27 37 29 53 8 160 7 166 -2z
m-321 -92 c-2 -4 -13 -5 -24 -2 -14 4 -20 1 -18 -8 2 -7 -4 -14 -12 -15 -8 0
-21 -2 -27 -2 -7 -1 -13 -9 -13 -17 0 -17 -16 -20 -24 -6 -4 5 20 25 51 45 40
25 59 32 64 24 4 -7 6 -15 3 -19z m132 -8 c19 15 19 -9 0 -34 -11 -14 -26 -17
-70 -16 -31 1 -56 6 -56 11 0 5 5 6 10 3 10 -6 14 7 11 33 -2 10 2 11 18 3 22
-12 51 -5 51 13 0 6 5 3 11 -7 8 -14 14 -16 25 -6z m-133 -33 c-6 -30 -77 -63
-93 -43 -12 14 11 40 24 27 4 -4 6 -1 4 7 -2 8 6 14 19 16 13 1 26 5 30 8 13
14 20 7 16 -15z m-120 -42 c15 -23 15 -25 -9 -41 -13 -8 -29 -13 -34 -10 -13
8 -1 35 16 35 8 0 14 4 14 9 0 5 -8 8 -17 6 -10 -1 -12 0 -5 2 6 3 12 9 12 14
0 15 7 11 23 -15z m197 -9 c0 -4 9 -3 19 3 11 5 26 10 33 10 7 -1 3 -6 -9 -13
-22 -12 -22 -12 -3 -37 11 -14 19 -34 19 -45 0 -13 -5 -8 -15 15 -20 48 -49
66 -81 49 -17 -9 -26 -10 -35 -1 -16 16 -37 -14 -38 -55 0 -22 7 -37 22 -47
32 -23 17 -20 -48 9 -31 14 -63 25 -70 25 -30 0 -11 17 54 50 37 18 73 33 81
31 7 -1 10 2 6 8 -4 7 6 10 29 9 20 -2 36 -7 36 -11z m20 -49 c24 -26 25 -37
4 -66 -32 -47 -95 -20 -93 40 0 21 1 22 8 3 7 -17 9 -16 15 13 9 38 35 43 66
10z m527 -6 c-10 -10 -17 -23 -17 -29 0 -20 -30 -37 -42 -25 -9 9 -7 12 8 12
13 0 24 11 31 30 6 17 17 30 24 30 8 0 7 -6 -4 -18z m-977 -26 c0 -3 -4 -8
-10 -11 -5 -3 -10 -1 -10 4 0 6 5 11 10 11 6 0 10 -2 10 -4z m890 1 c0 -2 -10
-12 -22 -23 l-23 -19 19 23 c18 21 26 27 26 19z m-419 -50 c-10 -9 -11 -8 -5
6 3 10 9 15 12 12 3 -3 0 -11 -7 -18z m-471 -126 c0 -6 -4 -13 -10 -16 -5 -3
-10 1 -10 9 0 9 5 16 10 16 6 0 10 -4 10 -9z m-13 -83 c-3 -8 -6 -5 -6 6 -1
11 2 17 5 13 3 -3 4 -12 1 -19z m1013 -93 c11 -10 14 -29 13 -67 -2 -29 -3
-117 -3 -195 0 -87 -4 -143 -10 -143 -12 0 -14 12 -11 61 2 20 -2 40 -8 44 -6
3 -11 15 -11 26 0 11 4 18 9 15 5 -4 9 13 10 36 1 166 0 173 -16 186 -27 20
-49 14 -77 -19 -29 -34 -34 -24 -11 21 29 56 74 70 115 35z m-26 -67 c15 -24
1 -33 -25 -14 -16 11 -27 12 -41 5 -23 -12 -24 -1 0 17 22 18 52 14 66 -8z
m-124 -48 c-6 -23 -13 -40 -15 -38 -2 2 1 23 7 46 6 24 13 41 15 38 2 -2 -1
-23 -7 -46z m-863 18 c-3 -8 -6 -5 -6 6 -1 11 2 17 5 13 3 -3 4 -12 1 -19z
m967 -4 c10 -10 15 -31 14 -57 -1 -41 -1 -41 -5 -7 -12 94 -72 75 -98 -32 -7
-28 -35 -29 -35 -1 0 8 5 11 10 8 6 -3 10 1 10 10 0 17 36 74 55 87 16 12 32
9 49 -8z m-631 -262 c6 -8 -23 -145 -29 -139 -3 2 -1 36 2 76 6 64 15 84 27
63z m492 -84 c2 -7 6 -57 8 -110 4 -78 2 -98 -8 -98 -11 0 -13 21 -12 93 1 50
-2 100 -7 110 -5 11 -4 17 3 17 7 0 13 -6 16 -12z m103 -78 c-3 -16 -1 -30 2
-30 4 0 10 -24 12 -52 4 -41 2 -55 -11 -65 -15 -11 -15 -12 0 -13 19 0 29 -45
29 -127 0 -54 -6 -63 -28 -41 -15 15 -16 84 -2 93 15 10 12 28 -4 22 -12 -5
-15 15 -15 119 0 82 3 124 10 124 7 0 9 -12 7 -30z m-622 -27 c-3 -21 -9 -90
-12 -153 -4 -63 -11 -122 -16 -130 -7 -13 -1 195 7 240 2 8 4 30 4 48 1 17 6
32 12 32 8 0 10 -13 5 -37z m109 -122 c8 -48 3 -161 -7 -161 -5 0 -8 7 -8 15
0 8 -5 15 -11 15 -16 0 -6 100 11 110 9 5 9 9 1 14 -13 9 -15 46 -2 46 5 0 12
-17 16 -39z m425 -15 c0 -14 -4 -28 -10 -31 -5 -3 -10 -11 -10 -16 0 -6 5 -7
10 -4 6 4 10 -17 10 -54 0 -46 -4 -61 -14 -61 -13 0 -26 20 -26 41 0 5 7 9 15
9 8 0 15 5 15 11 0 6 -7 9 -15 5 -17 -6 -18 6 -9 78 7 49 34 67 34 22z m-437
-157 c5 -4 6 -12 3 -18 -14 -21 -26 -11 -25 22 0 17 3 25 6 17 3 -8 10 -18 16
-21z"/>
<path d="M3080 3233 c0 -6 11 -15 25 -21 21 -10 25 -9 25 3 0 8 -4 15 -9 15
-5 0 -16 3 -25 6 -9 3 -16 2 -16 -3z"/>
<path d="M3203 3197 c-13 -5 -23 -16 -23 -24 0 -13 6 -11 58 23 2 1 0 4 -5 7
-4 2 -18 0 -30 -6z"/>
<path d="M3100 3130 c-12 -7 -12 -12 -2 -22 9 -9 12 -9 12 4 0 9 6 19 13 21 6
3 8 6 2 6 -5 0 -17 -4 -25 -9z"/>
<path d="M3180 3056 c0 -8 6 -16 14 -19 10 -4 12 0 9 14 -6 22 -23 26 -23 5z"/>
<path d="M3068 2973 c-28 -7 -21 -21 7 -15 14 2 25 8 25 13 0 9 -4 10 -32 2z"/>
<path d="M2680 2935 c7 -9 15 -13 17 -11 7 7 -7 26 -19 26 -6 0 -6 -6 2 -15z"/>
<path d="M2968 2945 c-8 -8 2 -45 13 -45 10 0 10 8 0 33 -3 10 -9 15 -13 12z"/>
<path d="M2715 2920 c-4 -6 3 -10 14 -10 25 0 27 6 6 13 -8 4 -17 2 -20 -3z"/>
<path d="M2767 3063 c-4 -3 -7 -17 -7 -30 0 -17 -4 -22 -12 -17 -9 6 -9 3 1
-9 16 -20 49 -17 67 8 12 16 11 21 -3 37 -17 19 -35 23 -46 11z m24 -26 c-13
-13 -26 -3 -16 12 3 6 11 8 17 5 6 -4 6 -10 -1 -17z m5 -22 c-11 -8 -24 -15
-30 -15 -5 0 -1 7 10 15 10 8 24 14 29 14 6 0 1 -6 -9 -14z"/>
<path d="M3290 1871 c0 -5 5 -13 10 -16 6 -3 10 -2 10 4 0 5 -4 13 -10 16 -5
3 -10 2 -10 -4z"/>
<path d="M2756 1943 c-6 -14 -5 -15 5 -6 7 7 10 15 7 18 -3 3 -9 -2 -12 -12z"/>
<path d="M1122 3100 c-21 -9 -56 -38 -79 -64 -43 -49 -62 -89 -37 -79 8 3 14
13 14 23 0 18 62 80 81 80 6 0 8 4 5 9 -7 10 67 35 85 28 8 -3 2 -6 -13 -6
-15 -1 -29 -5 -32 -9 -3 -5 16 -5 42 -1 26 4 52 3 59 -2 7 -7 13 -5 16 3 4 10
7 10 18 -1 9 -9 9 -11 2 -7 -7 4 -13 3 -13 -2 0 -5 28 -27 63 -50 34 -22 74
-51 88 -65 30 -28 51 -37 114 -42 46 -5 64 10 23 18 -22 4 -22 4 -2 6 12 0 31
-8 43 -18 13 -11 36 -23 53 -26 33 -8 60 -56 61 -110 1 -17 8 -33 17 -37 13
-6 13 -7 0 -7 -16 -1 -26 -41 -10 -41 5 0 4 -11 -2 -25 -10 -21 -8 -28 8 -40
12 -10 14 -14 5 -13 -11 2 -15 -10 -17 -44 -3 -38 0 -48 12 -48 8 0 12 -5 9
-10 -4 -6 -10 -8 -14 -6 -4 3 -8 -31 -7 -74 1 -70 3 -80 18 -80 10 0 18 7 18
15 0 8 -4 15 -10 15 -5 0 -10 8 -10 18 0 14 2 15 10 2 7 -11 10 -4 10 28 0 23
-4 42 -10 42 -5 0 -10 5 -10 11 0 5 5 7 10 4 17 -10 13 319 -4 359 -28 67 -91
96 -214 99 -33 1 -60 4 -59 9 1 4 -20 25 -47 48 -36 30 -52 38 -61 30 -10 -8
-13 -6 -11 6 2 24 -76 63 -135 67 -31 3 -62 -2 -87 -13z m618 -520 c0 -5 -2
-10 -4 -10 -3 0 -8 5 -11 10 -3 6 -1 10 4 10 6 0 11 -4 11 -10z"/>
<path d="M1120 3049 c-53 -24 -67 -39 -97 -99 -13 -25 -23 -37 -23 -27 0 9 -5
17 -11 17 -6 0 -9 -7 -6 -15 4 -8 3 -17 -2 -19 -11 -7 -13 -86 -1 -86 6 0 10
-5 10 -11 0 -5 -4 -8 -9 -4 -15 9 -21 -27 -12 -68 10 -41 20 -59 22 -36 0 8 9
-22 19 -67 10 -44 30 -104 44 -134 31 -65 32 -68 6 -45 -11 10 -20 26 -20 36
0 10 -4 21 -10 24 -14 9 -12 -2 6 -41 9 -18 24 -36 33 -39 9 -3 17 -15 18 -27
1 -11 6 -24 10 -27 28 -21 59 -124 61 -208 1 -18 8 -46 17 -62 15 -31 79 -81
102 -81 7 0 13 -5 13 -10 0 -13 52 -9 62 5 5 6 8 3 8 -7 0 -9 6 -23 14 -31 12
-12 11 -18 -12 -42 l-26 -28 -9 29 c-5 16 -9 34 -9 39 -2 15 -38 16 -38 2 0
-7 -4 -6 -10 3 -6 9 -5 17 3 22 8 5 6 8 -7 8 -12 0 -16 -5 -13 -15 4 -8 2 -17
-4 -21 -5 -3 -9 -15 -7 -27 2 -15 -3 -23 -17 -25 -11 -2 -17 -1 -13 3 8 9 -14
35 -24 28 -4 -2 -5 3 -2 11 3 9 10 16 15 16 5 0 9 7 9 15 0 8 5 15 10 15 14 0
13 -13 -2 -28 -6 -6 -9 -15 -5 -18 3 -4 12 5 18 19 9 21 9 30 -1 42 -7 8 -15
15 -19 15 -10 0 -71 -82 -71 -95 0 -18 84 -59 103 -52 9 3 26 21 37 39 l20 33
0 -37 c0 -20 4 -39 9 -42 14 -9 111 14 111 26 0 5 -7 35 -16 65 -16 55 -16 55
9 81 13 15 30 37 36 49 15 29 15 137 0 127 -7 -4 -9 -21 -6 -42 16 -98 -84
-182 -174 -145 -55 22 -79 61 -90 145 -12 93 -18 112 -78 249 -69 158 -85 228
-78 357 7 118 28 170 86 209 66 44 132 26 197 -54 62 -76 81 -93 109 -93 14 0
25 4 25 9 0 9 -60 37 -71 34 -4 -1 -6 3 -5 10 2 22 -86 116 -118 126 -66 20
-82 20 -126 0z m154 -1090 c-6 -11 -24 -2 -24 11 0 5 7 7 15 4 8 -4 12 -10 9
-15z m104 -29 c-7 -11 -16 -20 -20 -20 -5 0 -3 9 4 20 7 11 16 20 20 20 5 0 3
-9 -4 -20z"/>
<path d="M1182 2861 c-70 -9 -75 -18 -74 -116 1 -42 0 -46 -8 -25 -9 24 -8 0
5 -90 2 -14 5 -50 6 -80 1 -33 7 -62 17 -72 8 -10 12 -18 8 -18 -3 0 5 -22 19
-49 21 -43 33 -53 84 -76 33 -15 70 -38 82 -51 12 -13 29 -24 37 -24 27 0 -31
51 -91 80 -62 30 -97 57 -97 73 0 6 12 0 27 -14 18 -15 22 -17 11 -4 -9 11
-24 52 -33 90 -9 39 -19 79 -22 90 -3 11 -6 47 -8 79 -2 32 -8 62 -13 65 -13
8 -13 80 -1 104 7 12 22 17 59 17 53 0 80 7 80 21 0 10 -7 10 -88 0z m-37
-310 c3 -5 1 -12 -5 -16 -5 -3 -10 1 -10 9 0 18 6 21 15 7z m8 -51 c3 -11 1
-18 -4 -14 -5 3 -9 12 -9 20 0 20 7 17 13 -6z m17 -58 c0 -15 -2 -15 -10 -2
-13 20 -13 33 0 25 6 -3 10 -14 10 -23z"/>
<path d="M1166 2772 c-5 -8 39 -62 50 -62 3 0 3 7 0 16 -5 13 -3 14 7 6 15
-12 43 1 34 15 -4 6 4 8 20 5 19 -4 24 -1 21 9 -3 8 -12 12 -19 10 -8 -1 -24
-4 -36 -5 -11 0 -18 -5 -15 -11 3 -5 -1 -5 -9 1 -21 16 -48 24 -53 16z"/>
<path d="M1317 2705 c5 -30 3 -35 -14 -35 -11 0 -23 -3 -27 -7 -4 -5 -13 -8
-19 -8 -19 0 -31 -62 -18 -93 11 -26 11 -26 -5 -7 -11 14 -14 32 -10 60 5 36
5 38 -8 22 -8 -11 -13 -24 -11 -30 2 -7 6 -23 9 -37 3 -14 17 -41 32 -60 15
-19 24 -26 20 -16 -5 16 -4 17 9 6 8 -7 12 -16 9 -21 -3 -5 -1 -9 5 -9 16 0
42 -56 35 -74 -3 -9 -1 -16 5 -16 14 0 14 45 0 73 -6 12 -22 34 -36 48 -13 15
-26 33 -27 40 -2 8 -7 22 -11 32 -11 27 14 67 46 74 29 6 45 39 34 74 -11 33
-24 21 -18 -16z"/>
<path d="M981 2664 c0 -11 3 -14 6 -6 3 7 2 16 -1 19 -3 4 -6 -2 -5 -13z"/>
<path d="M2772 2628 c-14 -14 -16 -28 -3 -28 9 0 24 30 18 36 -2 2 -9 -2 -15
-8z"/>
<path d="M2832 2590 c0 -14 2 -19 5 -12 2 6 2 18 0 25 -3 6 -5 1 -5 -13z"/>
<path d="M2845 2541 c6 -6 26 -13 45 -16 42 -7 21 8 -25 19 -21 5 -27 4 -20
-3z"/>
<path d="M2836 2472 c-3 -3 6 -11 21 -19 27 -14 40 -12 29 5 -7 12 -43 22 -50
14z"/>
<path d="M2931 2462 c-14 -26 -7 -42 10 -25 6 6 9 19 7 29 -3 17 -5 17 -17 -4z"/>
<path d="M2722 2458 c-19 -19 -14 -30 8 -18 11 6 20 15 20 20 0 14 -14 12 -28
-2z"/>
<path d="M3040 2451 c0 -13 26 -32 33 -24 8 7 -11 33 -24 33 -5 0 -9 -4 -9 -9z"/>
<path d="M3110 2434 c-12 -31 -12 -34 -1 -34 5 0 11 8 15 18 3 9 9 23 12 30 3
6 1 12 -5 12 -7 0 -16 -12 -21 -26z"/>
<path d="M2770 2443 c1 -14 30 -47 36 -41 6 7 -17 48 -28 48 -5 0 -8 -3 -8 -7z"/>
<path d="M2983 2423 c9 -9 19 -14 23 -11 10 10 -6 28 -24 28 -15 0 -15 -1 1
-17z"/>
<path d="M3192 2420 c13 -20 28 -27 28 -12 0 10 -22 32 -32 32 -5 0 -3 -9 4
-20z"/>
<path d="M2857 2403 c-11 -10 -8 -53 3 -53 6 0 10 6 10 14 0 8 3 21 6 30 6 16
-7 22 -19 9z"/>
<path d="M2710 2390 c0 -5 11 -10 25 -10 14 0 25 5 25 10 0 6 -11 10 -25 10
-14 0 -25 -4 -25 -10z"/>
<path d="M3150 2390 c0 -14 38 -32 45 -21 6 10 1 14 -27 24 -10 4 -18 2 -18
-3z"/>
<path d="M2931 2367 c-6 -8 -8 -17 -4 -20 7 -8 33 11 33 24 0 13 -16 11 -29
-4z"/>
<path d="M1258 2363 c7 -3 16 -2 19 1 4 3 -2 6 -13 5 -11 0 -14 -3 -6 -6z"/>
<path d="M3000 2341 c0 -11 5 -23 10 -26 6 -4 10 5 10 19 0 14 -4 26 -10 26
-5 0 -10 -9 -10 -19z"/>
<path d="M3060 2344 c0 -7 10 -9 25 -6 14 2 25 8 25 13 0 5 -11 8 -25 7 -14
-1 -25 -8 -25 -14z"/>
<path d="M3212 2333 c-8 -14 -9 -24 -2 -28 12 -7 24 18 18 37 -3 8 -9 5 -16
-9z"/>
<path d="M2785 2320 c-21 -23 -8 -27 20 -7 11 8 14 16 8 20 -6 4 -18 -2 -28
-13z"/>
<path d="M2880 2320 c0 -7 24 -20 36 -20 13 0 1 19 -16 23 -11 3 -20 2 -20 -3z"/>
<path d="M3140 2315 c-7 -9 -10 -18 -7 -22 8 -7 37 15 37 28 0 14 -16 11 -30
-6z"/>
<path d="M1537 2270 c-55 -44 -23 -109 51 -104 46 2 58 17 39 44 -13 18 -16
19 -24 7 -13 -23 -57 -26 -61 -4 -9 44 55 58 84 19 6 -8 16 -12 23 -8 17 11
-4 43 -31 48 -13 3 -30 8 -39 12 -9 4 -26 -2 -42 -14z"/>
<path d="M1015 2216 c-50 -51 -17 -108 59 -101 47 4 52 9 38 39 -9 20 -8 23 6
22 26 -2 20 27 -8 40 -56 26 -69 26 -95 0z m84 -15 c2 -1 -2 -7 -8 -15 -6 -7
-9 -21 -5 -30 5 -12 0 -16 -18 -16 -46 0 -65 44 -25 59 19 7 28 7 56 2z"/>
<path d="M3136 2115 c-3 -9 -6 -22 -5 -28 0 -7 5 -1 10 12 5 13 8 26 5 28 -2
2 -6 -3 -10 -12z"/>
<path d="M2412 2093 c-15 -3 -22 -10 -18 -19 3 -8 1 -14 -3 -14 -5 0 -11 5
-13 11 -6 19 -38 -38 -43 -77 -2 -20 -7 -39 -10 -42 -3 -3 -34 -6 -70 -6 -50
-1 -64 -4 -60 -14 3 -8 5 -16 5 -18 0 -2 5 -4 11 -4 5 0 7 5 4 10 -3 6 1 10
10 10 9 0 13 -4 10 -10 -4 -6 12 -10 40 -10 71 0 100 36 98 126 0 14 14 16
114 18 88 2 96 5 85 23 -8 13 -123 25 -160 16z"/>
<path d="M2702 2060 c0 -14 2 -19 5 -12 2 6 2 18 0 25 -3 6 -5 1 -5 -13z"/>
<path d="M1107 1891 c-9 -16 -17 -41 -17 -55 0 -23 4 -26 34 -26 19 0 38 -5
42 -11 4 -7 22 -9 48 -5 29 4 37 3 26 -4 -13 -9 -13 -10 0 -10 21 0 55 59 42
72 -27 27 -127 30 -144 4 -13 -19 -23 4 -10 24 7 11 12 24 12 30 0 19 -16 10
-33 -19z m129 -52 c7 -12 -15 -31 -28 -23 -4 3 -8 12 -8 20 0 17 26 19 36 3z"/>
<path d="M1280 1790 c0 -5 5 -10 10 -10 6 0 10 5 10 10 0 6 -4 10 -10 10 -5 0
-10 -4 -10 -10z"/>
<path d="M2945 1520 c-9 -16 -13 -30 -11 -30 3 0 12 14 21 30 9 17 13 30 11
30 -3 0 -12 -13 -21 -30z"/>
</g>
</svg>
